<svg xmlns="http://www.w3.org/2000/svg" xmlns:xlink="http://www.w3.org/1999/xlink" width="1600" zoomAndPan="magnify" viewBox="0 0 1200 749.999995" height="1000" preserveAspectRatio="xMidYMid meet" version="1.0"><path fill="#010202" d="M 954.144531 110.5 L 246.453125 110.5 C 208.796875 110.5 180 139.296875 180 176.949219 L 180 574.984375 C 180 612.640625 211.011719 641.433594 246.453125 641.433594 L 954.144531 641.433594 C 991.796875 641.433594 1020.59375 612.640625 1020.59375 574.984375 L 1020.59375 176.726562 C 1020.371094 139.074219 989.363281 110.5 954.144531 110.5 Z M 954.144531 110.5 " fill-opacity="0.07" fill-rule="nonzero"/><path fill="#286cb4" d="M 954.144531 132.648438 C 978.507812 132.648438 998.445312 152.585938 998.445312 176.949219 L 998.445312 574.984375 C 998.445312 599.347656 978.507812 619.285156 954.144531 619.285156 L 246.453125 619.285156 C 222.085938 619.285156 202.152344 599.347656 202.152344 574.984375 L 202.152344 176.726562 C 202.152344 152.363281 222.085938 132.429688 246.453125 132.429688 L 954.144531 132.429688 " fill-opacity="1" fill-rule="nonzero"/><path fill="#ffffff" d="M 378.464844 337.535156 L 395.519531 378.957031 L 361.410156 378.957031 Z M 733.972656 339.308594 L 668.1875 339.308594 L 668.1875 357.691406 L 732.867188 357.691406 L 732.867188 385.160156 L 668.1875 385.160156 L 668.1875 405.535156 L 733.972656 405.535156 L 733.972656 421.929688 L 779.824219 372.3125 L 733.972656 320.480469 Z M 422.988281 287.476562 L 511.367188 287.476562 L 531.078125 330.226562 L 549.242188 287.257812 L 778.496094 287.257812 L 802.417969 313.613281 L 827.003906 287.257812 L 932.214844 287.257812 L 854.46875 372.535156 L 931.550781 457.148438 L 824.566406 457.148438 L 800.644531 430.789062 L 775.835938 457.148438 L 401.945312 457.148438 L 391.089844 430.789062 L 366.0625 430.789062 L 355.207031 457.148438 L 268.824219 457.148438 L 341.476562 287.257812 L 417.226562 287.257812 Z M 614.585938 311.398438 L 564.96875 311.398438 L 531.742188 389.589844 L 495.859375 311.398438 L 446.6875 311.398438 L 446.6875 417.71875 L 401.058594 311.398438 L 356.980469 311.398438 L 304.261719 433.222656 L 338.59375 433.222656 L 349.449219 406.867188 L 407.261719 406.867188 L 418.113281 433.222656 L 478.363281 433.222656 L 478.363281 346.175781 L 517.125 433.222656 L 543.484375 433.222656 L 582.023438 346.398438 L 582.023438 433.222656 L 614.363281 433.222656 Z M 821.023438 372.535156 L 877.0625 311.398438 L 836.75 311.398438 L 801.308594 349.496094 L 766.976562 311.398438 L 636.734375 311.398438 L 636.734375 433.445312 L 765.203125 433.445312 L 800.867188 394.90625 L 835.199219 433.445312 L 876.617188 433.445312 Z M 821.023438 372.535156 " fill-opacity="1" fill-rule="nonzero"/></svg>