<svg xmlns="http://www.w3.org/2000/svg" xmlns:xlink="http://www.w3.org/1999/xlink" width="1600" zoomAndPan="magnify" viewBox="0 0 1200 749.999995" height="1000" preserveAspectRatio="xMidYMid meet" version="1.0"><defs><clipPath id="442bdd7682"><path d="M 301.226562 75 L 898.976562 75 L 898.976562 672.75 L 301.226562 672.75 Z M 301.226562 75 " clip-rule="nonzero"/></clipPath></defs><g clip-path="url(#442bdd7682)"><path fill="#807985" d="M 600.15625 75 C 765.246094 75 899.085938 208.84375 899.085938 373.929688 C 899.085938 539.019531 765.246094 672.863281 600.15625 672.863281 C 435.066406 672.863281 301.226562 539.019531 301.226562 373.929688 C 301.226562 208.84375 435.066406 75 600.15625 75 Z M 636.503906 180.707031 C 659.035156 180.707031 677.304688 198.976562 677.304688 221.507812 C 677.304688 244.066406 659.035156 262.339844 636.503906 262.339844 C 613.972656 262.339844 595.671875 244.066406 595.671875 221.507812 C 595.671875 198.976562 613.945312 180.707031 636.503906 180.707031 Z M 524.941406 332.988281 C 551.3125 279.628906 663.660156 262.3125 643.648438 335.398438 C 632.214844 377.152344 601.921875 487.933594 597.214844 506.511719 C 591.382812 529.519531 617.753906 530.753906 646.003906 518.171875 C 621.988281 580.132812 500.699219 590.050781 526.621094 508.054688 C 526.621094 508.054688 560.980469 382.816406 570.367188 354.453125 C 580.761719 323.011719 545.371094 322.621094 524.941406 332.960938 Z M 600.183594 103.277344 C 450.703125 103.277344 329.558594 224.453125 329.558594 373.902344 C 329.558594 523.382812 450.734375 644.53125 600.183594 644.53125 C 749.664062 644.53125 870.8125 523.355469 870.8125 373.902344 C 870.8125 224.421875 749.636719 103.277344 600.183594 103.277344 Z M 600.183594 103.277344 " fill-opacity="1" fill-rule="nonzero"/></g></svg>