<svg xmlns="http://www.w3.org/2000/svg" xmlns:xlink="http://www.w3.org/1999/xlink" width="1600" zoomAndPan="magnify" viewBox="0 0 1200 749.999995" height="1000" preserveAspectRatio="xMidYMid meet" version="1.0"><defs><clipPath id="4817276279"><path d="M 135.15625 96.09375 L 1065 96.09375 L 1065 654 L 135.15625 654 Z M 135.15625 96.09375 " clip-rule="nonzero"/></clipPath><clipPath id="7c4109b0b7"><path d="M 135.15625 152.34375 L 135.15625 597.65625 C 135.15625 628.722656 160.339844 653.90625 191.40625 653.90625 L 1008.59375 653.90625 C 1039.660156 653.90625 1064.84375 628.722656 1064.84375 597.65625 L 1064.84375 152.34375 C 1064.84375 121.277344 1039.660156 96.09375 1008.59375 96.09375 L 191.40625 96.09375 C 160.339844 96.09375 135.15625 121.277344 135.15625 152.34375 Z M 135.15625 152.34375 " clip-rule="nonzero"/></clipPath><clipPath id="90d169938f"><path d="M 283 282 L 898 282 L 898 469 L 283 469 Z M 283 282 " clip-rule="nonzero"/></clipPath><clipPath id="74e0233e09"><path d="M 135.15625 152.34375 L 135.15625 597.65625 C 135.15625 628.722656 160.339844 653.90625 191.40625 653.90625 L 1008.59375 653.90625 C 1039.660156 653.90625 1064.84375 628.722656 1064.84375 597.65625 L 1064.84375 152.34375 C 1064.84375 121.277344 1039.660156 96.09375 1008.59375 96.09375 L 191.40625 96.09375 C 160.339844 96.09375 135.15625 121.277344 135.15625 152.34375 Z M 135.15625 152.34375 " clip-rule="nonzero"/></clipPath></defs><g clip-path="url(#4817276279)"><g clip-path="url(#7c4109b0b7)"><path fill="#286cb4" d="M 172.355469 96.09375 L 1027.953125 96.09375 C 1029.171875 96.09375 1030.386719 96.152344 1031.601562 96.273438 C 1032.8125 96.390625 1034.015625 96.570312 1035.210938 96.808594 C 1036.40625 97.046875 1037.585938 97.34375 1038.753906 97.695312 C 1039.917969 98.050781 1041.066406 98.460938 1042.191406 98.925781 C 1043.316406 99.390625 1044.417969 99.914062 1045.492188 100.488281 C 1046.566406 101.0625 1047.609375 101.6875 1048.621094 102.363281 C 1049.636719 103.039062 1050.613281 103.765625 1051.554688 104.539062 C 1052.496094 105.3125 1053.398438 106.128906 1054.257812 106.988281 C 1055.121094 107.851562 1055.9375 108.753906 1056.710938 109.695312 C 1057.484375 110.636719 1058.207031 111.613281 1058.886719 112.625 C 1059.5625 113.640625 1060.1875 114.683594 1060.761719 115.757812 C 1061.335938 116.832031 1061.855469 117.933594 1062.324219 119.058594 C 1062.789062 120.183594 1063.199219 121.328125 1063.550781 122.496094 C 1063.90625 123.660156 1064.203125 124.839844 1064.441406 126.035156 C 1064.675781 127.230469 1064.855469 128.433594 1064.976562 129.648438 C 1065.09375 130.859375 1065.15625 132.074219 1065.15625 133.292969 L 1065.15625 616.890625 C 1065.15625 618.109375 1065.09375 619.324219 1064.976562 620.539062 C 1064.855469 621.75 1064.675781 622.953125 1064.441406 624.148438 C 1064.203125 625.34375 1063.90625 626.523438 1063.550781 627.691406 C 1063.199219 628.855469 1062.789062 630.003906 1062.324219 631.128906 C 1061.855469 632.253906 1061.335938 633.351562 1060.761719 634.425781 C 1060.1875 635.503906 1059.5625 636.546875 1058.886719 637.558594 C 1058.207031 638.570312 1057.484375 639.550781 1056.710938 640.492188 C 1055.9375 641.433594 1055.121094 642.335938 1054.257812 643.195312 C 1053.398438 644.058594 1052.496094 644.875 1051.554688 645.648438 C 1050.613281 646.421875 1049.636719 647.144531 1048.621094 647.824219 C 1047.609375 648.5 1046.566406 649.125 1045.492188 649.699219 C 1044.417969 650.273438 1043.316406 650.792969 1042.191406 651.261719 C 1041.066406 651.726562 1039.917969 652.136719 1038.753906 652.488281 C 1037.585938 652.84375 1036.40625 653.140625 1035.210938 653.375 C 1034.015625 653.613281 1032.8125 653.792969 1031.601562 653.914062 C 1030.386719 654.03125 1029.171875 654.089844 1027.953125 654.089844 L 172.355469 654.089844 C 171.136719 654.089844 169.921875 654.03125 168.707031 653.914062 C 167.496094 653.792969 166.292969 653.613281 165.097656 653.375 C 163.902344 653.140625 162.722656 652.84375 161.554688 652.488281 C 160.390625 652.136719 159.246094 651.726562 158.117188 651.261719 C 156.992188 650.792969 155.894531 650.273438 154.820312 649.699219 C 153.746094 649.125 152.699219 648.5 151.6875 647.824219 C 150.675781 647.144531 149.695312 646.421875 148.753906 645.648438 C 147.8125 644.875 146.910156 644.058594 146.050781 643.195312 C 145.1875 642.335938 144.371094 641.433594 143.597656 640.492188 C 142.824219 639.550781 142.101562 638.570312 141.425781 637.558594 C 140.746094 636.546875 140.121094 635.503906 139.546875 634.425781 C 138.972656 633.351562 138.453125 632.253906 137.984375 631.128906 C 137.519531 630.003906 137.109375 628.855469 136.757812 627.691406 C 136.402344 626.523438 136.105469 625.34375 135.871094 624.148438 C 135.632812 622.953125 135.453125 621.75 135.332031 620.539062 C 135.214844 619.324219 135.15625 618.109375 135.15625 616.890625 L 135.15625 133.292969 C 135.15625 132.074219 135.214844 130.859375 135.332031 129.648438 C 135.453125 128.433594 135.632812 127.230469 135.871094 126.035156 C 136.105469 124.839844 136.402344 123.660156 136.757812 122.496094 C 137.109375 121.328125 137.519531 120.183594 137.984375 119.058594 C 138.453125 117.933594 138.972656 116.832031 139.546875 115.757812 C 140.121094 114.683594 140.746094 113.640625 141.425781 112.625 C 142.101562 111.613281 142.824219 110.636719 143.597656 109.695312 C 144.371094 108.753906 145.1875 107.851562 146.050781 106.988281 C 146.910156 106.128906 147.8125 105.3125 148.753906 104.539062 C 149.695312 103.765625 150.675781 103.039062 151.6875 102.363281 C 152.699219 101.6875 153.746094 101.0625 154.820312 100.488281 C 155.894531 99.914062 156.992188 99.390625 158.117188 98.925781 C 159.246094 98.460938 160.390625 98.050781 161.554688 97.695312 C 162.722656 97.34375 163.902344 97.046875 165.097656 96.808594 C 166.292969 96.570312 167.496094 96.390625 168.707031 96.273438 C 169.921875 96.152344 171.136719 96.09375 172.355469 96.09375 Z M 172.355469 96.09375 " fill-opacity="1" fill-rule="evenodd"/></g></g><g clip-path="url(#90d169938f)"><g clip-path="url(#74e0233e09)"><path fill="#286cb4" d="M 601.398438 341.554688 C 601.046875 367.464844 626.003906 381.925781 644.804688 390.519531 C 664.117188 399.339844 670.605469 404.996094 670.535156 412.882812 C 670.386719 424.957031 655.125 430.285156 640.839844 430.492188 C 615.921875 430.855469 601.433594 424.179688 589.914062 419.128906 L 580.9375 458.546875 C 592.496094 463.542969 613.894531 467.902344 636.085938 468.09375 C 688.171875 468.09375 722.25 443.964844 722.4375 406.554688 C 722.636719 359.078125 652.453125 356.449219 652.929688 335.226562 C 653.097656 328.792969 659.640625 321.925781 673.980469 320.179688 C 681.074219 319.296875 700.667969 318.621094 722.878906 328.222656 L 731.597656 290.082031 C 719.652344 286.003906 704.300781 282.09375 685.1875 282.09375 C 636.160156 282.09375 601.671875 306.550781 601.398438 341.554688 M 815.367188 285.378906 C 805.855469 285.378906 797.839844 290.585938 794.261719 298.574219 L 719.855469 465.289062 L 771.90625 465.289062 L 782.265625 438.429688 L 845.871094 438.429688 L 851.878906 465.289062 L 897.753906 465.289062 L 857.722656 285.378906 L 815.367188 285.378906 M 822.648438 333.980469 L 837.667969 401.539062 L 796.53125 401.539062 L 822.648438 333.980469 M 538.289062 285.378906 L 497.261719 465.289062 L 546.859375 465.289062 L 587.867188 285.378906 L 538.289062 285.378906 M 464.914062 285.378906 L 413.289062 407.832031 L 392.40625 303.714844 C 389.953125 292.089844 380.277344 285.378906 369.53125 285.378906 L 285.132812 285.378906 L 283.953125 290.601562 C 301.28125 294.132812 320.964844 299.820312 332.890625 305.910156 C 340.1875 309.628906 342.269531 312.878906 344.667969 321.71875 L 384.222656 465.289062 L 436.640625 465.289062 L 517 285.378906 L 464.914062 285.378906 " fill-opacity="1" fill-rule="nonzero"/></g></g><path fill="#ff5f00" d="M 523.332031 237.605469 L 676.175781 237.605469 L 676.175781 512.207031 L 523.332031 512.207031 Z M 523.332031 237.605469 " fill-opacity="1" fill-rule="nonzero"/><path fill="#eb001b" d="M 533.039062 374.90625 C 533.035156 371.613281 533.125 368.324219 533.308594 365.035156 C 533.492188 361.75 533.769531 358.46875 534.136719 355.199219 C 534.507812 351.925781 534.96875 348.667969 535.523438 345.421875 C 536.078125 342.175781 536.722656 338.949219 537.460938 335.742188 C 538.195312 332.53125 539.023438 329.34375 539.941406 326.183594 C 540.859375 323.019531 541.863281 319.886719 542.957031 316.78125 C 544.054688 313.675781 545.234375 310.605469 546.503906 307.566406 C 547.773438 304.53125 549.128906 301.53125 550.566406 298.566406 C 552.007812 295.605469 553.527344 292.6875 555.132812 289.8125 C 556.738281 286.9375 558.421875 284.109375 560.1875 281.328125 C 561.949219 278.550781 563.792969 275.820312 565.710938 273.148438 C 567.628906 270.472656 569.625 267.851562 571.691406 265.289062 C 573.757812 262.726562 575.898438 260.226562 578.109375 257.785156 C 580.316406 255.34375 582.59375 252.964844 584.9375 250.652344 C 587.28125 248.339844 589.691406 246.09375 592.160156 243.917969 C 594.632812 241.742188 597.164062 239.640625 599.753906 237.605469 C 597.621094 235.929688 595.449219 234.304688 593.238281 232.726562 C 591.03125 231.152344 588.785156 229.628906 586.503906 228.15625 C 584.222656 226.6875 581.910156 225.269531 579.5625 223.90625 C 577.21875 222.542969 574.839844 221.234375 572.433594 219.984375 C 570.023438 218.730469 567.589844 217.535156 565.125 216.394531 C 562.664062 215.257812 560.175781 214.175781 557.660156 213.152344 C 555.144531 212.128906 552.609375 211.167969 550.050781 210.261719 C 547.492188 209.355469 544.914062 208.511719 542.316406 207.726562 C 539.71875 206.945312 537.101562 206.21875 534.472656 205.558594 C 531.839844 204.894531 529.195312 204.292969 526.535156 203.753906 C 523.875 203.214844 521.203125 202.738281 518.519531 202.324219 C 515.839844 201.90625 513.148438 201.554688 510.449219 201.265625 C 507.753906 200.976562 505.046875 200.75 502.339844 200.585938 C 499.628906 200.421875 496.917969 200.320312 494.207031 200.285156 C 491.492188 200.246094 488.777344 200.273438 486.066406 200.363281 C 483.351562 200.453125 480.644531 200.605469 477.9375 200.820312 C 475.234375 201.035156 472.535156 201.3125 469.84375 201.65625 C 467.148438 201.996094 464.464844 202.402344 461.792969 202.867188 C 459.117188 203.332031 456.457031 203.859375 453.808594 204.453125 C 451.160156 205.042969 448.527344 205.691406 445.90625 206.40625 C 443.289062 207.121094 440.6875 207.894531 438.105469 208.726562 C 435.523438 209.5625 432.960938 210.457031 430.421875 211.410156 C 427.878906 212.363281 425.363281 213.375 422.867188 214.445312 C 420.375 215.515625 417.90625 216.644531 415.464844 217.832031 C 413.027344 219.015625 410.613281 220.257812 408.230469 221.558594 C 405.847656 222.855469 403.496094 224.207031 401.175781 225.617188 C 398.855469 227.023438 396.570312 228.484375 394.316406 230 C 392.066406 231.515625 389.851562 233.078125 387.671875 234.699219 C 385.492188 236.316406 383.351562 237.984375 381.25 239.699219 C 379.148438 241.417969 377.089844 243.183594 375.070312 244.996094 C 373.050781 246.808594 371.074219 248.667969 369.144531 250.574219 C 367.210938 252.480469 365.324219 254.429688 363.484375 256.421875 C 361.640625 258.417969 359.847656 260.453125 358.101562 262.527344 C 356.355469 264.605469 354.660156 266.722656 353.011719 268.878906 C 351.363281 271.035156 349.765625 273.226562 348.222656 275.457031 C 346.675781 277.6875 345.183594 279.953125 343.742188 282.253906 C 342.304688 284.554688 340.917969 286.886719 339.585938 289.25 C 338.253906 291.617188 336.980469 294.007812 335.761719 296.433594 C 334.539062 298.859375 333.378906 301.308594 332.273438 303.785156 C 331.167969 306.265625 330.121094 308.769531 329.132812 311.292969 C 328.144531 313.820312 327.214844 316.371094 326.34375 318.941406 C 325.476562 321.511719 324.664062 324.101562 323.917969 326.707031 C 323.167969 329.316406 322.480469 331.941406 321.851562 334.582031 C 321.226562 337.21875 320.660156 339.875 320.160156 342.539062 C 319.65625 345.207031 319.214844 347.882812 318.835938 350.570312 C 318.457031 353.257812 318.144531 355.949219 317.890625 358.652344 C 317.636719 361.355469 317.449219 364.058594 317.320312 366.769531 C 317.195312 369.480469 317.132812 372.191406 317.132812 374.90625 C 317.132812 377.621094 317.195312 380.332031 317.320312 383.042969 C 317.449219 385.753906 317.636719 388.460938 317.890625 391.160156 C 318.144531 393.863281 318.457031 396.554688 318.835938 399.242188 C 319.214844 401.929688 319.65625 404.605469 320.160156 407.273438 C 320.660156 409.9375 321.226562 412.59375 321.851562 415.234375 C 322.480469 417.871094 323.167969 420.496094 323.917969 423.105469 C 324.664062 425.714844 325.476562 428.300781 326.34375 430.871094 C 327.214844 433.441406 328.144531 435.992188 329.132812 438.519531 C 330.121094 441.046875 331.167969 443.546875 332.273438 446.027344 C 333.378906 448.503906 334.539062 450.957031 335.761719 453.378906 C 336.980469 455.804688 338.253906 458.199219 339.585938 460.5625 C 340.917969 462.925781 342.300781 465.257812 343.742188 467.558594 C 345.183594 469.859375 346.675781 472.125 348.21875 474.355469 C 349.765625 476.585938 351.363281 478.777344 353.011719 480.933594 C 354.660156 483.089844 356.355469 485.207031 358.101562 487.285156 C 359.847656 489.359375 361.640625 491.394531 363.484375 493.390625 C 365.324219 495.382812 367.210938 497.332031 369.144531 499.238281 C 371.074219 501.144531 373.050781 503.003906 375.070312 504.816406 C 377.089844 506.628906 379.148438 508.394531 381.25 510.113281 C 383.351562 511.828125 385.492188 513.496094 387.671875 515.113281 C 389.847656 516.734375 392.066406 518.296875 394.316406 519.8125 C 396.570312 521.328125 398.855469 522.789062 401.175781 524.195312 C 403.496094 525.605469 405.847656 526.957031 408.230469 528.253906 C 410.613281 529.554688 413.023438 530.796875 415.464844 531.980469 C 417.90625 533.167969 420.375 534.296875 422.867188 535.367188 C 425.363281 536.4375 427.878906 537.449219 430.421875 538.402344 C 432.960938 539.359375 435.523438 540.25 438.105469 541.085938 C 440.6875 541.921875 443.289062 542.695312 445.90625 543.40625 C 448.527344 544.121094 451.160156 544.773438 453.808594 545.363281 C 456.457031 545.953125 459.117188 546.480469 461.792969 546.945312 C 464.464844 547.414062 467.148438 547.816406 469.839844 548.15625 C 472.535156 548.5 475.234375 548.777344 477.9375 548.992188 C 480.644531 549.207031 483.351562 549.359375 486.066406 549.449219 C 488.777344 549.539062 491.492188 549.566406 494.203125 549.527344 C 496.917969 549.492188 499.628906 549.390625 502.339844 549.226562 C 505.046875 549.0625 507.75 548.835938 510.449219 548.546875 C 513.148438 548.257812 515.839844 547.90625 518.519531 547.492188 C 521.203125 547.074219 523.875 546.597656 526.535156 546.058594 C 529.195312 545.519531 531.839844 544.917969 534.472656 544.253906 C 537.101562 543.59375 539.71875 542.871094 542.316406 542.085938 C 544.914062 541.300781 547.492188 540.457031 550.050781 539.550781 C 552.609375 538.644531 555.144531 537.683594 557.660156 536.660156 C 560.171875 535.636719 562.664062 534.554688 565.125 533.417969 C 567.589844 532.277344 570.023438 531.082031 572.433594 529.828125 C 574.839844 528.578125 577.21875 527.269531 579.5625 525.90625 C 581.910156 524.542969 584.222656 523.125 586.503906 521.65625 C 588.785156 520.183594 591.03125 518.660156 593.238281 517.085938 C 595.449219 515.507812 597.621094 513.882812 599.753906 512.207031 C 597.164062 510.175781 594.632812 508.070312 592.160156 505.894531 C 589.691406 503.71875 587.28125 501.472656 584.9375 499.160156 C 582.59375 496.847656 580.316406 494.472656 578.109375 492.027344 C 575.898438 489.585938 573.757812 487.085938 571.691406 484.523438 C 569.625 481.960938 567.632812 479.339844 565.710938 476.664062 C 563.792969 473.992188 561.949219 471.261719 560.1875 468.484375 C 558.421875 465.703125 556.738281 462.875 555.132812 460 C 553.527344 457.125 552.007812 454.207031 550.566406 451.246094 C 549.128906 448.285156 547.773438 445.285156 546.503906 442.246094 C 545.234375 439.207031 544.054688 436.136719 542.957031 433.03125 C 541.863281 429.925781 540.859375 426.792969 539.941406 423.628906 C 539.023438 420.46875 538.195312 417.28125 537.457031 414.070312 C 536.722656 410.863281 536.078125 407.636719 535.523438 404.390625 C 534.96875 401.144531 534.507812 397.886719 534.136719 394.613281 C 533.769531 391.34375 533.492188 388.0625 533.308594 384.777344 C 533.125 381.488281 533.035156 378.199219 533.039062 374.90625 Z M 533.039062 374.90625 " fill-opacity="1" fill-rule="nonzero"/><path fill="#f79e1b" d="M 882.367188 374.90625 C 882.367188 378.976562 882.226562 383.042969 881.941406 387.105469 C 881.65625 391.164062 881.230469 395.210938 880.664062 399.242188 C 880.097656 403.273438 879.390625 407.28125 878.542969 411.261719 C 877.695312 415.242188 876.710938 419.191406 875.585938 423.105469 C 874.460938 427.015625 873.203125 430.886719 871.808594 434.710938 C 870.414062 438.535156 868.886719 442.308594 867.230469 446.023438 C 865.570312 449.742188 863.785156 453.398438 861.871094 456.992188 C 859.957031 460.585938 857.921875 464.109375 855.761719 467.558594 C 853.601562 471.007812 851.324219 474.378906 848.925781 477.671875 C 846.53125 480.964844 844.023438 484.167969 841.402344 487.285156 C 838.78125 490.398438 836.058594 493.421875 833.226562 496.347656 C 830.394531 499.273438 827.464844 502.09375 824.433594 504.816406 C 821.40625 507.535156 818.285156 510.148438 815.074219 512.652344 C 811.863281 515.152344 808.566406 517.539062 805.1875 519.8125 C 801.808594 522.085938 798.355469 524.234375 794.828125 526.265625 C 791.296875 528.296875 787.703125 530.203125 784.039062 531.980469 C 780.378906 533.761719 776.65625 535.410156 772.878906 536.929688 C 769.101562 538.449219 765.277344 539.835938 761.402344 541.085938 C 757.527344 542.335938 753.613281 543.453125 749.660156 544.429688 C 745.707031 545.40625 741.726562 546.246094 737.714844 546.945312 C 733.703125 547.644531 729.671875 548.203125 725.621094 548.621094 C 721.570312 549.039062 717.511719 549.316406 713.441406 549.449219 C 709.371094 549.582031 705.304688 549.574219 701.234375 549.425781 C 697.164062 549.273438 693.105469 548.980469 689.058594 548.546875 C 685.007812 548.113281 680.980469 547.539062 676.972656 546.820312 C 672.964844 546.105469 668.984375 545.25 665.035156 544.253906 C 661.089844 543.261719 657.179688 542.128906 653.308594 540.863281 C 649.441406 539.59375 645.621094 538.195312 641.847656 536.660156 C 638.078125 535.125 634.363281 533.460938 630.707031 531.664062 C 627.054688 529.871094 623.464844 527.953125 619.945312 525.90625 C 616.425781 523.863281 612.980469 521.695312 609.609375 519.410156 C 606.242188 517.125 602.957031 514.722656 599.753906 512.207031 C 602.34375 510.171875 604.871094 508.066406 607.339844 505.886719 C 609.808594 503.710938 612.214844 501.464844 614.558594 499.148438 C 616.902344 496.835938 619.175781 494.457031 621.382812 492.015625 C 623.589844 489.574219 625.726562 487.070312 627.792969 484.507812 C 629.859375 481.945312 631.851562 479.324219 633.769531 476.648438 C 635.6875 473.972656 637.53125 471.246094 639.292969 468.464844 C 641.058594 465.683594 642.742188 462.859375 644.34375 459.984375 C 645.949219 457.109375 647.46875 454.191406 648.910156 451.226562 C 650.347656 448.265625 651.703125 445.269531 652.96875 442.230469 C 654.238281 439.191406 655.421875 436.121094 656.519531 433.015625 C 657.613281 429.914062 658.621094 426.78125 659.539062 423.617188 C 660.457031 420.457031 661.285156 417.273438 662.023438 414.0625 C 662.761719 410.855469 663.410156 407.628906 663.964844 404.382812 C 664.519531 401.140625 664.984375 397.882812 665.355469 394.609375 C 665.726562 391.339844 666.003906 388.0625 666.191406 384.773438 C 666.378906 381.488281 666.46875 378.199219 666.46875 374.90625 C 666.46875 371.613281 666.378906 368.324219 666.191406 365.039062 C 666.003906 361.75 665.726562 358.472656 665.355469 355.203125 C 664.984375 351.929688 664.519531 348.671875 663.964844 345.429688 C 663.410156 342.183594 662.761719 338.957031 662.023438 335.75 C 661.285156 332.539062 660.457031 329.355469 659.539062 326.195312 C 658.621094 323.03125 657.613281 319.898438 656.519531 316.796875 C 655.421875 313.691406 654.238281 310.621094 652.972656 307.582031 C 651.703125 304.542969 650.347656 301.546875 648.910156 298.585938 C 647.46875 295.621094 645.949219 292.703125 644.34375 289.828125 C 642.742188 286.953125 641.058594 284.128906 639.292969 281.347656 C 637.53125 278.566406 635.6875 275.839844 633.769531 273.164062 C 631.851562 270.488281 629.859375 267.867188 627.792969 265.304688 C 625.726562 262.742188 623.589844 260.238281 621.382812 257.796875 C 619.175781 255.355469 616.902344 252.976562 614.558594 250.664062 C 612.214844 248.347656 609.808594 246.101562 607.339844 243.925781 C 604.871094 241.746094 602.34375 239.640625 599.753906 237.605469 C 602.957031 235.089844 606.242188 232.6875 609.609375 230.402344 C 612.980469 228.117188 616.425781 225.953125 619.945312 223.90625 C 623.464844 221.859375 627.054688 219.941406 630.707031 218.148438 C 634.363281 216.351562 638.078125 214.6875 641.847656 213.152344 C 645.621094 211.617188 649.441406 210.21875 653.308594 208.949219 C 657.179688 207.683594 661.089844 206.550781 665.035156 205.558594 C 668.984375 204.5625 672.964844 203.707031 676.972656 202.992188 C 680.980469 202.273438 685.007812 201.699219 689.058594 201.265625 C 693.105469 200.832031 697.164062 200.539062 701.234375 200.386719 C 705.304688 200.238281 709.371094 200.230469 713.441406 200.363281 C 717.511719 200.496094 721.570312 200.773438 725.621094 201.191406 C 729.671875 201.609375 733.703125 202.167969 737.714844 202.867188 C 741.726562 203.566406 745.707031 204.40625 749.660156 205.382812 C 753.613281 206.359375 757.527344 207.476562 761.402344 208.726562 C 765.277344 209.980469 769.101562 211.363281 772.878906 212.882812 C 776.65625 214.402344 780.378906 216.050781 784.039062 217.832031 C 787.703125 219.609375 791.296875 221.515625 794.828125 223.546875 C 798.355469 225.578125 801.808594 227.726562 805.1875 230 C 808.566406 232.273438 811.863281 234.660156 815.074219 237.160156 C 818.285156 239.664062 821.40625 242.277344 824.433594 244.996094 C 827.464844 247.71875 830.394531 250.539062 833.226562 253.464844 C 836.058594 256.390625 838.78125 259.414062 841.402344 262.527344 C 844.023438 265.644531 846.53125 268.847656 848.925781 272.140625 C 851.324219 275.433594 853.601562 278.804688 855.761719 282.253906 C 857.921875 285.703125 859.957031 289.226562 861.871094 292.820312 C 863.785156 296.414062 865.570312 300.070312 867.230469 303.789062 C 868.886719 307.503906 870.414062 311.277344 871.808594 315.101562 C 873.203125 318.925781 874.460938 322.796875 875.585938 326.707031 C 876.710938 330.621094 877.695312 334.570312 878.542969 338.550781 C 879.390625 342.53125 880.097656 346.539062 880.664062 350.570312 C 881.230469 354.601562 881.65625 358.648438 881.941406 362.707031 C 882.226562 366.769531 882.367188 370.835938 882.367188 374.90625 Z M 882.367188 374.90625 " fill-opacity="1" fill-rule="nonzero"/><path fill="#f79e1b" d="M 865.703125 483.121094 L 865.703125 477.5 L 867.96875 477.5 L 867.96875 476.355469 L 862.195312 476.355469 L 862.195312 477.5 L 864.464844 477.5 L 864.464844 483.121094 Z M 876.914062 483.121094 L 876.914062 476.34375 L 875.144531 476.34375 L 873.109375 481.007812 L 871.070312 476.34375 L 869.300781 476.34375 L 869.300781 483.121094 L 870.550781 483.121094 L 870.550781 478.007812 L 872.460938 482.417969 L 873.753906 482.417969 L 875.664062 477.996094 L 875.664062 483.121094 Z M 876.914062 483.121094 " fill-opacity="1" fill-rule="nonzero"/></svg>