<svg xmlns="http://www.w3.org/2000/svg" xmlns:xlink="http://www.w3.org/1999/xlink" width="1600" zoomAndPan="magnify" viewBox="0 0 1200 749.999995" height="1000" preserveAspectRatio="xMidYMid meet" version="1.0"><defs><clipPath id="a0b8908919"><path d="M 87.804688 59.148438 L 1140.644531 59.148438 L 1140.644531 690.851562 L 87.804688 690.851562 Z M 87.804688 59.148438 " clip-rule="nonzero"/></clipPath><clipPath id="fa0db272f8"><path d="M 131.304688 59.148438 L 1097.144531 59.148438 C 1121.167969 59.148438 1140.644531 78.625 1140.644531 102.648438 L 1140.644531 647.351562 C 1140.644531 671.375 1121.167969 690.851562 1097.144531 690.851562 L 131.304688 690.851562 C 107.28125 690.851562 87.804688 671.375 87.804688 647.351562 L 87.804688 102.648438 C 87.804688 78.625 107.28125 59.148438 131.304688 59.148438 Z M 131.304688 59.148438 " clip-rule="nonzero"/></clipPath></defs><g clip-path="url(#a0b8908919)"><g clip-path="url(#fa0db272f8)"><path fill="#286cb4" d="M 87.804688 59.148438 L 1140.644531 59.148438 L 1140.644531 690.851562 L 87.804688 690.851562 Z M 87.804688 59.148438 " fill-opacity="1" fill-rule="nonzero"/></g></g><path fill="#ff5f00" d="M 531.664062 224.375 L 698.023438 224.375 L 698.023438 519.496094 L 531.664062 519.496094 Z M 531.664062 224.375 " fill-opacity="1" fill-rule="nonzero"/><path fill="#eb001b" d="M 542.230469 371.933594 C 542.226562 368.398438 542.324219 364.859375 542.523438 361.328125 C 542.722656 357.796875 543.023438 354.269531 543.425781 350.753906 C 543.828125 347.238281 544.332031 343.734375 544.933594 340.246094 C 545.535156 336.757812 546.238281 333.292969 547.042969 329.84375 C 547.84375 326.394531 548.742188 322.96875 549.742188 319.570312 C 550.742188 316.171875 551.835938 312.804688 553.027344 309.46875 C 554.21875 306.128906 555.503906 302.828125 556.886719 299.5625 C 558.269531 296.300781 559.742188 293.074219 561.308594 289.890625 C 562.875 286.710938 564.53125 283.574219 566.277344 280.484375 C 568.023438 277.390625 569.855469 274.355469 571.777344 271.367188 C 573.699219 268.378906 575.703125 265.445312 577.792969 262.570312 C 579.882812 259.695312 582.050781 256.882812 584.300781 254.125 C 586.550781 251.371094 588.878906 248.683594 591.285156 246.058594 C 593.691406 243.4375 596.167969 240.882812 598.71875 238.394531 C 601.269531 235.910156 603.890625 233.5 606.582031 231.160156 C 609.269531 228.820312 612.027344 226.558594 614.847656 224.375 C 612.523438 222.574219 610.160156 220.824219 607.753906 219.132812 C 605.351562 217.4375 602.90625 215.800781 600.425781 214.21875 C 597.941406 212.640625 595.421875 211.117188 592.871094 209.652344 C 590.316406 208.1875 587.726562 206.78125 585.105469 205.433594 C 582.488281 204.089844 579.835938 202.804688 577.15625 201.578125 C 574.472656 200.355469 571.765625 199.195312 569.027344 198.09375 C 566.292969 196.996094 563.53125 195.960938 560.746094 194.988281 C 557.960938 194.015625 555.15625 193.105469 552.328125 192.265625 C 549.5 191.421875 546.652344 190.644531 543.789062 189.929688 C 540.925781 189.21875 538.046875 188.574219 535.152344 187.992188 C 532.253906 187.414062 529.347656 186.898438 526.429688 186.453125 C 523.507812 186.007812 520.582031 185.628906 517.644531 185.320312 C 514.707031 185.007812 511.765625 184.765625 508.816406 184.589844 C 505.867188 184.414062 502.914062 184.304688 499.960938 184.265625 C 497.007812 184.222656 494.054688 184.253906 491.101562 184.347656 C 488.152344 184.445312 485.203125 184.609375 482.257812 184.839844 C 479.3125 185.070312 476.375 185.371094 473.445312 185.738281 C 470.515625 186.105469 467.59375 186.539062 464.683594 187.039062 C 461.773438 187.539062 458.875 188.109375 455.992188 188.742188 C 453.109375 189.375 450.242188 190.078125 447.394531 190.84375 C 444.542969 191.609375 441.710938 192.441406 438.902344 193.335938 C 436.089844 194.234375 433.300781 195.195312 430.535156 196.21875 C 427.769531 197.246094 425.03125 198.332031 422.316406 199.484375 C 419.601562 200.632812 416.917969 201.847656 414.261719 203.121094 C 411.605469 204.394531 408.976562 205.730469 406.382812 207.125 C 403.789062 208.523438 401.230469 209.976562 398.707031 211.488281 C 396.179688 213 393.691406 214.574219 391.242188 216.199219 C 388.789062 217.828125 386.378906 219.511719 384.007812 221.25 C 381.636719 222.988281 379.304688 224.78125 377.019531 226.625 C 374.730469 228.472656 372.488281 230.367188 370.292969 232.316406 C 368.09375 234.265625 365.945312 236.265625 363.839844 238.3125 C 361.738281 240.359375 359.683594 242.457031 357.679688 244.597656 C 355.675781 246.738281 353.722656 248.925781 351.824219 251.160156 C 349.921875 253.390625 348.074219 255.667969 346.28125 257.984375 C 344.488281 260.300781 342.75 262.65625 341.066406 265.054688 C 339.386719 267.453125 337.761719 269.886719 336.195312 272.359375 C 334.625 274.832031 333.117188 277.335938 331.667969 279.878906 C 330.222656 282.421875 328.832031 284.992188 327.503906 287.597656 C 326.179688 290.203125 324.914062 292.839844 323.710938 295.5 C 322.507812 298.164062 321.367188 300.855469 320.292969 303.570312 C 319.214844 306.285156 318.203125 309.023438 317.257812 311.789062 C 316.3125 314.550781 315.429688 317.332031 314.613281 320.136719 C 313.800781 322.9375 313.050781 325.757812 312.367188 328.597656 C 311.6875 331.433594 311.070312 334.285156 310.523438 337.148438 C 309.976562 340.015625 309.496094 342.894531 309.085938 345.78125 C 308.671875 348.667969 308.332031 351.5625 308.054688 354.46875 C 307.78125 357.371094 307.574219 360.277344 307.4375 363.191406 C 307.300781 366.105469 307.230469 369.019531 307.230469 371.9375 C 307.230469 374.851562 307.300781 377.765625 307.4375 380.679688 C 307.574219 383.59375 307.78125 386.5 308.054688 389.40625 C 308.332031 392.308594 308.671875 395.203125 309.085938 398.089844 C 309.496094 400.980469 309.976562 403.855469 310.523438 406.722656 C 311.070312 409.585938 311.6875 412.4375 312.367188 415.273438 C 313.050781 418.113281 313.800781 420.933594 314.613281 423.734375 C 315.429688 426.539062 316.3125 429.320312 317.257812 432.082031 C 318.203125 434.847656 319.214844 437.585938 320.292969 440.300781 C 321.367188 443.015625 322.507812 445.707031 323.710938 448.371094 C 324.914062 451.03125 326.179688 453.667969 327.503906 456.273438 C 328.832031 458.878906 330.222656 461.449219 331.667969 463.992188 C 333.117188 466.535156 334.625 469.039062 336.195312 471.511719 C 337.761719 473.984375 339.386719 476.417969 341.066406 478.816406 C 342.75 481.214844 344.488281 483.570312 346.28125 485.886719 C 348.074219 488.203125 349.921875 490.480469 351.824219 492.710938 C 353.722656 494.945312 355.675781 497.128906 357.679688 499.273438 C 359.683594 501.414062 361.738281 503.511719 363.839844 505.558594 C 365.945312 507.605469 368.09375 509.605469 370.292969 511.554688 C 372.488281 513.503906 374.730469 515.398438 377.019531 517.246094 C 379.304688 519.089844 381.636719 520.882812 384.007812 522.621094 C 386.378906 524.359375 388.789062 526.042969 391.242188 527.671875 C 393.691406 529.300781 396.179688 530.871094 398.707031 532.382812 C 401.230469 533.894531 403.789062 535.347656 406.382812 536.746094 C 408.976562 538.140625 411.601562 539.476562 414.261719 540.75 C 416.917969 542.023438 419.601562 543.238281 422.316406 544.386719 C 425.03125 545.539062 427.769531 546.625 430.535156 547.652344 C 433.300781 548.675781 436.089844 549.636719 438.902344 550.535156 C 441.710938 551.429688 444.542969 552.261719 447.394531 553.027344 C 450.242188 553.792969 453.109375 554.496094 455.992188 555.128906 C 458.875 555.761719 461.773438 556.332031 464.683594 556.832031 C 467.59375 557.332031 470.515625 557.765625 473.445312 558.132812 C 476.375 558.5 479.3125 558.800781 482.257812 559.03125 C 485.203125 559.261719 488.148438 559.425781 491.101562 559.523438 C 494.054688 559.617188 497.007812 559.648438 499.960938 559.605469 C 502.914062 559.566406 505.867188 559.457031 508.816406 559.28125 C 511.765625 559.105469 514.707031 558.863281 517.644531 558.550781 C 520.582031 558.242188 523.507812 557.863281 526.429688 557.417969 C 529.347656 556.972656 532.253906 556.457031 535.148438 555.878906 C 538.046875 555.300781 540.925781 554.652344 543.789062 553.941406 C 546.652344 553.226562 549.5 552.449219 552.328125 551.609375 C 555.15625 550.765625 557.960938 549.855469 560.746094 548.882812 C 563.53125 547.910156 566.292969 546.875 569.027344 545.777344 C 571.765625 544.675781 574.472656 543.515625 577.15625 542.292969 C 579.835938 541.066406 582.488281 539.78125 585.105469 538.4375 C 587.726562 537.089844 590.316406 535.683594 592.871094 534.21875 C 595.421875 532.753906 597.941406 531.230469 600.425781 529.652344 C 602.90625 528.070312 605.351562 526.433594 607.753906 524.738281 C 610.160156 523.046875 612.523438 521.296875 614.847656 519.496094 C 612.027344 517.3125 609.269531 515.050781 606.582031 512.710938 C 603.890625 510.371094 601.269531 507.960938 598.71875 505.476562 C 596.167969 502.988281 593.691406 500.433594 591.285156 497.8125 C 588.878906 495.1875 586.550781 492.5 584.300781 489.742188 C 582.050781 486.988281 579.882812 484.175781 577.792969 481.300781 C 575.703125 478.425781 573.699219 475.492188 571.777344 472.503906 C 569.855469 469.515625 568.023438 466.480469 566.277344 463.386719 C 564.53125 460.296875 562.875 457.160156 561.308594 453.980469 C 559.742188 450.796875 558.269531 447.570312 556.886719 444.308594 C 555.503906 441.042969 554.21875 437.738281 553.027344 434.402344 C 551.835938 431.066406 550.742188 427.699219 549.742188 424.300781 C 548.742188 420.902344 547.84375 417.476562 547.039062 414.027344 C 546.238281 410.578125 545.535156 407.109375 544.933594 403.621094 C 544.332031 400.136719 543.828125 396.632812 543.425781 393.117188 C 543.023438 389.601562 542.722656 386.074219 542.523438 382.542969 C 542.324219 379.007812 542.226562 375.472656 542.230469 371.933594 Z M 542.230469 371.933594 " fill-opacity="1" fill-rule="nonzero"/><path fill="#f79e1b" d="M 922.453125 371.933594 C 922.453125 376.3125 922.296875 380.679688 921.988281 385.046875 C 921.679688 389.410156 921.214844 393.757812 920.597656 398.089844 C 919.980469 402.421875 919.210938 406.730469 918.289062 411.007812 C 917.367188 415.289062 916.292969 419.53125 915.070312 423.734375 C 913.847656 427.941406 912.476562 432.097656 910.957031 436.210938 C 909.441406 440.320312 907.78125 444.375 905.976562 448.371094 C 904.171875 452.363281 902.226562 456.292969 900.144531 460.15625 C 898.058594 464.015625 895.84375 467.800781 893.492188 471.511719 C 891.140625 475.21875 888.660156 478.84375 886.054688 482.378906 C 883.445312 485.917969 880.714844 489.363281 877.863281 492.710938 C 875.011719 496.058594 872.046875 499.304688 868.964844 502.449219 C 865.882812 505.59375 862.691406 508.628906 859.394531 511.554688 C 856.097656 514.476562 852.703125 517.285156 849.207031 519.972656 C 845.710938 522.664062 842.125 525.230469 838.445312 527.671875 C 834.769531 530.113281 831.011719 532.425781 827.167969 534.605469 C 823.328125 536.789062 819.414062 538.835938 815.425781 540.75 C 811.441406 542.660156 807.390625 544.433594 803.28125 546.066406 C 799.167969 547.699219 795.003906 549.1875 790.789062 550.535156 C 786.570312 551.878906 782.308594 553.078125 778.007812 554.128906 C 773.707031 555.179688 769.371094 556.082031 765.003906 556.832031 C 760.640625 557.582031 756.253906 558.183594 751.84375 558.632812 C 747.433594 559.082031 743.015625 559.378906 738.585938 559.523438 C 734.15625 559.667969 729.726562 559.65625 725.300781 559.496094 C 720.871094 559.332031 716.453125 559.019531 712.046875 558.550781 C 707.640625 558.085938 703.253906 557.46875 698.890625 556.699219 C 694.527344 555.929688 690.199219 555.007812 685.902344 553.941406 C 681.601562 552.871094 677.347656 551.65625 673.136719 550.292969 C 668.925781 548.933594 664.765625 547.425781 660.660156 545.777344 C 656.558594 544.125 652.515625 542.339844 648.539062 540.410156 C 644.558594 538.480469 640.652344 536.417969 636.820312 534.21875 C 632.988281 532.023438 629.242188 529.695312 625.574219 527.238281 C 621.90625 524.78125 618.332031 522.199219 614.84375 519.496094 C 617.664062 517.308594 620.414062 515.046875 623.101562 512.707031 C 625.789062 510.363281 628.410156 507.949219 630.957031 505.464844 C 633.507812 502.976562 635.984375 500.421875 638.386719 497.796875 C 640.789062 495.171875 643.117188 492.480469 645.363281 489.726562 C 647.613281 486.972656 649.78125 484.15625 651.871094 481.28125 C 653.957031 478.40625 655.960938 475.472656 657.882812 472.484375 C 659.800781 469.5 661.632812 466.460938 663.378906 463.371094 C 665.125 460.28125 666.78125 457.144531 668.347656 453.960938 C 669.914062 450.777344 671.386719 447.554688 672.769531 444.289062 C 674.148438 441.027344 675.4375 437.726562 676.628906 434.390625 C 677.820312 431.054688 678.917969 427.6875 679.917969 424.289062 C 680.917969 420.890625 681.816406 417.46875 682.621094 414.019531 C 683.425781 410.570312 684.128906 407.105469 684.734375 403.617188 C 685.339844 400.128906 685.84375 396.628906 686.246094 393.113281 C 686.652344 389.597656 686.957031 386.074219 687.15625 382.539062 C 687.359375 379.007812 687.460938 375.472656 687.460938 371.933594 C 687.460938 368.398438 687.359375 364.863281 687.15625 361.328125 C 686.957031 357.796875 686.652344 354.273438 686.246094 350.757812 C 685.84375 347.242188 685.339844 343.742188 684.734375 340.253906 C 684.128906 336.765625 683.425781 333.300781 682.621094 329.851562 C 681.816406 326.402344 680.917969 322.980469 679.917969 319.582031 C 678.917969 316.183594 677.820312 312.816406 676.628906 309.480469 C 675.4375 306.144531 674.148438 302.84375 672.769531 299.578125 C 671.386719 296.316406 669.914062 293.089844 668.347656 289.910156 C 666.78125 286.726562 665.125 283.589844 663.378906 280.5 C 661.632812 277.410156 659.800781 274.371094 657.882812 271.382812 C 655.960938 268.398438 653.957031 265.464844 651.871094 262.589844 C 649.78125 259.714844 647.613281 256.898438 645.363281 254.144531 C 643.117188 251.390625 640.789062 248.699219 638.386719 246.074219 C 635.984375 243.449219 633.507812 240.894531 630.957031 238.40625 C 628.410156 235.917969 625.789062 233.507812 623.101562 231.164062 C 620.414062 228.824219 617.664062 226.5625 614.84375 224.375 C 618.332031 221.671875 621.90625 219.089844 625.574219 216.632812 C 629.242188 214.175781 632.988281 211.847656 636.820312 209.652344 C 640.652344 207.453125 644.558594 205.390625 648.539062 203.460938 C 652.515625 201.53125 656.558594 199.742188 660.660156 198.09375 C 664.765625 196.445312 668.925781 194.9375 673.136719 193.578125 C 677.347656 192.214844 681.601562 191 685.902344 189.929688 C 690.199219 188.863281 694.527344 187.941406 698.890625 187.171875 C 703.253906 186.402344 707.640625 185.785156 712.046875 185.320312 C 716.453125 184.851562 720.871094 184.539062 725.300781 184.375 C 729.726562 184.214844 734.15625 184.203125 738.585938 184.347656 C 743.015625 184.492188 747.433594 184.789062 751.84375 185.238281 C 756.253906 185.6875 760.640625 186.285156 765.003906 187.039062 C 769.371094 187.789062 773.707031 188.691406 778.007812 189.742188 C 782.308594 190.792969 786.570312 191.992188 790.789062 193.335938 C 795.003906 194.683594 799.167969 196.171875 803.28125 197.804688 C 807.390625 199.4375 811.441406 201.210938 815.425781 203.121094 C 819.414062 205.035156 823.328125 207.082031 827.167969 209.261719 C 831.011719 211.445312 834.769531 213.757812 838.445312 216.199219 C 842.125 218.640625 845.710938 221.207031 849.207031 223.898438 C 852.703125 226.585938 856.097656 229.394531 859.394531 232.316406 C 862.691406 235.242188 865.882812 238.277344 868.964844 241.421875 C 872.042969 244.566406 875.011719 247.8125 877.863281 251.160156 C 880.714844 254.507812 883.445312 257.953125 886.054688 261.488281 C 888.660156 265.027344 891.140625 268.652344 893.492188 272.359375 C 895.84375 276.066406 898.058594 279.851562 900.144531 283.714844 C 902.226562 287.578125 904.171875 291.507812 905.976562 295.5 C 907.78125 299.496094 909.441406 303.550781 910.957031 307.660156 C 912.476562 311.773438 913.847656 315.929688 915.070312 320.136719 C 916.292969 324.339844 917.367188 328.582031 918.289062 332.863281 C 919.210938 337.140625 919.980469 341.449219 920.597656 345.78125 C 921.214844 350.113281 921.679688 354.460938 921.988281 358.824219 C 922.296875 363.191406 922.453125 367.558594 922.453125 371.933594 Z M 922.453125 371.933594 " fill-opacity="1" fill-rule="nonzero"/><path fill="#f79e1b" d="M 904.3125 488.238281 L 904.3125 482.195312 L 906.78125 482.195312 L 906.78125 480.964844 L 900.496094 480.964844 L 900.496094 482.195312 L 902.964844 482.195312 L 902.964844 488.238281 Z M 916.515625 488.238281 L 916.515625 480.953125 L 914.589844 480.953125 L 912.371094 485.964844 L 910.15625 480.953125 L 908.230469 480.953125 L 908.230469 488.238281 L 909.589844 488.238281 L 909.589844 482.742188 L 911.667969 487.480469 L 913.078125 487.480469 L 915.15625 482.730469 L 915.15625 488.238281 Z M 916.515625 488.238281 " fill-opacity="1" fill-rule="nonzero"/></svg>