<svg xmlns="http://www.w3.org/2000/svg" xmlns:xlink="http://www.w3.org/1999/xlink" width="1600" zoomAndPan="magnify" viewBox="0 0 1200 749.999995" height="1000" preserveAspectRatio="xMidYMid meet" version="1.0"><defs><clipPath id="ed2b87f00b"><path d="M 322 41 L 879 41 L 879 712.59375 L 322 712.59375 Z M 322 41 " clip-rule="nonzero"/></clipPath></defs><g clip-path="url(#ed2b87f00b)"><path fill="#bfdbf0" d="M 856.152344 170.683594 C 868.457031 171.363281 878.140625 181.449219 878.140625 193.75 L 878.140625 370.8125 C 878.140625 536.253906 762.09375 678.898438 600.171875 712.59375 C 438.246094 678.898438 322.199219 536.253906 322.199219 370.8125 L 322.199219 193.75 C 322.199219 181.449219 331.882812 171.363281 344.140625 170.683594 C 479.101562 163.585938 551.035156 91.992188 581.710938 50.335938 C 590.851562 37.945312 609.488281 37.945312 618.628906 50.335938 C 649.304688 91.992188 721.238281 163.585938 856.152344 170.683594 " fill-opacity="1" fill-rule="nonzero"/></g><path fill="#3c5c88" d="M 612.203125 664.605469 C 604.378906 666.867188 595.960938 666.867188 588.136719 664.605469 C 459.644531 627.65625 368.527344 507.984375 368.527344 372.078125 L 368.527344 226.089844 C 368.527344 220.207031 372.960938 215.324219 378.796875 214.554688 C 483.578125 201.214844 551.578125 152.1875 591.980469 109.902344 C 596.460938 105.195312 603.878906 105.195312 608.359375 109.902344 C 648.761719 152.1875 716.804688 201.214844 821.542969 214.554688 C 827.378906 215.324219 831.8125 220.207031 831.8125 226.089844 L 831.8125 372.078125 C 831.8125 507.984375 740.695312 627.65625 612.203125 664.605469 " fill-opacity="1" fill-rule="nonzero"/><path fill="#b0ccdd" d="M 669.664062 365.25 L 646.5 365.25 L 646.5 295.78125 C 646.5 283.4375 641.703125 271.765625 632.925781 262.949219 C 624.195312 254.265625 612.519531 249.46875 600.171875 249.46875 C 574.609375 249.46875 553.839844 270.230469 553.839844 295.78125 L 553.839844 365.25 L 530.675781 365.25 L 530.675781 295.78125 C 530.675781 257.476562 561.847656 226.3125 600.171875 226.3125 C 618.675781 226.3125 636.09375 233.503906 649.304688 246.574219 C 662.46875 259.871094 669.664062 277.285156 669.664062 295.78125 L 669.664062 365.25 " fill-opacity="1" fill-rule="nonzero"/><path fill="#32c7a0" d="M 704.410156 434.71875 C 704.410156 492.246094 657.71875 538.921875 600.171875 538.921875 C 542.621094 538.921875 495.929688 492.246094 495.929688 434.71875 C 495.929688 377.191406 542.621094 330.515625 600.171875 330.515625 C 657.71875 330.515625 704.410156 377.191406 704.410156 434.71875 " fill-opacity="1" fill-rule="nonzero"/><path fill="#28af89" d="M 634.917969 423.140625 C 634.917969 442.316406 619.351562 457.875 600.171875 457.875 C 580.988281 457.875 565.421875 442.316406 565.421875 423.140625 C 565.421875 403.964844 580.988281 388.40625 600.171875 388.40625 C 619.351562 388.40625 634.917969 403.964844 634.917969 423.140625 " fill-opacity="1" fill-rule="nonzero"/><path fill="#28af89" d="M 600.171875 492.609375 C 593.789062 492.609375 588.585938 487.40625 588.585938 481.03125 L 588.585938 446.296875 C 588.585938 439.921875 593.789062 434.71875 600.171875 434.71875 C 606.550781 434.71875 611.753906 439.921875 611.753906 446.296875 L 611.753906 481.03125 C 611.753906 487.40625 606.550781 492.609375 600.171875 492.609375 " fill-opacity="1" fill-rule="nonzero"/></svg>