<svg xmlns="http://www.w3.org/2000/svg" xmlns:xlink="http://www.w3.org/1999/xlink" width="1600" zoomAndPan="magnify" viewBox="0 0 1200 749.999995" height="1000" preserveAspectRatio="xMidYMid meet" version="1.0"><defs><clipPath id="bc6d83907f"><path d="M 271.40625 30 L 928.40625 30 L 928.40625 720 L 271.40625 720 Z M 271.40625 30 " clip-rule="nonzero"/></clipPath></defs><g clip-path="url(#bc6d83907f)"><path fill="#000000" d="M 351.96875 239.59375 C 342.199219 235.820312 337.179688 230.667969 338.222656 225.449219 C 339.144531 220.851562 344.222656 216.773438 348.949219 216.773438 L 349.167969 216.773438 C 358.679688 217.035156 360.691406 221.898438 360.921875 222.601562 C 361.960938 226.363281 365.824219 228.617188 369.625 227.691406 C 373.511719 226.726562 375.871094 222.804688 374.917969 218.929688 C 373.441406 212.972656 366.445312 202.777344 349.570312 202.3125 L 348.964844 202.3125 C 337.410156 202.3125 326.304688 211.3125 324.035156 222.621094 C 323.097656 227.347656 321.941406 243.515625 346.761719 253.082031 C 356.554688 256.859375 361.554688 262.007812 360.515625 267.226562 C 359.605469 271.824219 354.527344 275.917969 349.789062 275.917969 C 349.714844 275.917969 349.644531 275.902344 349.570312 275.902344 C 339.894531 275.644531 337.992188 270.625 337.859375 270.277344 C 336.90625 266.390625 332.96875 264.027344 329.113281 265 C 325.238281 265.957031 322.867188 269.875 323.832031 273.75 C 325.3125 279.703125 332.292969 289.917969 349.167969 290.363281 C 349.382812 290.363281 349.570312 290.378906 349.773438 290.378906 C 361.324219 290.363281 372.425781 281.382812 374.695312 270.0625 C 375.652344 265.335938 376.796875 249.167969 351.96875 239.59375 Z M 454.550781 202.300781 C 450.546875 202.300781 447.324219 205.539062 447.324219 209.53125 L 447.324219 257.207031 C 447.324219 267.515625 438.925781 275.902344 428.617188 275.902344 C 418.292969 275.902344 409.90625 267.515625 409.90625 257.207031 L 409.90625 209.53125 C 409.90625 205.539062 406.667969 202.300781 402.675781 202.300781 C 398.671875 202.300781 395.445312 205.539062 395.445312 209.53125 L 395.445312 257.207031 C 395.445312 275.484375 410.324219 290.363281 428.617188 290.363281 C 446.894531 290.363281 461.78125 275.484375 461.78125 257.207031 L 461.78125 209.53125 C 461.78125 205.539062 458.546875 202.300781 454.550781 202.300781 Z M 535.289062 258.003906 C 531.460938 256.816406 527.425781 258.929688 526.242188 262.746094 C 523.785156 270.609375 516.640625 275.902344 508.484375 275.902344 C 498.175781 275.902344 489.789062 267.515625 489.789062 257.207031 L 489.789062 235.46875 C 489.789062 225.160156 498.175781 216.761719 508.484375 216.761719 C 516.640625 216.761719 523.785156 222.054688 526.242188 229.933594 C 527.425781 233.734375 531.460938 235.847656 535.289062 234.679688 C 539.105469 233.476562 541.238281 229.425781 540.035156 225.609375 C 535.667969 211.671875 523 202.300781 508.484375 202.300781 C 490.207031 202.300781 475.332031 217.179688 475.332031 235.46875 L 475.332031 257.207031 C 475.332031 275.484375 490.207031 290.363281 508.484375 290.363281 C 523 290.363281 535.667969 281.007812 540.035156 267.066406 C 541.238281 263.25 539.105469 259.1875 535.289062 258.003906 Z M 614.523438 258.003906 C 610.734375 256.816406 606.660156 258.929688 605.476562 262.746094 C 603.011719 270.625 595.886719 275.902344 587.730469 275.902344 C 577.421875 275.902344 569.023438 267.515625 569.023438 257.207031 L 569.023438 235.46875 C 569.023438 225.160156 577.421875 216.761719 587.730469 216.761719 C 595.875 216.761719 603.011719 222.054688 605.476562 229.933594 C 606.660156 233.734375 610.695312 235.847656 614.523438 234.679688 C 618.339844 233.476562 620.464844 229.425781 619.269531 225.609375 C 614.902344 211.671875 602.234375 202.300781 587.730469 202.300781 C 569.441406 202.300781 554.566406 217.179688 554.566406 235.46875 L 554.566406 257.207031 C 554.566406 275.484375 569.441406 290.363281 587.730469 290.363281 C 602.25 290.363281 614.914062 281.007812 619.269531 267.050781 C 620.464844 263.25 618.339844 259.1875 614.523438 258.003906 Z M 687.425781 275.902344 L 652.449219 275.902344 L 652.449219 253.578125 L 668.019531 253.578125 C 672.011719 253.578125 675.25 250.335938 675.25 246.347656 C 675.25 242.339844 672.011719 239.117188 668.019531 239.117188 L 652.449219 239.117188 L 652.449219 216.761719 L 687.425781 216.761719 C 691.414062 216.761719 694.65625 213.519531 694.65625 209.53125 C 694.65625 205.539062 691.414062 202.300781 687.425781 202.300781 L 645.21875 202.300781 C 641.226562 202.300781 637.992188 205.539062 637.992188 209.53125 L 637.992188 283.132812 C 637.992188 287.136719 641.226562 290.363281 645.21875 290.363281 L 687.425781 290.363281 C 691.414062 290.363281 694.65625 287.136719 694.65625 283.132812 C 694.65625 279.144531 691.414062 275.902344 687.425781 275.902344 Z M 740.15625 239.59375 C 730.378906 235.820312 725.363281 230.667969 726.417969 225.449219 C 727.328125 220.851562 732.40625 216.773438 737.152344 216.773438 L 737.367188 216.773438 C 746.875 217.035156 748.875 221.898438 749.117188 222.601562 C 750.164062 226.363281 753.992188 228.617188 757.820312 227.691406 C 761.695312 226.726562 764.070312 222.804688 763.101562 218.929688 C 761.628906 212.972656 754.632812 202.777344 737.753906 202.3125 C 725.695312 201.894531 714.535156 211.109375 712.238281 222.621094 C 711.285156 227.347656 710.136719 243.515625 734.964844 253.082031 C 744.753906 256.859375 749.757812 262.007812 748.71875 267.226562 C 747.804688 271.824219 742.730469 275.917969 737.988281 275.917969 C 737.914062 275.917969 737.839844 275.902344 737.773438 275.902344 C 728.097656 275.644531 726.1875 270.625 726.058594 270.277344 C 725.105469 266.402344 721.183594 264.019531 717.308594 265 C 713.433594 265.957031 711.0625 269.875 712.035156 273.75 C 713.492188 279.703125 720.488281 289.917969 737.375 290.363281 C 737.578125 290.363281 737.773438 290.378906 737.96875 290.378906 C 749.523438 290.363281 760.628906 281.382812 762.898438 270.0625 C 763.835938 265.335938 764.996094 249.167969 740.15625 239.59375 Z M 804.164062 239.59375 C 794.375 235.820312 789.371094 230.667969 790.417969 225.449219 C 791.335938 220.851562 796.414062 216.773438 801.140625 216.773438 L 801.355469 216.773438 C 810.890625 217.035156 812.882812 221.898438 813.113281 222.601562 C 814.171875 226.363281 818.015625 228.636719 821.820312 227.691406 C 825.691406 226.738281 828.066406 222.816406 827.109375 218.941406 C 825.636719 212.972656 818.640625 202.777344 801.761719 202.3125 L 801.160156 202.3125 C 789.601562 202.3125 778.5 211.3125 776.246094 222.621094 C 775.292969 227.347656 774.132812 243.515625 798.960938 253.082031 C 808.75 256.859375 813.765625 262.007812 812.707031 267.226562 C 811.800781 271.824219 806.722656 275.917969 801.984375 275.917969 C 801.910156 275.917969 801.835938 275.902344 801.761719 275.902344 C 792.105469 275.644531 790.183594 270.625 790.066406 270.277344 C 789.101562 266.390625 785.164062 264.027344 781.304688 265 C 777.433594 265.957031 775.058594 269.875 776.023438 273.75 C 777.5 279.703125 784.503906 289.917969 801.375 290.363281 C 801.578125 290.363281 801.78125 290.378906 801.964844 290.378906 C 813.53125 290.363281 824.636719 281.382812 826.890625 270.0625 C 827.832031 265.335938 828.992188 249.167969 804.164062 239.59375 Z M 804.164062 239.59375 C 794.375 235.820312 789.371094 230.667969 790.417969 225.449219 C 791.335938 220.851562 796.414062 216.773438 801.140625 216.773438 L 801.355469 216.773438 C 810.890625 217.035156 812.882812 221.898438 813.113281 222.601562 C 814.171875 226.363281 818.015625 228.636719 821.820312 227.691406 C 825.691406 226.738281 828.066406 222.816406 827.109375 218.941406 C 825.636719 212.972656 818.640625 202.777344 801.761719 202.3125 L 801.160156 202.3125 C 789.601562 202.3125 778.5 211.3125 776.246094 222.621094 C 775.292969 227.347656 774.132812 243.515625 798.960938 253.082031 C 808.75 256.859375 813.765625 262.007812 812.707031 267.226562 C 811.800781 271.824219 806.722656 275.917969 801.984375 275.917969 C 801.910156 275.917969 801.835938 275.902344 801.761719 275.902344 C 792.105469 275.644531 790.183594 270.625 790.066406 270.277344 C 789.101562 266.390625 785.164062 264.027344 781.304688 265 C 777.433594 265.957031 775.058594 269.875 776.023438 273.75 C 777.5 279.703125 784.503906 289.917969 801.375 290.363281 C 801.578125 290.363281 801.78125 290.378906 801.964844 290.378906 C 813.53125 290.363281 824.636719 281.382812 826.890625 270.0625 C 827.832031 265.335938 828.992188 249.167969 804.164062 239.59375 Z M 740.15625 239.59375 C 730.378906 235.820312 725.363281 230.667969 726.417969 225.449219 C 727.328125 220.851562 732.40625 216.773438 737.152344 216.773438 L 737.367188 216.773438 C 746.875 217.035156 748.875 221.898438 749.117188 222.601562 C 750.164062 226.363281 753.992188 228.617188 757.820312 227.691406 C 761.695312 226.726562 764.070312 222.804688 763.101562 218.929688 C 761.628906 212.972656 754.632812 202.777344 737.753906 202.3125 C 725.695312 201.894531 714.535156 211.109375 712.238281 222.621094 C 711.285156 227.347656 710.136719 243.515625 734.964844 253.082031 C 744.753906 256.859375 749.757812 262.007812 748.71875 267.226562 C 747.804688 271.824219 742.730469 275.917969 737.988281 275.917969 C 737.914062 275.917969 737.839844 275.902344 737.773438 275.902344 C 728.097656 275.644531 726.1875 270.625 726.058594 270.277344 C 725.105469 266.402344 721.183594 264.019531 717.308594 265 C 713.433594 265.957031 711.0625 269.875 712.035156 273.75 C 713.492188 279.703125 720.488281 289.917969 737.375 290.363281 C 737.578125 290.363281 737.773438 290.378906 737.96875 290.378906 C 749.523438 290.363281 760.628906 281.382812 762.898438 270.0625 C 763.835938 265.335938 764.996094 249.167969 740.15625 239.59375 Z M 687.425781 275.902344 L 652.449219 275.902344 L 652.449219 253.578125 L 668.019531 253.578125 C 672.011719 253.578125 675.25 250.335938 675.25 246.347656 C 675.25 242.339844 672.011719 239.117188 668.019531 239.117188 L 652.449219 239.117188 L 652.449219 216.761719 L 687.425781 216.761719 C 691.414062 216.761719 694.65625 213.519531 694.65625 209.53125 C 694.65625 205.539062 691.414062 202.300781 687.425781 202.300781 L 645.21875 202.300781 C 641.226562 202.300781 637.992188 205.539062 637.992188 209.53125 L 637.992188 283.132812 C 637.992188 287.136719 641.226562 290.363281 645.21875 290.363281 L 687.425781 290.363281 C 691.414062 290.363281 694.65625 287.136719 694.65625 283.132812 C 694.65625 279.144531 691.414062 275.902344 687.425781 275.902344 Z M 614.523438 258.003906 C 610.734375 256.816406 606.660156 258.929688 605.476562 262.746094 C 603.011719 270.625 595.886719 275.902344 587.730469 275.902344 C 577.421875 275.902344 569.023438 267.515625 569.023438 257.207031 L 569.023438 235.46875 C 569.023438 225.160156 577.421875 216.761719 587.730469 216.761719 C 595.875 216.761719 603.011719 222.054688 605.476562 229.933594 C 606.660156 233.734375 610.695312 235.847656 614.523438 234.679688 C 618.339844 233.476562 620.464844 229.425781 619.269531 225.609375 C 614.902344 211.671875 602.234375 202.300781 587.730469 202.300781 C 569.441406 202.300781 554.566406 217.179688 554.566406 235.46875 L 554.566406 257.207031 C 554.566406 275.484375 569.441406 290.363281 587.730469 290.363281 C 602.25 290.363281 614.914062 281.007812 619.269531 267.050781 C 620.464844 263.25 618.339844 259.1875 614.523438 258.003906 Z M 535.289062 258.003906 C 531.460938 256.816406 527.425781 258.929688 526.242188 262.746094 C 523.785156 270.609375 516.640625 275.902344 508.484375 275.902344 C 498.175781 275.902344 489.789062 267.515625 489.789062 257.207031 L 489.789062 235.46875 C 489.789062 225.160156 498.175781 216.761719 508.484375 216.761719 C 516.640625 216.761719 523.785156 222.054688 526.242188 229.933594 C 527.425781 233.734375 531.460938 235.847656 535.289062 234.679688 C 539.105469 233.476562 541.238281 229.425781 540.035156 225.609375 C 535.667969 211.671875 523 202.300781 508.484375 202.300781 C 490.207031 202.300781 475.332031 217.179688 475.332031 235.46875 L 475.332031 257.207031 C 475.332031 275.484375 490.207031 290.363281 508.484375 290.363281 C 523 290.363281 535.667969 281.007812 540.035156 267.066406 C 541.238281 263.25 539.105469 259.1875 535.289062 258.003906 Z M 454.550781 202.300781 C 450.546875 202.300781 447.324219 205.539062 447.324219 209.53125 L 447.324219 257.207031 C 447.324219 267.515625 438.925781 275.902344 428.617188 275.902344 C 418.292969 275.902344 409.90625 267.515625 409.90625 257.207031 L 409.90625 209.53125 C 409.90625 205.539062 406.667969 202.300781 402.675781 202.300781 C 398.671875 202.300781 395.445312 205.539062 395.445312 209.53125 L 395.445312 257.207031 C 395.445312 275.484375 410.324219 290.363281 428.617188 290.363281 C 446.894531 290.363281 461.78125 275.484375 461.78125 257.207031 L 461.78125 209.53125 C 461.78125 205.539062 458.546875 202.300781 454.550781 202.300781 Z M 351.96875 239.59375 C 342.199219 235.820312 337.179688 230.667969 338.222656 225.449219 C 339.144531 220.851562 344.222656 216.773438 348.949219 216.773438 L 349.167969 216.773438 C 358.679688 217.035156 360.691406 221.898438 360.921875 222.601562 C 361.960938 226.363281 365.824219 228.617188 369.625 227.691406 C 373.511719 226.726562 375.871094 222.804688 374.917969 218.929688 C 373.441406 212.972656 366.445312 202.777344 349.570312 202.3125 L 348.964844 202.3125 C 337.410156 202.3125 326.304688 211.3125 324.035156 222.621094 C 323.097656 227.347656 321.941406 243.515625 346.761719 253.082031 C 356.554688 256.859375 361.554688 262.007812 360.515625 267.226562 C 359.605469 271.824219 354.527344 275.917969 349.789062 275.917969 C 349.714844 275.917969 349.644531 275.902344 349.570312 275.902344 C 339.894531 275.644531 337.992188 270.625 337.859375 270.277344 C 336.90625 266.390625 332.96875 264.027344 329.113281 265 C 325.238281 265.957031 322.867188 269.875 323.832031 273.75 C 325.3125 279.703125 332.292969 289.917969 349.167969 290.363281 C 349.382812 290.363281 349.570312 290.378906 349.773438 290.378906 C 361.324219 290.363281 372.425781 281.382812 374.695312 270.0625 C 375.652344 265.335938 376.796875 249.167969 351.96875 239.59375 Z M 348.949219 216.773438 L 349.167969 216.773438 C 358.679688 217.035156 360.691406 221.898438 360.921875 222.601562 C 361.960938 226.363281 365.824219 228.617188 369.625 227.691406 C 373.511719 226.726562 375.871094 222.804688 374.917969 218.929688 C 373.441406 212.972656 366.445312 202.777344 349.570312 202.3125 L 348.964844 202.3125 C 337.410156 202.3125 326.304688 211.3125 324.035156 222.621094 C 323.097656 227.347656 321.941406 243.515625 346.761719 253.082031 C 356.554688 256.859375 361.554688 262.007812 360.515625 267.226562 C 359.605469 271.824219 354.527344 275.917969 349.789062 275.917969 C 349.714844 275.917969 349.644531 275.902344 349.570312 275.902344 C 339.894531 275.644531 337.992188 270.625 337.859375 270.277344 C 336.90625 266.390625 332.96875 264.027344 329.113281 265 C 325.238281 265.957031 322.867188 269.875 323.832031 273.75 C 325.3125 279.703125 332.292969 289.917969 349.167969 290.363281 C 349.382812 290.363281 349.570312 290.378906 349.773438 290.378906 C 361.324219 290.363281 372.425781 281.382812 374.695312 270.0625 C 375.652344 265.335938 376.796875 249.167969 351.96875 239.59375 C 342.199219 235.820312 337.179688 230.667969 338.222656 225.449219 C 339.144531 220.851562 344.222656 216.773438 348.949219 216.773438 Z M 454.550781 202.300781 C 450.546875 202.300781 447.324219 205.539062 447.324219 209.53125 L 447.324219 257.207031 C 447.324219 267.515625 438.925781 275.902344 428.617188 275.902344 C 418.292969 275.902344 409.90625 267.515625 409.90625 257.207031 L 409.90625 209.53125 C 409.90625 205.539062 406.667969 202.300781 402.675781 202.300781 C 398.671875 202.300781 395.445312 205.539062 395.445312 209.53125 L 395.445312 257.207031 C 395.445312 275.484375 410.324219 290.363281 428.617188 290.363281 C 446.894531 290.363281 461.78125 275.484375 461.78125 257.207031 L 461.78125 209.53125 C 461.78125 205.539062 458.546875 202.300781 454.550781 202.300781 Z M 508.484375 216.761719 C 516.640625 216.761719 523.785156 222.054688 526.242188 229.933594 C 527.425781 233.734375 531.460938 235.847656 535.289062 234.679688 C 539.105469 233.476562 541.238281 229.425781 540.035156 225.609375 C 535.667969 211.671875 523 202.300781 508.484375 202.300781 C 490.207031 202.300781 475.332031 217.179688 475.332031 235.46875 L 475.332031 257.207031 C 475.332031 275.484375 490.207031 290.363281 508.484375 290.363281 C 523 290.363281 535.667969 281.007812 540.035156 267.066406 C 541.238281 263.25 539.105469 259.1875 535.289062 258.003906 C 531.460938 256.816406 527.425781 258.929688 526.242188 262.746094 C 523.785156 270.609375 516.640625 275.902344 508.484375 275.902344 C 498.175781 275.902344 489.789062 267.515625 489.789062 257.207031 L 489.789062 235.46875 C 489.789062 225.160156 498.175781 216.761719 508.484375 216.761719 Z M 587.730469 216.761719 C 595.875 216.761719 603.011719 222.054688 605.476562 229.933594 C 606.660156 233.734375 610.695312 235.847656 614.523438 234.679688 C 618.339844 233.476562 620.464844 229.425781 619.269531 225.609375 C 614.902344 211.671875 602.234375 202.300781 587.730469 202.300781 C 569.441406 202.300781 554.566406 217.179688 554.566406 235.46875 L 554.566406 257.207031 C 554.566406 275.484375 569.441406 290.363281 587.730469 290.363281 C 602.25 290.363281 614.914062 281.007812 619.269531 267.050781 C 620.464844 263.25 618.339844 259.1875 614.523438 258.003906 C 610.734375 256.816406 606.660156 258.929688 605.476562 262.746094 C 603.011719 270.625 595.886719 275.902344 587.730469 275.902344 C 577.421875 275.902344 569.023438 267.515625 569.023438 257.207031 L 569.023438 235.46875 C 569.023438 225.160156 577.421875 216.761719 587.730469 216.761719 Z M 687.425781 216.761719 C 691.414062 216.761719 694.65625 213.519531 694.65625 209.53125 C 694.65625 205.539062 691.414062 202.300781 687.425781 202.300781 L 645.21875 202.300781 C 641.226562 202.300781 637.992188 205.539062 637.992188 209.53125 L 637.992188 283.132812 C 637.992188 287.136719 641.226562 290.363281 645.21875 290.363281 L 687.425781 290.363281 C 691.414062 290.363281 694.65625 287.136719 694.65625 283.132812 C 694.65625 279.144531 691.414062 275.902344 687.425781 275.902344 L 652.449219 275.902344 L 652.449219 253.578125 L 668.019531 253.578125 C 672.011719 253.578125 675.25 250.335938 675.25 246.347656 C 675.25 242.339844 672.011719 239.117188 668.019531 239.117188 L 652.449219 239.117188 L 652.449219 216.761719 Z M 737.96875 290.378906 C 749.523438 290.363281 760.628906 281.382812 762.898438 270.0625 C 763.835938 265.335938 764.996094 249.167969 740.15625 239.59375 C 730.378906 235.820312 725.363281 230.667969 726.417969 225.449219 C 727.328125 220.851562 732.40625 216.773438 737.152344 216.773438 L 737.367188 216.773438 C 746.875 217.035156 748.875 221.898438 749.117188 222.601562 C 750.164062 226.363281 753.992188 228.617188 757.820312 227.691406 C 761.695312 226.726562 764.070312 222.804688 763.101562 218.929688 C 761.628906 212.972656 754.632812 202.777344 737.753906 202.3125 C 725.695312 201.894531 714.535156 211.109375 712.238281 222.621094 C 711.285156 227.347656 710.136719 243.515625 734.964844 253.082031 C 744.753906 256.859375 749.757812 262.007812 748.71875 267.226562 C 747.804688 271.824219 742.730469 275.917969 737.988281 275.917969 C 737.914062 275.917969 737.839844 275.902344 737.773438 275.902344 C 728.097656 275.644531 726.1875 270.625 726.058594 270.277344 C 725.105469 266.402344 721.183594 264.019531 717.308594 265 C 713.433594 265.957031 711.0625 269.875 712.035156 273.75 C 713.492188 279.703125 720.488281 289.917969 737.375 290.363281 C 737.578125 290.363281 737.773438 290.378906 737.96875 290.378906 Z M 801.984375 275.917969 C 801.910156 275.917969 801.835938 275.902344 801.761719 275.902344 C 792.105469 275.644531 790.183594 270.625 790.066406 270.277344 C 789.101562 266.390625 785.164062 264.027344 781.304688 265 C 777.433594 265.957031 775.058594 269.875 776.023438 273.75 C 777.5 279.703125 784.503906 289.917969 801.375 290.363281 C 801.578125 290.363281 801.78125 290.378906 801.964844 290.378906 C 813.53125 290.363281 824.636719 281.382812 826.890625 270.0625 C 827.832031 265.335938 828.992188 249.167969 804.164062 239.59375 C 794.375 235.820312 789.371094 230.667969 790.417969 225.449219 C 791.335938 220.851562 796.414062 216.773438 801.140625 216.773438 L 801.355469 216.773438 C 810.890625 217.035156 812.882812 221.898438 813.113281 222.601562 C 814.171875 226.363281 818.015625 228.636719 821.820312 227.691406 C 825.691406 226.738281 828.066406 222.816406 827.109375 218.941406 C 825.636719 212.972656 818.640625 202.777344 801.761719 202.3125 L 801.160156 202.3125 C 789.601562 202.3125 778.5 211.3125 776.246094 222.621094 C 775.292969 227.347656 774.132812 243.515625 798.960938 253.082031 C 808.75 256.859375 813.765625 262.007812 812.707031 267.226562 C 811.800781 271.824219 806.722656 275.917969 801.984375 275.917969 Z M 713.175781 354.175781 L 288.898438 354.175781 L 288.898438 132.125 L 713.175781 132.125 C 717.167969 132.125 720.40625 128.886719 720.40625 124.894531 L 720.40625 55.613281 L 907.921875 243.152344 L 720.507812 430.582031 L 720.507812 423.195312 C 720.507812 422.832031 720.449219 422.488281 720.40625 422.15625 L 720.40625 361.40625 C 720.40625 357.417969 717.167969 354.175781 713.175781 354.175781 Z M 706.046875 704.925781 L 655.210938 704.925781 L 655.210938 368.632812 L 705.945312 368.632812 L 705.945312 448.136719 C 705.945312 448.542969 705.992188 448.933594 706.046875 449.324219 Z M 640.753906 704.925781 L 476.71875 704.925781 L 476.71875 368.632812 L 640.753906 368.632812 Z M 462.261719 704.925781 L 411.425781 704.925781 L 411.425781 368.632812 L 462.261719 368.632812 Z M 921.203125 704.925781 L 720.507812 704.925781 L 720.507812 451.03125 L 923.261719 248.253906 C 924.617188 246.910156 925.371094 245.0625 925.371094 243.152344 C 925.371094 241.226562 924.617188 239.390625 923.261719 238.035156 L 718.28125 33.042969 C 716.214844 30.976562 713.117188 30.367188 710.402344 31.476562 C 707.695312 32.597656 705.945312 35.230469 705.945312 38.160156 L 705.945312 117.664062 L 281.671875 117.664062 C 277.683594 117.664062 274.441406 120.890625 274.441406 124.894531 L 274.441406 361.40625 C 274.441406 365.398438 277.683594 368.632812 281.671875 368.632812 L 396.964844 368.632812 L 396.964844 704.925781 L 278.609375 704.925781 C 274.605469 704.925781 271.378906 708.164062 271.378906 712.15625 C 271.378906 716.144531 274.605469 719.386719 278.609375 719.386719 L 921.203125 719.386719 C 925.210938 719.386719 928.433594 716.144531 928.433594 712.15625 C 928.433594 708.164062 925.210938 704.925781 921.203125 704.925781 Z M 348.949219 216.773438 L 349.167969 216.773438 C 358.679688 217.035156 360.691406 221.898438 360.921875 222.601562 C 361.960938 226.363281 365.824219 228.617188 369.625 227.691406 C 373.511719 226.726562 375.871094 222.804688 374.917969 218.929688 C 373.441406 212.972656 366.445312 202.777344 349.570312 202.3125 L 348.964844 202.3125 C 337.410156 202.3125 326.304688 211.3125 324.035156 222.621094 C 323.097656 227.347656 321.941406 243.515625 346.761719 253.082031 C 356.554688 256.859375 361.554688 262.007812 360.515625 267.226562 C 359.605469 271.824219 354.527344 275.917969 349.789062 275.917969 C 349.714844 275.917969 349.644531 275.902344 349.570312 275.902344 C 339.894531 275.644531 337.992188 270.625 337.859375 270.277344 C 336.90625 266.390625 332.96875 264.027344 329.113281 265 C 325.238281 265.957031 322.867188 269.875 323.832031 273.75 C 325.3125 279.703125 332.292969 289.917969 349.167969 290.363281 C 349.382812 290.363281 349.570312 290.378906 349.773438 290.378906 C 361.324219 290.363281 372.425781 281.382812 374.695312 270.0625 C 375.652344 265.335938 376.796875 249.167969 351.96875 239.59375 C 342.199219 235.820312 337.179688 230.667969 338.222656 225.449219 C 339.144531 220.851562 344.222656 216.773438 348.949219 216.773438 Z M 454.550781 202.300781 C 450.546875 202.300781 447.324219 205.539062 447.324219 209.53125 L 447.324219 257.207031 C 447.324219 267.515625 438.925781 275.902344 428.617188 275.902344 C 418.292969 275.902344 409.90625 267.515625 409.90625 257.207031 L 409.90625 209.53125 C 409.90625 205.539062 406.667969 202.300781 402.675781 202.300781 C 398.671875 202.300781 395.445312 205.539062 395.445312 209.53125 L 395.445312 257.207031 C 395.445312 275.484375 410.324219 290.363281 428.617188 290.363281 C 446.894531 290.363281 461.78125 275.484375 461.78125 257.207031 L 461.78125 209.53125 C 461.78125 205.539062 458.546875 202.300781 454.550781 202.300781 Z M 508.484375 216.761719 C 516.640625 216.761719 523.785156 222.054688 526.242188 229.933594 C 527.425781 233.734375 531.460938 235.847656 535.289062 234.679688 C 539.105469 233.476562 541.238281 229.425781 540.035156 225.609375 C 535.667969 211.671875 523 202.300781 508.484375 202.300781 C 490.207031 202.300781 475.332031 217.179688 475.332031 235.46875 L 475.332031 257.207031 C 475.332031 275.484375 490.207031 290.363281 508.484375 290.363281 C 523 290.363281 535.667969 281.007812 540.035156 267.066406 C 541.238281 263.25 539.105469 259.1875 535.289062 258.003906 C 531.460938 256.816406 527.425781 258.929688 526.242188 262.746094 C 523.785156 270.609375 516.640625 275.902344 508.484375 275.902344 C 498.175781 275.902344 489.789062 267.515625 489.789062 257.207031 L 489.789062 235.46875 C 489.789062 225.160156 498.175781 216.761719 508.484375 216.761719 Z M 587.730469 216.761719 C 595.875 216.761719 603.011719 222.054688 605.476562 229.933594 C 606.660156 233.734375 610.695312 235.847656 614.523438 234.679688 C 618.339844 233.476562 620.464844 229.425781 619.269531 225.609375 C 614.902344 211.671875 602.234375 202.300781 587.730469 202.300781 C 569.441406 202.300781 554.566406 217.179688 554.566406 235.46875 L 554.566406 257.207031 C 554.566406 275.484375 569.441406 290.363281 587.730469 290.363281 C 602.25 290.363281 614.914062 281.007812 619.269531 267.050781 C 620.464844 263.25 618.339844 259.1875 614.523438 258.003906 C 610.734375 256.816406 606.660156 258.929688 605.476562 262.746094 C 603.011719 270.625 595.886719 275.902344 587.730469 275.902344 C 577.421875 275.902344 569.023438 267.515625 569.023438 257.207031 L 569.023438 235.46875 C 569.023438 225.160156 577.421875 216.761719 587.730469 216.761719 Z M 687.425781 216.761719 C 691.414062 216.761719 694.65625 213.519531 694.65625 209.53125 C 694.65625 205.539062 691.414062 202.300781 687.425781 202.300781 L 645.21875 202.300781 C 641.226562 202.300781 637.992188 205.539062 637.992188 209.53125 L 637.992188 283.132812 C 637.992188 287.136719 641.226562 290.363281 645.21875 290.363281 L 687.425781 290.363281 C 691.414062 290.363281 694.65625 287.136719 694.65625 283.132812 C 694.65625 279.144531 691.414062 275.902344 687.425781 275.902344 L 652.449219 275.902344 L 652.449219 253.578125 L 668.019531 253.578125 C 672.011719 253.578125 675.25 250.335938 675.25 246.347656 C 675.25 242.339844 672.011719 239.117188 668.019531 239.117188 L 652.449219 239.117188 L 652.449219 216.761719 Z M 737.152344 216.773438 L 737.367188 216.773438 C 746.875 217.035156 748.875 221.898438 749.117188 222.601562 C 750.164062 226.363281 753.992188 228.617188 757.820312 227.691406 C 761.695312 226.726562 764.070312 222.804688 763.101562 218.929688 C 761.628906 212.972656 754.632812 202.777344 737.753906 202.3125 C 725.695312 201.894531 714.535156 211.109375 712.238281 222.621094 C 711.285156 227.347656 710.136719 243.515625 734.964844 253.082031 C 744.753906 256.859375 749.757812 262.007812 748.71875 267.226562 C 747.804688 271.824219 742.730469 275.917969 737.988281 275.917969 C 737.914062 275.917969 737.839844 275.902344 737.773438 275.902344 C 728.097656 275.644531 726.1875 270.625 726.058594 270.277344 C 725.105469 266.402344 721.183594 264.019531 717.308594 265 C 713.433594 265.957031 711.0625 269.875 712.035156 273.75 C 713.492188 279.703125 720.488281 289.917969 737.375 290.363281 C 737.578125 290.363281 737.773438 290.378906 737.96875 290.378906 C 749.523438 290.363281 760.628906 281.382812 762.898438 270.0625 C 763.835938 265.335938 764.996094 249.167969 740.15625 239.59375 C 730.378906 235.820312 725.363281 230.667969 726.417969 225.449219 C 727.328125 220.851562 732.40625 216.773438 737.152344 216.773438 Z M 804.164062 239.59375 C 794.375 235.820312 789.371094 230.667969 790.417969 225.449219 C 791.335938 220.851562 796.414062 216.773438 801.140625 216.773438 L 801.355469 216.773438 C 810.890625 217.035156 812.882812 221.898438 813.113281 222.601562 C 814.171875 226.363281 818.015625 228.636719 821.820312 227.691406 C 825.691406 226.738281 828.066406 222.816406 827.109375 218.941406 C 825.636719 212.972656 818.640625 202.777344 801.761719 202.3125 L 801.160156 202.3125 C 789.601562 202.3125 778.5 211.3125 776.246094 222.621094 C 775.292969 227.347656 774.132812 243.515625 798.960938 253.082031 C 808.75 256.859375 813.765625 262.007812 812.707031 267.226562 C 811.800781 271.824219 806.722656 275.917969 801.984375 275.917969 C 801.910156 275.917969 801.835938 275.902344 801.761719 275.902344 C 792.105469 275.644531 790.183594 270.625 790.066406 270.277344 C 789.101562 266.390625 785.164062 264.027344 781.304688 265 C 777.433594 265.957031 775.058594 269.875 776.023438 273.75 C 777.5 279.703125 784.503906 289.917969 801.375 290.363281 C 801.578125 290.363281 801.78125 290.378906 801.964844 290.378906 C 813.53125 290.363281 824.636719 281.382812 826.890625 270.0625 C 827.832031 265.335938 828.992188 249.167969 804.164062 239.59375 Z M 804.164062 239.59375 C 794.375 235.820312 789.371094 230.667969 790.417969 225.449219 C 791.335938 220.851562 796.414062 216.773438 801.140625 216.773438 L 801.355469 216.773438 C 810.890625 217.035156 812.882812 221.898438 813.113281 222.601562 C 814.171875 226.363281 818.015625 228.636719 821.820312 227.691406 C 825.691406 226.738281 828.066406 222.816406 827.109375 218.941406 C 825.636719 212.972656 818.640625 202.777344 801.761719 202.3125 L 801.160156 202.3125 C 789.601562 202.3125 778.5 211.3125 776.246094 222.621094 C 775.292969 227.347656 774.132812 243.515625 798.960938 253.082031 C 808.75 256.859375 813.765625 262.007812 812.707031 267.226562 C 811.800781 271.824219 806.722656 275.917969 801.984375 275.917969 C 801.910156 275.917969 801.835938 275.902344 801.761719 275.902344 C 792.105469 275.644531 790.183594 270.625 790.066406 270.277344 C 789.101562 266.390625 785.164062 264.027344 781.304688 265 C 777.433594 265.957031 775.058594 269.875 776.023438 273.75 C 777.5 279.703125 784.503906 289.917969 801.375 290.363281 C 801.578125 290.363281 801.78125 290.378906 801.964844 290.378906 C 813.53125 290.363281 824.636719 281.382812 826.890625 270.0625 C 827.832031 265.335938 828.992188 249.167969 804.164062 239.59375 Z M 740.15625 239.59375 C 730.378906 235.820312 725.363281 230.667969 726.417969 225.449219 C 727.328125 220.851562 732.40625 216.773438 737.152344 216.773438 L 737.367188 216.773438 C 746.875 217.035156 748.875 221.898438 749.117188 222.601562 C 750.164062 226.363281 753.992188 228.617188 757.820312 227.691406 C 761.695312 226.726562 764.070312 222.804688 763.101562 218.929688 C 761.628906 212.972656 754.632812 202.777344 737.753906 202.3125 C 725.695312 201.894531 714.535156 211.109375 712.238281 222.621094 C 711.285156 227.347656 710.136719 243.515625 734.964844 253.082031 C 744.753906 256.859375 749.757812 262.007812 748.71875 267.226562 C 747.804688 271.824219 742.730469 275.917969 737.988281 275.917969 C 737.914062 275.917969 737.839844 275.902344 737.773438 275.902344 C 728.097656 275.644531 726.1875 270.625 726.058594 270.277344 C 725.105469 266.402344 721.183594 264.019531 717.308594 265 C 713.433594 265.957031 711.0625 269.875 712.035156 273.75 C 713.492188 279.703125 720.488281 289.917969 737.375 290.363281 C 737.578125 290.363281 737.773438 290.378906 737.96875 290.378906 C 749.523438 290.363281 760.628906 281.382812 762.898438 270.0625 C 763.835938 265.335938 764.996094 249.167969 740.15625 239.59375 Z M 687.425781 275.902344 L 652.449219 275.902344 L 652.449219 253.578125 L 668.019531 253.578125 C 672.011719 253.578125 675.25 250.335938 675.25 246.347656 C 675.25 242.339844 672.011719 239.117188 668.019531 239.117188 L 652.449219 239.117188 L 652.449219 216.761719 L 687.425781 216.761719 C 691.414062 216.761719 694.65625 213.519531 694.65625 209.53125 C 694.65625 205.539062 691.414062 202.300781 687.425781 202.300781 L 645.21875 202.300781 C 641.226562 202.300781 637.992188 205.539062 637.992188 209.53125 L 637.992188 283.132812 C 637.992188 287.136719 641.226562 290.363281 645.21875 290.363281 L 687.425781 290.363281 C 691.414062 290.363281 694.65625 287.136719 694.65625 283.132812 C 694.65625 279.144531 691.414062 275.902344 687.425781 275.902344 Z M 614.523438 258.003906 C 610.734375 256.816406 606.660156 258.929688 605.476562 262.746094 C 603.011719 270.625 595.886719 275.902344 587.730469 275.902344 C 577.421875 275.902344 569.023438 267.515625 569.023438 257.207031 L 569.023438 235.46875 C 569.023438 225.160156 577.421875 216.761719 587.730469 216.761719 C 595.875 216.761719 603.011719 222.054688 605.476562 229.933594 C 606.660156 233.734375 610.695312 235.847656 614.523438 234.679688 C 618.339844 233.476562 620.464844 229.425781 619.269531 225.609375 C 614.902344 211.671875 602.234375 202.300781 587.730469 202.300781 C 569.441406 202.300781 554.566406 217.179688 554.566406 235.46875 L 554.566406 257.207031 C 554.566406 275.484375 569.441406 290.363281 587.730469 290.363281 C 602.25 290.363281 614.914062 281.007812 619.269531 267.050781 C 620.464844 263.25 618.339844 259.1875 614.523438 258.003906 Z M 535.289062 258.003906 C 531.460938 256.816406 527.425781 258.929688 526.242188 262.746094 C 523.785156 270.609375 516.640625 275.902344 508.484375 275.902344 C 498.175781 275.902344 489.789062 267.515625 489.789062 257.207031 L 489.789062 235.46875 C 489.789062 225.160156 498.175781 216.761719 508.484375 216.761719 C 516.640625 216.761719 523.785156 222.054688 526.242188 229.933594 C 527.425781 233.734375 531.460938 235.847656 535.289062 234.679688 C 539.105469 233.476562 541.238281 229.425781 540.035156 225.609375 C 535.667969 211.671875 523 202.300781 508.484375 202.300781 C 490.207031 202.300781 475.332031 217.179688 475.332031 235.46875 L 475.332031 257.207031 C 475.332031 275.484375 490.207031 290.363281 508.484375 290.363281 C 523 290.363281 535.667969 281.007812 540.035156 267.066406 C 541.238281 263.25 539.105469 259.1875 535.289062 258.003906 Z M 454.550781 202.300781 C 450.546875 202.300781 447.324219 205.539062 447.324219 209.53125 L 447.324219 257.207031 C 447.324219 267.515625 438.925781 275.902344 428.617188 275.902344 C 418.292969 275.902344 409.90625 267.515625 409.90625 257.207031 L 409.90625 209.53125 C 409.90625 205.539062 406.667969 202.300781 402.675781 202.300781 C 398.671875 202.300781 395.445312 205.539062 395.445312 209.53125 L 395.445312 257.207031 C 395.445312 275.484375 410.324219 290.363281 428.617188 290.363281 C 446.894531 290.363281 461.78125 275.484375 461.78125 257.207031 L 461.78125 209.53125 C 461.78125 205.539062 458.546875 202.300781 454.550781 202.300781 Z M 351.96875 239.59375 C 342.199219 235.820312 337.179688 230.667969 338.222656 225.449219 C 339.144531 220.851562 344.222656 216.773438 348.949219 216.773438 L 349.167969 216.773438 C 358.679688 217.035156 360.691406 221.898438 360.921875 222.601562 C 361.960938 226.363281 365.824219 228.617188 369.625 227.691406 C 373.511719 226.726562 375.871094 222.804688 374.917969 218.929688 C 373.441406 212.972656 366.445312 202.777344 349.570312 202.3125 L 348.964844 202.3125 C 337.410156 202.3125 326.304688 211.3125 324.035156 222.621094 C 323.097656 227.347656 321.941406 243.515625 346.761719 253.082031 C 356.554688 256.859375 361.554688 262.007812 360.515625 267.226562 C 359.605469 271.824219 354.527344 275.917969 349.789062 275.917969 C 349.714844 275.917969 349.644531 275.902344 349.570312 275.902344 C 339.894531 275.644531 337.992188 270.625 337.859375 270.277344 C 336.90625 266.390625 332.96875 264.027344 329.113281 265 C 325.238281 265.957031 322.867188 269.875 323.832031 273.75 C 325.3125 279.703125 332.292969 289.917969 349.167969 290.363281 C 349.382812 290.363281 349.570312 290.378906 349.773438 290.378906 C 361.324219 290.363281 372.425781 281.382812 374.695312 270.0625 C 375.652344 265.335938 376.796875 249.167969 351.96875 239.59375 Z M 351.96875 239.59375 C 342.199219 235.820312 337.179688 230.667969 338.222656 225.449219 C 339.144531 220.851562 344.222656 216.773438 348.949219 216.773438 L 349.167969 216.773438 C 358.679688 217.035156 360.691406 221.898438 360.921875 222.601562 C 361.960938 226.363281 365.824219 228.617188 369.625 227.691406 C 373.511719 226.726562 375.871094 222.804688 374.917969 218.929688 C 373.441406 212.972656 366.445312 202.777344 349.570312 202.3125 L 348.964844 202.3125 C 337.410156 202.3125 326.304688 211.3125 324.035156 222.621094 C 323.097656 227.347656 321.941406 243.515625 346.761719 253.082031 C 356.554688 256.859375 361.554688 262.007812 360.515625 267.226562 C 359.605469 271.824219 354.527344 275.917969 349.789062 275.917969 C 349.714844 275.917969 349.644531 275.902344 349.570312 275.902344 C 339.894531 275.644531 337.992188 270.625 337.859375 270.277344 C 336.90625 266.390625 332.96875 264.027344 329.113281 265 C 325.238281 265.957031 322.867188 269.875 323.832031 273.75 C 325.3125 279.703125 332.292969 289.917969 349.167969 290.363281 C 349.382812 290.363281 349.570312 290.378906 349.773438 290.378906 C 361.324219 290.363281 372.425781 281.382812 374.695312 270.0625 C 375.652344 265.335938 376.796875 249.167969 351.96875 239.59375 Z M 454.550781 202.300781 C 450.546875 202.300781 447.324219 205.539062 447.324219 209.53125 L 447.324219 257.207031 C 447.324219 267.515625 438.925781 275.902344 428.617188 275.902344 C 418.292969 275.902344 409.90625 267.515625 409.90625 257.207031 L 409.90625 209.53125 C 409.90625 205.539062 406.667969 202.300781 402.675781 202.300781 C 398.671875 202.300781 395.445312 205.539062 395.445312 209.53125 L 395.445312 257.207031 C 395.445312 275.484375 410.324219 290.363281 428.617188 290.363281 C 446.894531 290.363281 461.78125 275.484375 461.78125 257.207031 L 461.78125 209.53125 C 461.78125 205.539062 458.546875 202.300781 454.550781 202.300781 Z M 535.289062 258.003906 C 531.460938 256.816406 527.425781 258.929688 526.242188 262.746094 C 523.785156 270.609375 516.640625 275.902344 508.484375 275.902344 C 498.175781 275.902344 489.789062 267.515625 489.789062 257.207031 L 489.789062 235.46875 C 489.789062 225.160156 498.175781 216.761719 508.484375 216.761719 C 516.640625 216.761719 523.785156 222.054688 526.242188 229.933594 C 527.425781 233.734375 531.460938 235.847656 535.289062 234.679688 C 539.105469 233.476562 541.238281 229.425781 540.035156 225.609375 C 535.667969 211.671875 523 202.300781 508.484375 202.300781 C 490.207031 202.300781 475.332031 217.179688 475.332031 235.46875 L 475.332031 257.207031 C 475.332031 275.484375 490.207031 290.363281 508.484375 290.363281 C 523 290.363281 535.667969 281.007812 540.035156 267.066406 C 541.238281 263.25 539.105469 259.1875 535.289062 258.003906 Z M 614.523438 258.003906 C 610.734375 256.816406 606.660156 258.929688 605.476562 262.746094 C 603.011719 270.625 595.886719 275.902344 587.730469 275.902344 C 577.421875 275.902344 569.023438 267.515625 569.023438 257.207031 L 569.023438 235.46875 C 569.023438 225.160156 577.421875 216.761719 587.730469 216.761719 C 595.875 216.761719 603.011719 222.054688 605.476562 229.933594 C 606.660156 233.734375 610.695312 235.847656 614.523438 234.679688 C 618.339844 233.476562 620.464844 229.425781 619.269531 225.609375 C 614.902344 211.671875 602.234375 202.300781 587.730469 202.300781 C 569.441406 202.300781 554.566406 217.179688 554.566406 235.46875 L 554.566406 257.207031 C 554.566406 275.484375 569.441406 290.363281 587.730469 290.363281 C 602.25 290.363281 614.914062 281.007812 619.269531 267.050781 C 620.464844 263.25 618.339844 259.1875 614.523438 258.003906 Z M 687.425781 275.902344 L 652.449219 275.902344 L 652.449219 253.578125 L 668.019531 253.578125 C 672.011719 253.578125 675.25 250.335938 675.25 246.347656 C 675.25 242.339844 672.011719 239.117188 668.019531 239.117188 L 652.449219 239.117188 L 652.449219 216.761719 L 687.425781 216.761719 C 691.414062 216.761719 694.65625 213.519531 694.65625 209.53125 C 694.65625 205.539062 691.414062 202.300781 687.425781 202.300781 L 645.21875 202.300781 C 641.226562 202.300781 637.992188 205.539062 637.992188 209.53125 L 637.992188 283.132812 C 637.992188 287.136719 641.226562 290.363281 645.21875 290.363281 L 687.425781 290.363281 C 691.414062 290.363281 694.65625 287.136719 694.65625 283.132812 C 694.65625 279.144531 691.414062 275.902344 687.425781 275.902344 Z M 740.15625 239.59375 C 730.378906 235.820312 725.363281 230.667969 726.417969 225.449219 C 727.328125 220.851562 732.40625 216.773438 737.152344 216.773438 L 737.367188 216.773438 C 746.875 217.035156 748.875 221.898438 749.117188 222.601562 C 750.164062 226.363281 753.992188 228.617188 757.820312 227.691406 C 761.695312 226.726562 764.070312 222.804688 763.101562 218.929688 C 761.628906 212.972656 754.632812 202.777344 737.753906 202.3125 C 725.695312 201.894531 714.535156 211.109375 712.238281 222.621094 C 711.285156 227.347656 710.136719 243.515625 734.964844 253.082031 C 744.753906 256.859375 749.757812 262.007812 748.71875 267.226562 C 747.804688 271.824219 742.730469 275.917969 737.988281 275.917969 C 737.914062 275.917969 737.839844 275.902344 737.773438 275.902344 C 728.097656 275.644531 726.1875 270.625 726.058594 270.277344 C 725.105469 266.402344 721.183594 264.019531 717.308594 265 C 713.433594 265.957031 711.0625 269.875 712.035156 273.75 C 713.492188 279.703125 720.488281 289.917969 737.375 290.363281 C 737.578125 290.363281 737.773438 290.378906 737.96875 290.378906 C 749.523438 290.363281 760.628906 281.382812 762.898438 270.0625 C 763.835938 265.335938 764.996094 249.167969 740.15625 239.59375 Z M 804.164062 239.59375 C 794.375 235.820312 789.371094 230.667969 790.417969 225.449219 C 791.335938 220.851562 796.414062 216.773438 801.140625 216.773438 L 801.355469 216.773438 C 810.890625 217.035156 812.882812 221.898438 813.113281 222.601562 C 814.171875 226.363281 818.015625 228.636719 821.820312 227.691406 C 825.691406 226.738281 828.066406 222.816406 827.109375 218.941406 C 825.636719 212.972656 818.640625 202.777344 801.761719 202.3125 L 801.160156 202.3125 C 789.601562 202.3125 778.5 211.3125 776.246094 222.621094 C 775.292969 227.347656 774.132812 243.515625 798.960938 253.082031 C 808.75 256.859375 813.765625 262.007812 812.707031 267.226562 C 811.800781 271.824219 806.722656 275.917969 801.984375 275.917969 C 801.910156 275.917969 801.835938 275.902344 801.761719 275.902344 C 792.105469 275.644531 790.183594 270.625 790.066406 270.277344 C 789.101562 266.390625 785.164062 264.027344 781.304688 265 C 777.433594 265.957031 775.058594 269.875 776.023438 273.75 C 777.5 279.703125 784.503906 289.917969 801.375 290.363281 C 801.578125 290.363281 801.78125 290.378906 801.964844 290.378906 C 813.53125 290.363281 824.636719 281.382812 826.890625 270.0625 C 827.832031 265.335938 828.992188 249.167969 804.164062 239.59375 Z M 687.425781 275.902344 L 652.449219 275.902344 L 652.449219 253.578125 L 668.019531 253.578125 C 672.011719 253.578125 675.25 250.335938 675.25 246.347656 C 675.25 242.339844 672.011719 239.117188 668.019531 239.117188 L 652.449219 239.117188 L 652.449219 216.761719 L 687.425781 216.761719 C 691.414062 216.761719 694.65625 213.519531 694.65625 209.53125 C 694.65625 205.539062 691.414062 202.300781 687.425781 202.300781 L 645.21875 202.300781 C 641.226562 202.300781 637.992188 205.539062 637.992188 209.53125 L 637.992188 283.132812 C 637.992188 287.136719 641.226562 290.363281 645.21875 290.363281 L 687.425781 290.363281 C 691.414062 290.363281 694.65625 287.136719 694.65625 283.132812 C 694.65625 279.144531 691.414062 275.902344 687.425781 275.902344 Z M 454.550781 202.300781 C 450.546875 202.300781 447.324219 205.539062 447.324219 209.53125 L 447.324219 257.207031 C 447.324219 267.515625 438.925781 275.902344 428.617188 275.902344 C 418.292969 275.902344 409.90625 267.515625 409.90625 257.207031 L 409.90625 209.53125 C 409.90625 205.539062 406.667969 202.300781 402.675781 202.300781 C 398.671875 202.300781 395.445312 205.539062 395.445312 209.53125 L 395.445312 257.207031 C 395.445312 275.484375 410.324219 290.363281 428.617188 290.363281 C 446.894531 290.363281 461.78125 275.484375 461.78125 257.207031 L 461.78125 209.53125 C 461.78125 205.539062 458.546875 202.300781 454.550781 202.300781 Z M 535.289062 258.003906 C 531.460938 256.816406 527.425781 258.929688 526.242188 262.746094 C 523.785156 270.609375 516.640625 275.902344 508.484375 275.902344 C 498.175781 275.902344 489.789062 267.515625 489.789062 257.207031 L 489.789062 235.46875 C 489.789062 225.160156 498.175781 216.761719 508.484375 216.761719 C 516.640625 216.761719 523.785156 222.054688 526.242188 229.933594 C 527.425781 233.734375 531.460938 235.847656 535.289062 234.679688 C 539.105469 233.476562 541.238281 229.425781 540.035156 225.609375 C 535.667969 211.671875 523 202.300781 508.484375 202.300781 C 490.207031 202.300781 475.332031 217.179688 475.332031 235.46875 L 475.332031 257.207031 C 475.332031 275.484375 490.207031 290.363281 508.484375 290.363281 C 523 290.363281 535.667969 281.007812 540.035156 267.066406 C 541.238281 263.25 539.105469 259.1875 535.289062 258.003906 Z M 614.523438 258.003906 C 610.734375 256.816406 606.660156 258.929688 605.476562 262.746094 C 603.011719 270.625 595.886719 275.902344 587.730469 275.902344 C 577.421875 275.902344 569.023438 267.515625 569.023438 257.207031 L 569.023438 235.46875 C 569.023438 225.160156 577.421875 216.761719 587.730469 216.761719 C 595.875 216.761719 603.011719 222.054688 605.476562 229.933594 C 606.660156 233.734375 610.695312 235.847656 614.523438 234.679688 C 618.339844 233.476562 620.464844 229.425781 619.269531 225.609375 C 614.902344 211.671875 602.234375 202.300781 587.730469 202.300781 C 569.441406 202.300781 554.566406 217.179688 554.566406 235.46875 L 554.566406 257.207031 C 554.566406 275.484375 569.441406 290.363281 587.730469 290.363281 C 602.25 290.363281 614.914062 281.007812 619.269531 267.050781 C 620.464844 263.25 618.339844 259.1875 614.523438 258.003906 Z M 351.96875 239.59375 C 342.199219 235.820312 337.179688 230.667969 338.222656 225.449219 C 339.144531 220.851562 344.222656 216.773438 348.949219 216.773438 L 349.167969 216.773438 C 358.679688 217.035156 360.691406 221.898438 360.921875 222.601562 C 361.960938 226.363281 365.824219 228.617188 369.625 227.691406 C 373.511719 226.726562 375.871094 222.804688 374.917969 218.929688 C 373.441406 212.972656 366.445312 202.777344 349.570312 202.3125 L 348.964844 202.3125 C 337.410156 202.3125 326.304688 211.3125 324.035156 222.621094 C 323.097656 227.347656 321.941406 243.515625 346.761719 253.082031 C 356.554688 256.859375 361.554688 262.007812 360.515625 267.226562 C 359.605469 271.824219 354.527344 275.917969 349.789062 275.917969 C 349.714844 275.917969 349.644531 275.902344 349.570312 275.902344 C 339.894531 275.644531 337.992188 270.625 337.859375 270.277344 C 336.90625 266.390625 332.96875 264.027344 329.113281 265 C 325.238281 265.957031 322.867188 269.875 323.832031 273.75 C 325.3125 279.703125 332.292969 289.917969 349.167969 290.363281 C 349.382812 290.363281 349.570312 290.378906 349.773438 290.378906 C 361.324219 290.363281 372.425781 281.382812 374.695312 270.0625 C 375.652344 265.335938 376.796875 249.167969 351.96875 239.59375 Z M 740.15625 239.59375 C 730.378906 235.820312 725.363281 230.667969 726.417969 225.449219 C 727.328125 220.851562 732.40625 216.773438 737.152344 216.773438 L 737.367188 216.773438 C 746.875 217.035156 748.875 221.898438 749.117188 222.601562 C 750.164062 226.363281 753.992188 228.617188 757.820312 227.691406 C 761.695312 226.726562 764.070312 222.804688 763.101562 218.929688 C 761.628906 212.972656 754.632812 202.777344 737.753906 202.3125 C 725.695312 201.894531 714.535156 211.109375 712.238281 222.621094 C 711.285156 227.347656 710.136719 243.515625 734.964844 253.082031 C 744.753906 256.859375 749.757812 262.007812 748.71875 267.226562 C 747.804688 271.824219 742.730469 275.917969 737.988281 275.917969 C 737.914062 275.917969 737.839844 275.902344 737.773438 275.902344 C 728.097656 275.644531 726.1875 270.625 726.058594 270.277344 C 725.105469 266.402344 721.183594 264.019531 717.308594 265 C 713.433594 265.957031 711.0625 269.875 712.035156 273.75 C 713.492188 279.703125 720.488281 289.917969 737.375 290.363281 C 737.578125 290.363281 737.773438 290.378906 737.96875 290.378906 C 749.523438 290.363281 760.628906 281.382812 762.898438 270.0625 C 763.835938 265.335938 764.996094 249.167969 740.15625 239.59375 Z M 804.164062 239.59375 C 794.375 235.820312 789.371094 230.667969 790.417969 225.449219 C 791.335938 220.851562 796.414062 216.773438 801.140625 216.773438 L 801.355469 216.773438 C 810.890625 217.035156 812.882812 221.898438 813.113281 222.601562 C 814.171875 226.363281 818.015625 228.636719 821.820312 227.691406 C 825.691406 226.738281 828.066406 222.816406 827.109375 218.941406 C 825.636719 212.972656 818.640625 202.777344 801.761719 202.3125 L 801.160156 202.3125 C 789.601562 202.3125 778.5 211.3125 776.246094 222.621094 C 775.292969 227.347656 774.132812 243.515625 798.960938 253.082031 C 808.75 256.859375 813.765625 262.007812 812.707031 267.226562 C 811.800781 271.824219 806.722656 275.917969 801.984375 275.917969 C 801.910156 275.917969 801.835938 275.902344 801.761719 275.902344 C 792.105469 275.644531 790.183594 270.625 790.066406 270.277344 C 789.101562 266.390625 785.164062 264.027344 781.304688 265 C 777.433594 265.957031 775.058594 269.875 776.023438 273.75 C 777.5 279.703125 784.503906 289.917969 801.375 290.363281 C 801.578125 290.363281 801.78125 290.378906 801.964844 290.378906 C 813.53125 290.363281 824.636719 281.382812 826.890625 270.0625 C 827.832031 265.335938 828.992188 249.167969 804.164062 239.59375 " fill-opacity="1" fill-rule="nonzero"/></g><path fill="#ffde7e" d="M 712.035156 273.75 C 711.0625 269.875 713.433594 265.957031 717.308594 265 C 721.183594 264.019531 725.105469 266.402344 726.058594 270.277344 C 726.1875 270.625 728.097656 275.644531 737.773438 275.902344 C 737.839844 275.902344 737.914062 275.917969 737.988281 275.917969 C 742.730469 275.917969 747.804688 271.824219 748.71875 267.226562 C 749.757812 262.007812 744.753906 256.859375 734.964844 253.082031 C 710.136719 243.515625 711.285156 227.347656 712.238281 222.621094 C 714.535156 211.109375 725.695312 201.894531 737.753906 202.3125 C 754.632812 202.777344 761.628906 212.972656 763.101562 218.929688 C 764.070312 222.804688 761.695312 226.726562 757.820312 227.691406 C 753.992188 228.617188 750.164062 226.363281 749.117188 222.601562 C 748.875 221.898438 746.875 217.035156 737.367188 216.773438 L 737.152344 216.773438 C 732.40625 216.773438 727.328125 220.851562 726.417969 225.449219 C 725.363281 230.667969 730.378906 235.820312 740.15625 239.59375 C 764.996094 249.167969 763.835938 265.335938 762.898438 270.0625 C 760.628906 281.382812 749.523438 290.363281 737.96875 290.378906 C 737.773438 290.378906 737.578125 290.363281 737.375 290.363281 C 720.488281 289.917969 713.492188 279.703125 712.035156 273.75 Z M 668.019531 239.117188 C 672.011719 239.117188 675.25 242.339844 675.25 246.347656 C 675.25 250.335938 672.011719 253.578125 668.019531 253.578125 L 652.449219 253.578125 L 652.449219 275.902344 L 687.425781 275.902344 C 691.414062 275.902344 694.65625 279.144531 694.65625 283.132812 C 694.65625 287.136719 691.414062 290.363281 687.425781 290.363281 L 645.21875 290.363281 C 641.226562 290.363281 637.992188 287.136719 637.992188 283.132812 L 637.992188 209.53125 C 637.992188 205.539062 641.226562 202.300781 645.21875 202.300781 L 687.425781 202.300781 C 691.414062 202.300781 694.65625 205.539062 694.65625 209.53125 C 694.65625 213.519531 691.414062 216.761719 687.425781 216.761719 L 652.449219 216.761719 L 652.449219 239.117188 Z M 587.730469 275.902344 C 595.886719 275.902344 603.011719 270.625 605.476562 262.746094 C 606.660156 258.929688 610.734375 256.816406 614.523438 258.003906 C 618.339844 259.1875 620.464844 263.25 619.269531 267.050781 C 614.914062 281.007812 602.25 290.363281 587.730469 290.363281 C 569.441406 290.363281 554.566406 275.484375 554.566406 257.207031 L 554.566406 235.46875 C 554.566406 217.179688 569.441406 202.300781 587.730469 202.300781 C 602.234375 202.300781 614.902344 211.671875 619.269531 225.609375 C 620.464844 229.425781 618.339844 233.476562 614.523438 234.679688 C 610.695312 235.847656 606.660156 233.734375 605.476562 229.933594 C 603.011719 222.054688 595.875 216.761719 587.730469 216.761719 C 577.421875 216.761719 569.023438 225.160156 569.023438 235.46875 L 569.023438 257.207031 C 569.023438 267.515625 577.421875 275.902344 587.730469 275.902344 Z M 508.484375 275.902344 C 516.640625 275.902344 523.785156 270.609375 526.242188 262.746094 C 527.425781 258.929688 531.460938 256.816406 535.289062 258.003906 C 539.105469 259.1875 541.238281 263.25 540.035156 267.066406 C 535.667969 281.007812 523 290.363281 508.484375 290.363281 C 490.207031 290.363281 475.332031 275.484375 475.332031 257.207031 L 475.332031 235.46875 C 475.332031 217.179688 490.207031 202.300781 508.484375 202.300781 C 523 202.300781 535.667969 211.671875 540.035156 225.609375 C 541.238281 229.425781 539.105469 233.476562 535.289062 234.679688 C 531.460938 235.847656 527.425781 233.734375 526.242188 229.933594 C 523.785156 222.054688 516.640625 216.761719 508.484375 216.761719 C 498.175781 216.761719 489.789062 225.160156 489.789062 235.46875 L 489.789062 257.207031 C 489.789062 267.515625 498.175781 275.902344 508.484375 275.902344 Z M 461.78125 257.207031 C 461.78125 275.484375 446.894531 290.363281 428.617188 290.363281 C 410.324219 290.363281 395.445312 275.484375 395.445312 257.207031 L 395.445312 209.53125 C 395.445312 205.539062 398.671875 202.300781 402.675781 202.300781 C 406.667969 202.300781 409.90625 205.539062 409.90625 209.53125 L 409.90625 257.207031 C 409.90625 267.515625 418.292969 275.902344 428.617188 275.902344 C 438.925781 275.902344 447.324219 267.515625 447.324219 257.207031 L 447.324219 209.53125 C 447.324219 205.539062 450.546875 202.300781 454.550781 202.300781 C 458.546875 202.300781 461.78125 205.539062 461.78125 209.53125 Z M 351.96875 239.59375 C 376.796875 249.167969 375.652344 265.335938 374.695312 270.0625 C 372.425781 281.382812 361.324219 290.363281 349.773438 290.378906 C 349.570312 290.378906 349.382812 290.363281 349.167969 290.363281 C 332.292969 289.917969 325.3125 279.703125 323.832031 273.75 C 322.867188 269.875 325.238281 265.957031 329.113281 265 C 332.96875 264.027344 336.90625 266.390625 337.859375 270.277344 C 337.992188 270.625 339.894531 275.644531 349.570312 275.902344 C 349.644531 275.902344 349.714844 275.917969 349.789062 275.917969 C 354.527344 275.917969 359.605469 271.824219 360.515625 267.226562 C 361.554688 262.007812 356.554688 256.859375 346.761719 253.082031 C 321.941406 243.515625 323.097656 227.347656 324.035156 222.621094 C 326.304688 211.3125 337.410156 202.3125 348.964844 202.3125 L 349.570312 202.3125 C 366.445312 202.777344 373.441406 212.972656 374.917969 218.929688 C 375.871094 222.804688 373.511719 226.726562 369.625 227.691406 C 365.824219 228.617188 361.960938 226.363281 360.921875 222.601562 C 360.691406 221.898438 358.679688 217.035156 349.167969 216.773438 L 348.949219 216.773438 C 344.222656 216.773438 339.144531 220.851562 338.222656 225.449219 C 337.179688 230.667969 342.199219 235.820312 351.96875 239.59375 Z M 798.960938 253.082031 C 774.132812 243.515625 775.292969 227.347656 776.246094 222.621094 C 778.5 211.3125 789.601562 202.3125 801.160156 202.3125 L 801.761719 202.3125 C 818.640625 202.777344 825.636719 212.972656 827.109375 218.941406 C 828.066406 222.816406 825.691406 226.738281 821.820312 227.691406 C 818.015625 228.636719 814.171875 226.363281 813.113281 222.601562 C 812.882812 221.898438 810.890625 217.035156 801.355469 216.773438 L 801.140625 216.773438 C 796.414062 216.773438 791.335938 220.851562 790.417969 225.449219 C 789.371094 230.667969 794.375 235.820312 804.164062 239.59375 C 828.992188 249.167969 827.832031 265.335938 826.890625 270.0625 C 824.636719 281.382812 813.53125 290.363281 801.964844 290.378906 C 801.78125 290.378906 801.578125 290.363281 801.375 290.363281 C 784.503906 289.917969 777.5 279.703125 776.023438 273.75 C 775.058594 269.875 777.433594 265.957031 781.304688 265 C 785.164062 264.027344 789.101562 266.390625 790.066406 270.277344 C 790.183594 270.625 792.105469 275.644531 801.761719 275.902344 C 801.835938 275.902344 801.910156 275.917969 801.984375 275.917969 C 806.722656 275.917969 811.800781 271.824219 812.707031 267.226562 C 813.765625 262.007812 808.75 256.859375 798.960938 253.082031 Z M 907.921875 243.152344 L 720.40625 55.613281 L 720.40625 124.894531 C 720.40625 128.886719 717.167969 132.125 713.175781 132.125 L 288.898438 132.125 L 288.898438 354.175781 L 713.175781 354.175781 C 717.167969 354.175781 720.40625 357.417969 720.40625 361.40625 L 720.40625 422.15625 C 720.449219 422.488281 720.507812 422.832031 720.507812 423.195312 L 720.507812 430.582031 L 907.921875 243.152344 " fill-opacity="1" fill-rule="nonzero"/><path fill="#c1936b" d="M 705.945312 448.136719 L 705.945312 368.632812 L 655.210938 368.632812 L 655.210938 704.925781 L 706.046875 704.925781 L 706.046875 449.324219 C 705.992188 448.933594 705.945312 448.542969 705.945312 448.136719 Z M 462.261719 368.632812 L 462.261719 704.925781 L 411.425781 704.925781 L 411.425781 368.632812 L 462.261719 368.632812 " fill-opacity="1" fill-rule="nonzero"/></svg>