<svg xmlns="http://www.w3.org/2000/svg" xmlns:xlink="http://www.w3.org/1999/xlink" width="650" zoomAndPan="magnify" viewBox="0 0 487.5 131.249995" height="175" preserveAspectRatio="xMidYMid meet" version="1.0"><defs><g/><clipPath id="19f1fc6f1c"><path d="M 8.164062 44 L 23 44 L 23 70 L 8.164062 70 Z M 8.164062 44 " clip-rule="nonzero"/></clipPath><clipPath id="3c8becc3e2"><path d="M 26 32 L 48.476562 32 L 48.476562 48 L 26 48 Z M 26 32 " clip-rule="nonzero"/></clipPath><clipPath id="fa6ab0081d"><path d="M 28 15.601562 L 42 15.601562 L 42 32 L 28 32 Z M 28 15.601562 " clip-rule="nonzero"/></clipPath><clipPath id="8dcaec07cd"><path d="M 13 20 L 42 20 L 42 92.492188 L 13 92.492188 Z M 13 20 " clip-rule="nonzero"/></clipPath><clipPath id="27751684c7"><path d="M 147 32 L 162 32 L 162 46 L 147 46 Z M 147 32 " clip-rule="nonzero"/></clipPath><clipPath id="4dd2e6a2d4"><path d="M 133.003906 30.265625 L 161.304688 32.199219 L 156.207031 106.675781 L 127.90625 104.742188 Z M 133.003906 30.265625 " clip-rule="nonzero"/></clipPath><clipPath id="a4ad30c719"><path d="M 133.003906 30.265625 L 161.304688 32.199219 L 156.207031 106.675781 L 127.90625 104.742188 Z M 133.003906 30.265625 " clip-rule="nonzero"/></clipPath><clipPath id="d585de87b6"><path d="M 133.003906 30.265625 L 161.304688 32.199219 L 156.207031 106.675781 L 127.90625 104.742188 Z M 133.003906 30.265625 " clip-rule="nonzero"/></clipPath><clipPath id="cf43f75bdc"><path d="M 131 54 L 137 54 L 137 69 L 131 69 Z M 131 54 " clip-rule="nonzero"/></clipPath><clipPath id="6274f7856e"><path d="M 133.003906 30.265625 L 161.304688 32.199219 L 156.207031 106.675781 L 127.90625 104.742188 Z M 133.003906 30.265625 " clip-rule="nonzero"/></clipPath><clipPath id="3b31903fb3"><path d="M 133.003906 30.265625 L 161.304688 32.199219 L 156.207031 106.675781 L 127.90625 104.742188 Z M 133.003906 30.265625 " clip-rule="nonzero"/></clipPath><clipPath id="a0635e5bdb"><path d="M 133.003906 30.265625 L 161.304688 32.199219 L 156.207031 106.675781 L 127.90625 104.742188 Z M 133.003906 30.265625 " clip-rule="nonzero"/></clipPath><clipPath id="1d47174939"><path d="M 140 51 L 153 51 L 153 58 L 140 58 Z M 140 51 " clip-rule="nonzero"/></clipPath><clipPath id="5d8b31c31e"><path d="M 133.003906 30.265625 L 161.304688 32.199219 L 156.207031 106.675781 L 127.90625 104.742188 Z M 133.003906 30.265625 " clip-rule="nonzero"/></clipPath><clipPath id="cdccad7abb"><path d="M 133.003906 30.265625 L 161.304688 32.199219 L 156.207031 106.675781 L 127.90625 104.742188 Z M 133.003906 30.265625 " clip-rule="nonzero"/></clipPath><clipPath id="d851857dea"><path d="M 133.003906 30.265625 L 161.304688 32.199219 L 156.207031 106.675781 L 127.90625 104.742188 Z M 133.003906 30.265625 " clip-rule="nonzero"/></clipPath><clipPath id="ece9653fed"><path d="M 129 39 L 153 39 L 153 105 L 129 105 Z M 129 39 " clip-rule="nonzero"/></clipPath><clipPath id="83f3476076"><path d="M 133.003906 30.265625 L 161.304688 32.199219 L 156.207031 106.675781 L 127.90625 104.742188 Z M 133.003906 30.265625 " clip-rule="nonzero"/></clipPath><clipPath id="8738f1d809"><path d="M 133.003906 30.265625 L 161.304688 32.199219 L 156.207031 106.675781 L 127.90625 104.742188 Z M 133.003906 30.265625 " clip-rule="nonzero"/></clipPath><clipPath id="568f2c9e77"><path d="M 133.003906 30.265625 L 161.304688 32.199219 L 156.207031 106.675781 L 127.90625 104.742188 Z M 133.003906 30.265625 " clip-rule="nonzero"/></clipPath><clipPath id="bd514657ea"><path d="M 391 24.246094 L 414 24.246094 L 414 54 L 391 54 Z M 391 24.246094 " clip-rule="nonzero"/></clipPath><clipPath id="542b237b8a"><path d="M 395 55 L 418.820312 55 L 418.820312 72 L 395 72 Z M 395 55 " clip-rule="nonzero"/></clipPath><clipPath id="e8099bec8d"><path d="M 383.734375 36 L 405 36 L 405 83.964844 L 383.734375 83.964844 Z M 383.734375 36 " clip-rule="nonzero"/></clipPath><clipPath id="b05446f48e"><path d="M 386 61 L 408 61 L 408 83.964844 L 386 83.964844 Z M 386 61 " clip-rule="nonzero"/></clipPath><clipPath id="56f7df3da4"><path d="M 458 38 L 485.867188 38 L 485.867188 69 L 458 69 Z M 458 38 " clip-rule="nonzero"/></clipPath><clipPath id="2226df66bc"><path d="M 450.410156 41.757812 L 485.269531 37.773438 L 490.351562 82.277344 L 455.492188 86.257812 Z M 450.410156 41.757812 " clip-rule="nonzero"/></clipPath><clipPath id="38c4f72399"><path d="M 450.410156 41.757812 L 485.269531 37.773438 L 490.351562 82.277344 L 455.492188 86.257812 Z M 450.410156 41.757812 " clip-rule="nonzero"/></clipPath><clipPath id="4387f13fa5"><path d="M 450.410156 41.757812 L 485.269531 37.773438 L 490.351562 82.277344 L 455.492188 86.257812 Z M 450.410156 41.757812 " clip-rule="nonzero"/></clipPath><clipPath id="0e7ee8f33b"><path d="M 455 46 L 480 46 L 480 87 L 455 87 Z M 455 46 " clip-rule="nonzero"/></clipPath><clipPath id="9301111418"><path d="M 450.410156 41.757812 L 485.269531 37.773438 L 490.351562 82.277344 L 455.492188 86.257812 Z M 450.410156 41.757812 " clip-rule="nonzero"/></clipPath><clipPath id="a0a06296b8"><path d="M 450.410156 41.757812 L 485.269531 37.773438 L 490.351562 82.277344 L 455.492188 86.257812 Z M 450.410156 41.757812 " clip-rule="nonzero"/></clipPath><clipPath id="c483b76d74"><path d="M 450.410156 41.757812 L 485.269531 37.773438 L 490.351562 82.277344 L 455.492188 86.257812 Z M 450.410156 41.757812 " clip-rule="nonzero"/></clipPath></defs><path fill="#42826c" d="M 16.878906 44.757812 C 16.796875 46.664062 16.621094 48.855469 16.058594 50.996094 C 15.972656 51.332031 15.855469 51.667969 15.6875 51.964844 C 15.488281 52.324219 14.980469 52.4375 14.648438 52.191406 C 14.332031 51.960938 14.03125 51.6875 13.78125 51.382812 C 12.664062 50.027344 11.777344 48.523438 11.046875 46.929688 C 10.929688 46.667969 10.851562 46.355469 10.859375 46.070312 C 10.957031 42.863281 11.890625 39.882812 13.296875 37.03125 C 13.339844 36.941406 13.375 36.84375 13.429688 36.761719 C 13.84375 36.097656 14.605469 36.03125 15.003906 36.703125 C 15.457031 37.46875 15.832031 38.296875 16.132812 39.136719 C 16.617188 40.492188 16.886719 42.746094 16.878906 44.757812 " fill-opacity="1" fill-rule="nonzero"/><g clip-path="url(#19f1fc6f1c)"><path fill="#99daa2" d="M 22.265625 69.191406 C 21.253906 69.242188 20.355469 69.03125 19.488281 68.636719 C 15.753906 66.933594 13.125 64.089844 11.253906 60.488281 C 10.421875 58.886719 9.863281 57.179688 9.480469 55.410156 C 8.871094 52.574219 8.476562 49.703125 8.226562 46.8125 C 8.164062 46.082031 8.304688 45.324219 8.394531 44.585938 C 8.425781 44.296875 8.917969 44.167969 9.121094 44.390625 C 10.789062 46.234375 12.769531 47.789062 14.183594 49.875 C 15.132812 51.277344 16.101562 52.667969 17.0625 54.066406 C 19.066406 56.980469 20.269531 60.257812 21.292969 63.609375 C 21.640625 64.753906 21.914062 65.925781 22.207031 67.085938 C 22.367188 67.714844 22.507812 68.355469 22.265625 69.191406 " fill-opacity="1" fill-rule="nonzero"/></g><g clip-path="url(#3c8becc3e2)"><path fill="#99daa2" d="M 28.40625 47.488281 C 28.042969 47.488281 27.945312 47.496094 27.847656 47.488281 C 26.3125 47.359375 26.046875 46.683594 26.625 45.539062 C 27.078125 44.652344 27.535156 43.757812 28.109375 42.953125 C 29.242188 41.367188 30.566406 39.945312 32.085938 38.710938 C 34.101562 37.078125 36.140625 35.484375 38.535156 34.433594 C 40.40625 33.617188 42.320312 32.9375 44.359375 32.660156 C 45.539062 32.5 46.707031 32.242188 47.882812 32.058594 C 48.042969 32.035156 48.304688 32.121094 48.382812 32.246094 C 48.46875 32.375 48.460938 32.65625 48.371094 32.792969 C 47.886719 33.542969 47.421875 34.320312 46.84375 35 C 44.515625 37.75 41.910156 40.207031 39.050781 42.390625 C 37.625 43.476562 36.238281 44.609375 34.636719 45.445312 C 32.949219 46.328125 31.160156 46.910156 29.328125 47.363281 C 28.945312 47.457031 28.539062 47.472656 28.40625 47.488281 " fill-opacity="1" fill-rule="nonzero"/></g><g clip-path="url(#fa6ab0081d)"><path fill="#99daa2" d="M 41.566406 18.527344 C 41.609375 19.898438 41.5 21.285156 41.09375 22.644531 C 40.875 23.371094 40.582031 24.050781 40.109375 24.648438 C 38.363281 26.859375 36.332031 28.753906 33.917969 30.210938 C 33.328125 30.566406 32.667969 30.8125 32.019531 31.066406 C 31.703125 31.191406 31.347656 31.253906 31.007812 31.269531 C 29.527344 31.339844 28.636719 30.5 28.636719 29.023438 C 28.636719 27.539062 29.0625 26.152344 29.800781 24.886719 C 30.660156 23.40625 31.734375 22.097656 33.136719 21.09375 C 33.785156 20.628906 34.460938 20.207031 35.109375 19.746094 C 36.007812 19.117188 36.886719 18.46875 37.78125 17.835938 C 38.59375 17.265625 39.414062 16.695312 40.238281 16.144531 C 40.484375 15.980469 40.761719 15.859375 41.039062 15.746094 C 41.394531 15.605469 41.761719 15.863281 41.761719 16.25 C 41.765625 16.449219 41.722656 16.648438 41.703125 16.847656 C 41.65625 17.394531 41.613281 17.941406 41.566406 18.527344 " fill-opacity="1" fill-rule="nonzero"/></g><path fill="#99daa2" d="M 23.183594 63.320312 C 23.226562 63.167969 23.3125 62.777344 23.441406 62.40625 C 23.796875 61.402344 24.359375 60.515625 25.03125 59.707031 C 27.257812 57.03125 30.027344 55.144531 33.347656 54.136719 C 34.238281 53.867188 35.199219 53.78125 36.132812 53.710938 C 36.890625 53.652344 37.230469 54.175781 36.925781 54.882812 C 36.6875 55.425781 36.402344 55.96875 36.042969 56.4375 C 33.402344 59.890625 30.039062 62.382812 25.984375 63.90625 C 25.34375 64.148438 24.640625 64.25 23.957031 64.351562 C 23.390625 64.4375 23.132812 64.136719 23.183594 63.320312 " fill-opacity="1" fill-rule="nonzero"/><g clip-path="url(#8dcaec07cd)"><path fill="#42826c" d="M 41.648438 37.414062 C 41.539062 37.6875 41.519531 37.90625 41.402344 38.011719 C 40.996094 38.375 40.582031 38.746094 40.121094 39.03125 C 38.855469 39.820312 37.570312 40.585938 36.277344 41.332031 C 32.945312 43.25 29.863281 45.523438 26.921875 48.003906 C 26 48.785156 25.480469 49.671875 25.335938 50.914062 C 24.851562 55.035156 24.242188 59.140625 23.730469 63.257812 C 23.554688 64.644531 23.519531 66.050781 23.449219 67.449219 C 23.292969 70.492188 23.144531 73.542969 23.003906 76.589844 C 22.839844 80.136719 22.671875 83.683594 22.535156 87.230469 C 22.488281 88.480469 22.542969 89.730469 22.539062 90.984375 C 22.535156 91.382812 22.507812 91.78125 22.472656 92.175781 C 22.464844 92.257812 22.371094 92.332031 22.261719 92.492188 C 22.117188 92.402344 21.898438 92.347656 21.835938 92.214844 C 21.691406 91.90625 21.59375 91.566406 21.523438 91.226562 C 21.191406 89.59375 21.222656 87.945312 21.3125 86.292969 C 21.488281 83.144531 21.664062 80 21.828125 76.855469 C 21.929688 74.957031 22.007812 73.058594 22.082031 71.160156 C 22.105469 70.5625 22.085938 69.964844 22.085938 69.289062 C 20.476562 67.890625 19.425781 66.03125 18.4375 64.113281 C 17.132812 61.582031 15.832031 59.046875 14.777344 56.402344 C 14.425781 55.523438 14.179688 54.601562 13.90625 53.695312 C 13.824219 53.414062 13.859375 53.394531 14.230469 52.679688 C 14.457031 52.96875 14.71875 53.199219 14.855469 53.492188 C 15.136719 54.074219 15.351562 54.691406 15.589844 55.292969 C 17.011719 58.933594 18.695312 62.4375 20.832031 65.710938 C 21.183594 66.246094 21.507812 66.8125 22.136719 67.300781 C 22.238281 66.996094 22.359375 66.789062 22.363281 66.578125 C 22.464844 63.324219 22.886719 60.101562 23.328125 56.878906 C 23.667969 54.40625 24.0625 51.9375 24.429688 49.464844 C 24.460938 49.265625 24.515625 49.066406 24.511719 48.871094 C 24.472656 46.390625 25.082031 44.011719 25.726562 41.65625 C 26.34375 39.394531 26.898438 37.113281 27.804688 34.929688 C 29.25 31.441406 31.214844 28.269531 33.414062 25.230469 C 34.175781 24.183594 35.019531 23.195312 35.835938 22.1875 C 36.089844 21.875 36.355469 21.578125 36.640625 21.300781 C 37.007812 20.949219 37.414062 20.894531 37.714844 21.121094 C 38.003906 21.339844 38.039062 21.804688 37.765625 22.203125 C 37.597656 22.449219 37.390625 22.667969 37.195312 22.894531 C 35.230469 25.226562 33.421875 27.660156 31.84375 30.28125 C 30.109375 33.171875 28.691406 36.175781 27.871094 39.457031 C 27.410156 41.296875 26.917969 43.132812 26.472656 44.976562 C 26.320312 45.597656 26.265625 46.242188 26.132812 47.074219 C 26.453125 46.847656 26.621094 46.757812 26.753906 46.632812 C 28.789062 44.707031 31.046875 43.070312 33.398438 41.566406 C 35.160156 40.4375 36.96875 39.390625 38.765625 38.316406 C 39.449219 37.90625 40.160156 37.542969 40.957031 37.417969 C 41.144531 37.386719 41.335938 37.414062 41.648438 37.414062 " fill-opacity="1" fill-rule="nonzero"/></g><g clip-path="url(#27751684c7)"><g clip-path="url(#4dd2e6a2d4)"><g clip-path="url(#a4ad30c719)"><g clip-path="url(#d585de87b6)"><path fill="#99daa2" d="M 158.390625 32.175781 C 159.707031 32.085938 160.847656 32.941406 161.019531 34.300781 C 161.101562 34.972656 161.050781 35.730469 160.832031 36.371094 C 160.101562 38.519531 158.796875 40.238281 156.738281 41.28125 C 156.042969 41.632812 155.316406 41.921875 154.605469 42.242188 C 152.832031 43.046875 151.046875 43.828125 149.515625 45.082031 C 149.339844 45.226562 149.140625 45.378906 148.925781 45.441406 C 148.714844 45.5 148.429688 45.515625 148.261719 45.414062 C 148.101562 45.3125 147.992188 45.039062 147.972656 44.828125 C 147.949219 44.609375 148.039062 44.367188 148.113281 44.148438 C 149.5 40.140625 151.824219 36.75 154.855469 33.839844 C 155.828125 32.90625 157.019531 32.316406 158.390625 32.175781 " fill-opacity="1" fill-rule="nonzero"/></g></g></g></g><g clip-path="url(#cf43f75bdc)"><g clip-path="url(#6274f7856e)"><g clip-path="url(#3b31903fb3)"><g clip-path="url(#a0635e5bdb)"><path fill="#99daa2" d="M 136.804688 67.238281 C 136.746094 68.285156 136.015625 68.6875 135.335938 68.1875 C 134.898438 67.871094 134.480469 67.496094 134.148438 67.070312 C 132.359375 64.804688 131.328125 62.210938 131.132812 59.324219 C 131.078125 58.484375 131.222656 57.605469 131.417969 56.777344 C 131.644531 55.796875 132.296875 55.113281 133.324219 54.945312 C 134.375 54.773438 135.152344 55.308594 135.679688 56.136719 C 136.046875 56.71875 136.355469 57.390625 136.476562 58.0625 C 136.652344 59.054688 136.671875 60.082031 136.699219 61.09375 C 136.742188 62.8125 136.734375 64.535156 136.753906 66.253906 C 136.761719 66.648438 136.796875 67.039062 136.804688 67.238281 " fill-opacity="1" fill-rule="nonzero"/></g></g></g></g><g clip-path="url(#1d47174939)"><g clip-path="url(#5d8b31c31e)"><g clip-path="url(#cdccad7abb)"><g clip-path="url(#d851857dea)"><path fill="#99daa2" d="M 141.058594 56.996094 C 141.011719 56.605469 140.96875 56.515625 141 56.457031 C 142.511719 53.367188 146.558594 51.070312 149.808594 51.46875 C 150.269531 51.523438 150.746094 51.597656 151.164062 51.78125 C 152.648438 52.433594 152.90625 54.179688 151.628906 55.1875 C 151.035156 55.65625 150.304688 56.023438 149.578125 56.234375 C 148.539062 56.535156 147.453125 56.699219 146.378906 56.828125 C 144.992188 56.988281 143.59375 57.070312 142.199219 57.152344 C 141.832031 57.171875 141.457031 57.054688 141.058594 56.996094 " fill-opacity="1" fill-rule="nonzero"/></g></g></g></g><g clip-path="url(#ece9653fed)"><g clip-path="url(#83f3476076)"><g clip-path="url(#8738f1d809)"><g clip-path="url(#568f2c9e77)"><path fill="#42826c" d="M 152.472656 39.878906 C 152.824219 40.777344 152.34375 41.152344 152.007812 41.546875 C 151.191406 42.5 150.3125 43.398438 149.519531 44.363281 C 145.390625 49.382812 142.488281 55.105469 140.050781 61.097656 C 136.902344 68.84375 134.582031 76.828125 133.257812 85.078125 C 132.246094 91.363281 131.078125 97.632812 130.980469 104.027344 C 130.976562 104.253906 130.875 104.480469 130.820312 104.703125 C 130.277344 104.894531 130.0625 104.523438 130.050781 104.164062 C 130.011719 102.515625 129.886719 100.851562 130.054688 99.222656 C 130.820312 91.710938 131.984375 84.257812 133.625 76.882812 C 134.945312 70.957031 137.011719 65.28125 139.253906 59.660156 C 140.863281 55.636719 142.769531 51.765625 145.171875 48.167969 C 146.609375 46.023438 148.234375 44 149.828125 41.964844 C 150.304688 41.351562 150.941406 40.867188 151.539062 40.359375 C 151.765625 40.167969 152.078125 40.078125 152.472656 39.878906 " fill-opacity="1" fill-rule="nonzero"/></g></g></g></g><g clip-path="url(#bd514657ea)"><path fill="#99daa2" d="M 391.789062 47.703125 C 391.820312 46.042969 392.226562 44.339844 392.664062 43.105469 C 394.019531 39.273438 396.515625 35.917969 399.496094 33.167969 C 403.242188 29.707031 407.726562 27.304688 412.089844 24.742188 C 412.335938 24.597656 412.585938 24.445312 412.851562 24.347656 C 413.085938 24.261719 413.339844 24.277344 413.527344 24.492188 C 413.703125 24.699219 413.761719 24.949219 413.644531 25.183594 C 413.464844 25.546875 413.253906 25.90625 413.023438 26.242188 C 411.695312 28.164062 410.636719 30.269531 409.871094 32.480469 C 409.164062 34.527344 408.921875 36.5625 408.386719 38.644531 C 407.355469 42.660156 405.175781 46.375 402.191406 49.242188 C 400.996094 50.386719 399.675781 51.398438 398.246094 52.234375 C 396.785156 53.09375 395.382812 53.558594 393.851562 52.605469 C 392.242188 51.601562 391.746094 49.683594 391.789062 47.703125 " fill-opacity="1" fill-rule="nonzero"/></g><g clip-path="url(#542b237b8a)"><path fill="#99daa2" d="M 400.886719 71.515625 C 397.453125 71.402344 394.054688 69.71875 395.515625 65.75 C 396.34375 63.496094 397.785156 61.472656 399.640625 59.953125 C 401.921875 58.089844 404.757812 57.023438 407.644531 56.460938 C 409.402344 56.121094 411.1875 55.957031 412.976562 55.859375 C 414.617188 55.773438 416.257812 55.878906 417.820312 55.296875 C 417.933594 55.253906 418.054688 55.226562 418.175781 55.21875 C 418.441406 55.203125 418.691406 55.296875 418.765625 55.558594 C 418.820312 55.734375 418.8125 55.972656 418.730469 56.140625 C 418.648438 56.3125 418.457031 56.433594 418.304688 56.566406 C 414.957031 59.46875 412.707031 63.550781 409.847656 66.902344 C 408.464844 68.527344 406.867188 70.035156 404.90625 70.863281 C 403.804688 71.328125 402.339844 71.5625 400.886719 71.515625 " fill-opacity="1" fill-rule="nonzero"/></g><g clip-path="url(#e8099bec8d)"><path fill="#42826c" d="M 384.21875 83.421875 C 384.046875 83.148438 383.847656 82.96875 383.820312 82.765625 C 383.757812 82.324219 383.730469 81.863281 383.773438 81.417969 C 383.9375 79.695312 384.101562 77.972656 384.324219 76.261719 C 384.570312 74.382812 384.851562 72.511719 385.167969 70.644531 C 385.601562 68.078125 386.410156 65.617188 387.328125 63.191406 C 387.675781 62.265625 388.039062 61.347656 388.378906 60.421875 C 389.578125 57.117188 391.210938 54.035156 393.085938 51.074219 C 394.757812 48.433594 396.445312 45.804688 398.324219 43.304688 C 399.828125 41.300781 401.289062 39.257812 403.058594 37.46875 C 403.289062 37.238281 403.527344 37.007812 403.785156 36.808594 C 404.039062 36.617188 404.375 36.664062 404.570312 36.875 C 404.765625 37.082031 404.773438 37.398438 404.578125 37.660156 C 404.503906 37.757812 404.421875 37.851562 404.332031 37.9375 C 402.8125 39.339844 401.597656 41.007812 400.359375 42.644531 C 397.28125 46.710938 394.429688 50.933594 391.988281 55.421875 C 391.359375 56.578125 390.769531 57.761719 390.28125 58.980469 C 389.351562 61.308594 388.484375 63.664062 387.636719 66.023438 C 386.828125 68.277344 386.355469 70.617188 386.03125 72.988281 C 385.617188 76.003906 385.210938 79.023438 384.800781 82.039062 C 384.738281 82.484375 384.734375 82.949219 384.21875 83.421875 " fill-opacity="1" fill-rule="nonzero"/></g><g clip-path="url(#b05446f48e)"><path fill="#42826c" d="M 386.964844 83.945312 C 386.855469 83.847656 386.679688 83.765625 386.640625 83.640625 C 386.582031 83.457031 386.570312 83.226562 386.632812 83.046875 C 386.785156 82.578125 386.964844 82.117188 387.179688 81.675781 C 387.929688 80.164062 388.785156 78.714844 389.796875 77.359375 C 391.148438 75.554688 392.503906 73.746094 393.988281 72.039062 C 397.292969 68.238281 401.046875 64.941406 405.066406 61.933594 C 405.425781 61.664062 405.796875 61.40625 406.1875 61.1875 C 406.40625 61.066406 406.675781 61.085938 406.859375 61.304688 C 407.042969 61.515625 407.050781 61.78125 406.902344 61.988281 C 406.738281 62.21875 406.515625 62.40625 406.292969 62.582031 C 404.59375 63.9375 402.851562 65.242188 401.191406 66.644531 C 397.636719 69.648438 394.527344 73.082031 391.738281 76.816406 C 390.230469 78.828125 388.859375 80.914062 387.761719 83.179688 C 387.65625 83.394531 387.5 83.597656 387.339844 83.777344 C 387.269531 83.859375 387.128906 83.875 386.964844 83.945312 " fill-opacity="1" fill-rule="nonzero"/></g><path fill="#42826c" d="M 408.515625 67.414062 C 408.25 67.78125 408.164062 67.972656 408.019531 68.085938 C 406.542969 69.277344 404.84375 69.941406 402.980469 70.191406 C 402.863281 70.207031 402.734375 70.179688 402.621094 70.136719 C 402.558594 70.113281 402.476562 70.015625 402.480469 69.957031 C 402.484375 69.851562 402.53125 69.675781 402.597656 69.65625 C 403.066406 69.519531 403.546875 69.417969 404.019531 69.292969 C 404.722656 69.105469 405.445312 68.953125 406.144531 68.441406 C 405.941406 68.308594 405.78125 68.203125 405.542969 68.046875 C 406.15625 67.566406 406.839844 67.609375 407.4375 67.425781 C 407.691406 67.351562 407.984375 67.414062 408.515625 67.414062 " fill-opacity="1" fill-rule="nonzero"/><path fill="#42826c" d="M 402.285156 46.730469 C 402.421875 46.484375 402.480469 46.332031 402.582031 46.214844 C 403.863281 44.761719 404.996094 43.222656 405.53125 41.316406 C 405.550781 41.246094 405.617188 41.175781 405.679688 41.128906 C 405.734375 41.085938 405.839844 41.03125 405.882812 41.054688 C 405.980469 41.105469 406.089844 41.191406 406.125 41.289062 C 406.164062 41.394531 406.152344 41.539062 406.117188 41.648438 C 405.960938 42.113281 405.820312 42.585938 405.613281 43.027344 C 405.046875 44.21875 404.285156 45.28125 403.433594 46.28125 C 403.277344 46.46875 403.097656 46.65625 402.890625 46.765625 C 402.757812 46.832031 402.550781 46.75 402.285156 46.730469 " fill-opacity="1" fill-rule="nonzero"/><g clip-path="url(#56f7df3da4)"><g clip-path="url(#2226df66bc)"><g clip-path="url(#38c4f72399)"><g clip-path="url(#4387f13fa5)"><path fill="#99daa2" d="M 464.496094 68.457031 C 460.566406 68.964844 458.558594 67.382812 458.328125 64.195312 C 458.273438 63.417969 458.300781 62.601562 458.484375 61.84375 C 458.800781 60.503906 459.128906 59.136719 459.695312 57.886719 C 462.882812 50.859375 467.730469 45.1875 474.195312 40.882812 C 475.945312 39.71875 477.832031 38.84375 479.957031 38.523438 C 483.832031 37.945312 485.585938 40.542969 485.476562 43.414062 C 485.390625 45.722656 484.660156 47.878906 483.675781 49.949219 C 481.257812 55.035156 477.792969 59.351562 473.585938 63.097656 C 471.800781 64.6875 469.886719 66.128906 467.707031 67.15625 C 466.453125 67.746094 465.136719 68.199219 464.496094 68.457031 " fill-opacity="1" fill-rule="nonzero"/></g></g></g></g><g clip-path="url(#0e7ee8f33b)"><g clip-path="url(#9301111418)"><g clip-path="url(#a0a06296b8)"><g clip-path="url(#c483b76d74)"><path fill="#42826c" d="M 455.421875 84.460938 C 455.417969 83.664062 455.578125 82.28125 455.808594 80.921875 C 456.957031 74.183594 459.703125 68.078125 463.535156 62.429688 C 467.289062 56.890625 471.886719 52.082031 476.878906 47.632812 C 477.378906 47.191406 478.027344 46.90625 478.632812 46.597656 C 478.746094 46.539062 479.035156 46.664062 479.148438 46.789062 C 479.253906 46.914062 479.335938 47.21875 479.261719 47.316406 C 478.839844 47.855469 478.410156 48.398438 477.910156 48.863281 C 474.175781 52.300781 470.554688 55.84375 467.414062 59.84375 C 462.558594 66.023438 458.941406 72.777344 457.472656 80.53125 C 457.195312 81.980469 457.117188 83.46875 456.929688 84.933594 C 456.867188 85.410156 456.8125 85.925781 456.234375 86.101562 C 455.875 86.210938 455.425781 85.671875 455.421875 84.460938 " fill-opacity="1" fill-rule="nonzero"/></g></g></g></g><g fill="#0d4b8f" fill-opacity="1"><g transform="translate(7.15543, 108.833204)"><g><path d="M -0.984375 -18.5 C -2.273438 -19.75 -2.921875 -21.082031 -2.921875 -22.5 C -2.921875 -23.613281 -2.566406 -24.582031 -1.859375 -25.40625 C -0.503906 -26.988281 1.382812 -27.78125 3.8125 -27.78125 L 22.46875 -27.78125 C 23.632812 -27.800781 24.648438 -27.894531 25.515625 -28.0625 C 26.390625 -28.238281 26.945312 -28.378906 27.1875 -28.484375 L 27.1875 -21.59375 L 26.796875 -21.59375 L 26.796875 -22.078125 C 26.796875 -23.265625 26.4375 -24.226562 25.71875 -24.96875 C 25.007812 -25.707031 24.046875 -26.085938 22.828125 -26.109375 L 17.484375 -26.109375 L 17.484375 -2.859375 C 17.535156 -1.898438 17.972656 -1.1875 18.796875 -0.71875 C 19.160156 -0.5 19.566406 -0.390625 20.015625 -0.390625 L 20.53125 -0.390625 L 20.53125 0 L 8.484375 0 L 8.484375 -0.390625 L 9 -0.390625 C 9.6875 -0.390625 10.273438 -0.628906 10.765625 -1.109375 C 11.253906 -1.585938 11.507812 -2.15625 11.53125 -2.8125 L 11.53125 -26.109375 L 3.8125 -26.109375 C 2.726562 -26.109375 1.773438 -25.910156 0.953125 -25.515625 C -0.703125 -24.722656 -1.53125 -23.484375 -1.53125 -21.796875 C -1.53125 -20.785156 -1.21875 -19.753906 -0.59375 -18.703125 Z M -0.984375 -18.5 "/></g></g></g><g fill="#0d4b8f" fill-opacity="1"><g transform="translate(34.815874, 108.833204)"><g><path d="M 12.59375 -26 L 10.890625 -26 C 10.835938 -26 10.800781 -26 10.78125 -26 L 10.78125 -2.890625 C 10.800781 -1.910156 11.222656 -1.1875 12.046875 -0.71875 C 12.441406 -0.5 12.863281 -0.390625 13.3125 -0.390625 L 13.828125 -0.390625 L 13.828125 0 L 1.78125 0 L 1.78125 -0.390625 L 2.296875 -0.390625 C 3.242188 -0.390625 3.972656 -0.800781 4.484375 -1.625 C 4.691406 -1.988281 4.804688 -2.398438 4.828125 -2.859375 L 4.828125 -24.84375 C 4.804688 -25.53125 4.550781 -26.117188 4.0625 -26.609375 C 3.570312 -27.097656 2.984375 -27.34375 2.296875 -27.34375 L 1.78125 -27.34375 L 1.78125 -27.734375 L 15.375 -27.734375 C 17.9375 -27.734375 20.101562 -27.179688 21.875 -26.078125 C 22.769531 -25.515625 23.484375 -24.738281 24.015625 -23.75 C 24.546875 -22.757812 24.8125 -21.632812 24.8125 -20.375 C 24.8125 -19.125 24.59375 -17.96875 24.15625 -16.90625 C 23.71875 -15.851562 22.988281 -14.929688 21.96875 -14.140625 C 20.957031 -13.347656 19.738281 -12.875 18.3125 -12.71875 C 19.84375 -12.21875 21.1875 -11.054688 22.34375 -9.234375 C 25.195312 -4.660156 27.3125 -1.9375 28.6875 -1.0625 C 29.375 -0.644531 30.234375 -0.421875 31.265625 -0.390625 L 31.265625 0 L 27.375 0 C 25.132812 0 23.257812 -0.304688 21.75 -0.921875 C 20.25 -1.546875 19.019531 -2.613281 18.0625 -4.125 C 17.59375 -4.882812 16.988281 -6.035156 16.25 -7.578125 C 15.507812 -9.128906 15.019531 -10.234375 14.78125 -10.890625 C 14.0625 -12.484375 13.160156 -13.367188 12.078125 -13.546875 L 12.078125 -13.953125 L 13.3125 -13.953125 C 14.5 -13.953125 15.546875 -14.304688 16.453125 -15.015625 C 17.367188 -15.734375 17.988281 -16.894531 18.3125 -18.5 C 18.414062 -19.0625 18.46875 -19.5 18.46875 -19.8125 C 18.46875 -21.976562 18.03125 -23.539062 17.15625 -24.5 C 16.28125 -25.46875 15.160156 -25.96875 13.796875 -26 C 13.523438 -26 13.125 -26 12.59375 -26 Z M 12.59375 -26 "/></g></g></g><g fill="#0d4b8f" fill-opacity="1"><g transform="translate(64.378472, 108.833204)"><g><path d="M 2.171875 -0.390625 C 2.859375 -0.390625 3.445312 -0.632812 3.9375 -1.125 C 4.425781 -1.613281 4.6875 -2.203125 4.71875 -2.890625 L 4.71875 -24.96875 C 4.632812 -25.882812 4.195312 -26.570312 3.40625 -27.03125 C 3.007812 -27.238281 2.597656 -27.34375 2.171875 -27.34375 L 1.671875 -27.34375 L 1.671875 -27.734375 L 16.84375 -27.734375 C 17.65625 -27.734375 18.550781 -27.8125 19.53125 -27.96875 C 20.507812 -28.132812 21.195312 -28.296875 21.59375 -28.453125 L 21.59375 -21.515625 L 21.203125 -21.515625 L 21.203125 -21.984375 C 21.203125 -23.179688 20.847656 -24.140625 20.140625 -24.859375 C 19.441406 -25.585938 18.5 -25.976562 17.3125 -26.03125 L 10.65625 -26.03125 L 10.65625 -14.5 L 15.890625 -14.5 C 16.867188 -14.53125 17.671875 -14.867188 18.296875 -15.515625 C 18.929688 -16.160156 19.25 -16.957031 19.25 -17.90625 L 19.25 -18.265625 L 19.65625 -18.265625 L 19.65625 -9.109375 L 19.25 -9.109375 L 19.25 -9.4375 C 19.25 -10.75 18.722656 -11.722656 17.671875 -12.359375 C 17.140625 -12.648438 16.554688 -12.8125 15.921875 -12.84375 L 10.65625 -12.84375 L 10.65625 -1.703125 L 15.84375 -1.703125 C 17.78125 -1.703125 19.398438 -2.253906 20.703125 -3.359375 C 22.015625 -4.472656 22.984375 -6.046875 23.609375 -8.078125 L 24.015625 -8.078125 L 22.1875 0 L 1.671875 0 L 1.671875 -0.390625 Z M 2.171875 -0.390625 "/></g></g></g><g fill="#0d4b8f" fill-opacity="1"><g transform="translate(89.383833, 108.833204)"><g><path d="M 2.171875 -0.390625 C 2.859375 -0.390625 3.445312 -0.632812 3.9375 -1.125 C 4.425781 -1.613281 4.6875 -2.203125 4.71875 -2.890625 L 4.71875 -24.96875 C 4.632812 -25.882812 4.195312 -26.570312 3.40625 -27.03125 C 3.007812 -27.238281 2.597656 -27.34375 2.171875 -27.34375 L 1.671875 -27.34375 L 1.671875 -27.734375 L 16.84375 -27.734375 C 17.65625 -27.734375 18.550781 -27.8125 19.53125 -27.96875 C 20.507812 -28.132812 21.195312 -28.296875 21.59375 -28.453125 L 21.59375 -21.515625 L 21.203125 -21.515625 L 21.203125 -21.984375 C 21.203125 -23.179688 20.847656 -24.140625 20.140625 -24.859375 C 19.441406 -25.585938 18.5 -25.976562 17.3125 -26.03125 L 10.65625 -26.03125 L 10.65625 -14.5 L 15.890625 -14.5 C 16.867188 -14.53125 17.671875 -14.867188 18.296875 -15.515625 C 18.929688 -16.160156 19.25 -16.957031 19.25 -17.90625 L 19.25 -18.265625 L 19.65625 -18.265625 L 19.65625 -9.109375 L 19.25 -9.109375 L 19.25 -9.4375 C 19.25 -10.75 18.722656 -11.722656 17.671875 -12.359375 C 17.140625 -12.648438 16.554688 -12.8125 15.921875 -12.84375 L 10.65625 -12.84375 L 10.65625 -1.703125 L 15.84375 -1.703125 C 17.78125 -1.703125 19.398438 -2.253906 20.703125 -3.359375 C 22.015625 -4.472656 22.984375 -6.046875 23.609375 -8.078125 L 24.015625 -8.078125 L 22.1875 0 L 1.671875 0 L 1.671875 -0.390625 Z M 2.171875 -0.390625 "/></g></g></g><g fill="#0d4b8f" fill-opacity="1"><g transform="translate(114.389193, 108.833204)"><g/></g></g><g fill="#0d4b8f" fill-opacity="1"><g transform="translate(124.296222, 108.833204)"><g><path d="M -3.796875 -30.359375 C -2.296875 -30.984375 -0.992188 -31.296875 0.109375 -31.296875 C 1.222656 -31.296875 2.203125 -31.191406 3.046875 -30.984375 C 3.890625 -30.773438 4.753906 -30.425781 5.640625 -29.9375 C 6.523438 -29.445312 7.351562 -28.847656 8.125 -28.140625 C 9.601562 -26.734375 10.859375 -25.144531 11.890625 -23.375 L 19.8125 -8.515625 L 31.296875 -28.296875 L 31.65625 -28.296875 L 35.78125 -5 C 36.414062 -1.40625 37.507812 1.445312 39.0625 3.5625 C 40.625 5.707031 42.765625 6.78125 45.484375 6.78125 C 45.671875 6.78125 45.84375 6.78125 46 6.78125 L 46 7.171875 C 44.550781 7.566406 43.125 7.765625 41.71875 7.765625 C 38.875 7.765625 36.273438 6.640625 33.921875 4.390625 C 31.648438 2.253906 30.101562 -0.875 29.28125 -5 L 27.34375 -16.53125 L 19.890625 -3.609375 C 18.890625 -1.941406 18.375 -0.472656 18.34375 0.796875 L 17.984375 0.796875 L 8.125 -17.90625 L 6.1875 -2.0625 C 6.101562 -1.457031 6.363281 -0.96875 6.96875 -0.59375 C 7.207031 -0.4375 7.460938 -0.359375 7.734375 -0.359375 L 8.359375 -0.359375 L 8.359375 0 L 0.078125 0 L 0.078125 -0.390625 L 0.71875 -0.390625 C 1.40625 -0.390625 2.019531 -0.59375 2.5625 -1 C 3.101562 -1.414062 3.4375 -1.976562 3.5625 -2.6875 L 6.265625 -21.59375 C 5.078125 -23.707031 3.710938 -25.582031 2.171875 -27.21875 C 0.460938 -29.070312 -1.328125 -30 -3.203125 -30 C -3.390625 -30 -3.5625 -29.984375 -3.71875 -29.953125 Z M -3.796875 -30.359375 "/></g></g></g><g fill="#0d4b8f" fill-opacity="1"><g transform="translate(162.656266, 108.833204)"><g><path d="M 17.4375 -28.296875 C 22.320312 -28.296875 26.203125 -27 29.078125 -24.40625 C 31.960938 -21.820312 33.40625 -18.3125 33.40625 -13.875 C 33.40625 -9.4375 31.960938 -5.921875 29.078125 -3.328125 C 26.203125 -0.734375 22.320312 0.5625 17.4375 0.5625 C 12.550781 0.5625 8.664062 -0.734375 5.78125 -3.328125 C 2.90625 -5.921875 1.46875 -9.4375 1.46875 -13.875 C 1.46875 -16.800781 2.117188 -19.351562 3.421875 -21.53125 C 4.734375 -23.71875 6.585938 -25.390625 8.984375 -26.546875 C 11.390625 -27.710938 14.207031 -28.296875 17.4375 -28.296875 Z M 10.515625 -4.53125 C 12.222656 -2.25 14.53125 -1.109375 17.4375 -1.109375 C 20.34375 -1.109375 22.644531 -2.25 24.34375 -4.53125 C 26.050781 -6.820312 26.90625 -9.9375 26.90625 -13.875 C 26.90625 -16.457031 26.519531 -18.710938 25.75 -20.640625 C 24.988281 -22.566406 23.894531 -24.046875 22.46875 -25.078125 C 21.039062 -26.109375 19.363281 -26.625 17.4375 -26.625 C 14.53125 -26.625 12.222656 -25.476562 10.515625 -23.1875 C 8.816406 -20.90625 7.96875 -17.796875 7.96875 -13.859375 C 7.96875 -9.929688 8.816406 -6.820312 10.515625 -4.53125 Z M 10.515625 -4.53125 "/></g></g></g><g fill="#0d4b8f" fill-opacity="1"><g transform="translate(197.489402, 108.833204)"><g><path d="M 31.296875 -27.34375 L 30.625 -27.34375 C 30.070312 -27.34375 29.585938 -27.160156 29.171875 -26.796875 C 28.765625 -26.441406 28.5625 -26.003906 28.5625 -25.484375 L 28.5625 -10.03125 C 28.5625 -6.78125 27.546875 -4.203125 25.515625 -2.296875 C 23.484375 -0.390625 20.695312 0.5625 17.15625 0.5625 C 12.976562 0.5625 9.78125 -0.367188 7.5625 -2.234375 C 5.34375 -4.097656 4.234375 -6.679688 4.234375 -9.984375 L 4.234375 -25.359375 C 4.234375 -25.941406 4.03125 -26.414062 3.625 -26.78125 C 3.21875 -27.15625 2.722656 -27.34375 2.140625 -27.34375 L 1.5 -27.34375 L 1.5 -27.734375 L 12.921875 -27.734375 L 12.921875 -27.34375 L 12.28125 -27.34375 C 11.695312 -27.34375 11.207031 -27.160156 10.8125 -26.796875 C 10.414062 -26.441406 10.207031 -25.988281 10.1875 -25.4375 L 10.1875 -10.296875 C 10.1875 -7.503906 10.867188 -5.285156 12.234375 -3.640625 C 13.609375 -2.003906 15.5 -1.1875 17.90625 -1.1875 C 20.3125 -1.1875 22.210938 -1.957031 23.609375 -3.5 C 25.015625 -5.050781 25.726562 -7.144531 25.75 -9.78125 L 25.75 -25.4375 C 25.75 -25.988281 25.546875 -26.441406 25.140625 -26.796875 C 24.734375 -27.160156 24.238281 -27.34375 23.65625 -27.34375 L 23.015625 -27.34375 L 23.015625 -27.734375 L 31.296875 -27.734375 Z M 31.296875 -27.34375 "/></g></g></g><g fill="#0d4b8f" fill-opacity="1"><g transform="translate(230.024114, 108.833204)"><g><path d="M 32.375 -27.34375 C 31.71875 -27.34375 31.148438 -27.109375 30.671875 -26.640625 C 30.191406 -26.179688 29.941406 -25.625 29.921875 -24.96875 L 29.921875 -4.515625 C 29.921875 -2.742188 30.039062 -1.253906 30.28125 -0.046875 L 30.390625 0.5625 L 30.03125 0.5625 L 10.03125 -18.5 L 10.03125 -2.78125 C 10.03125 -2.113281 10.265625 -1.546875 10.734375 -1.078125 C 11.210938 -0.617188 11.78125 -0.390625 12.4375 -0.390625 L 13.1875 -0.390625 L 13.1875 0 L 1.1875 0 L 1.1875 -0.390625 L 1.90625 -0.390625 C 2.59375 -0.390625 3.171875 -0.617188 3.640625 -1.078125 C 4.117188 -1.546875 4.359375 -2.125 4.359375 -2.8125 L 4.359375 -23.375 C 4.359375 -25.125 4.238281 -26.578125 4 -27.734375 L 3.921875 -28.328125 L 4.28125 -28.328125 L 24.296875 -9.265625 L 24.296875 -24.921875 C 24.265625 -25.609375 24.007812 -26.179688 23.53125 -26.640625 C 23.0625 -27.109375 22.492188 -27.34375 21.828125 -27.34375 L 21.125 -27.34375 L 21.125 -27.734375 L 33.125 -27.734375 L 33.125 -27.34375 Z M 32.375 -27.34375 "/></g></g></g><g fill="#0d4b8f" fill-opacity="1"><g transform="translate(264.30245, 108.833204)"><g><path d="M 16.203125 -26.109375 L 16.203125 -2.859375 C 16.234375 -2.171875 16.492188 -1.585938 16.984375 -1.109375 C 17.472656 -0.628906 18.0625 -0.390625 18.75 -0.390625 L 19.21875 -0.390625 L 19.25 0 L 7.21875 0 L 7.21875 -0.390625 L 7.734375 -0.390625 C 8.390625 -0.390625 8.960938 -0.628906 9.453125 -1.109375 C 9.941406 -1.585938 10.210938 -2.15625 10.265625 -2.8125 L 10.265625 -26.109375 L 4.90625 -26.109375 C 3.695312 -26.085938 2.734375 -25.707031 2.015625 -24.96875 C 1.304688 -24.226562 0.953125 -23.265625 0.953125 -22.078125 L 0.953125 -21.59375 L 0.5625 -21.59375 L 0.5625 -28.484375 C 0.925781 -28.328125 1.585938 -28.171875 2.546875 -28.015625 C 3.515625 -27.859375 4.410156 -27.78125 5.234375 -27.78125 L 21.203125 -27.78125 C 22.492188 -27.800781 23.546875 -27.90625 24.359375 -28.09375 C 25.179688 -28.28125 25.6875 -28.410156 25.875 -28.484375 L 25.875 -21.59375 L 25.484375 -21.59375 L 25.484375 -22.078125 C 25.484375 -23.265625 25.125 -24.226562 24.40625 -24.96875 C 23.695312 -25.707031 22.734375 -26.085938 21.515625 -26.109375 Z M 16.203125 -26.109375 "/></g></g></g><g fill="#0d4b8f" fill-opacity="1"><g transform="translate(290.694793, 108.833204)"><g><path d="M 29.25 -0.390625 L 29.609375 -0.390625 L 29.609375 0 L 16.96875 0 L 16.96875 -0.390625 L 17.328125 -0.390625 C 17.898438 -0.390625 18.328125 -0.566406 18.609375 -0.921875 C 18.890625 -1.285156 19.03125 -1.625 19.03125 -1.9375 C 19.03125 -2.257812 18.960938 -2.578125 18.828125 -2.890625 L 16.890625 -7.765625 L 7.609375 -7.765625 L 5.5625 -2.890625 C 5.425781 -2.546875 5.359375 -2.222656 5.359375 -1.921875 C 5.359375 -1.617188 5.492188 -1.285156 5.765625 -0.921875 C 6.046875 -0.566406 6.488281 -0.390625 7.09375 -0.390625 L 7.421875 -0.390625 L 7.421875 0 L -1.0625 0 L -1.0625 -0.390625 L -0.703125 -0.390625 C -0.0976562 -0.390625 0.503906 -0.570312 1.109375 -0.9375 C 1.722656 -1.3125 2.226562 -1.867188 2.625 -2.609375 L 11.78125 -23.34375 C 13.019531 -25.957031 13.675781 -27.6875 13.75 -28.53125 L 14.109375 -28.53125 L 25.875 -2.6875 C 26.28125 -1.925781 26.785156 -1.351562 27.390625 -0.96875 C 27.992188 -0.582031 28.613281 -0.390625 29.25 -0.390625 Z M 8.28125 -9.4375 L 16.21875 -9.4375 L 12.375 -19.171875 Z M 8.28125 -9.4375 "/></g></g></g><g fill="#0d4b8f" fill-opacity="1"><g transform="translate(319.06855, 108.833204)"><g><path d="M 2.171875 -0.390625 C 2.859375 -0.390625 3.445312 -0.632812 3.9375 -1.125 C 4.425781 -1.613281 4.6875 -2.203125 4.71875 -2.890625 L 4.71875 -24.890625 C 4.6875 -25.578125 4.425781 -26.15625 3.9375 -26.625 C 3.445312 -27.101562 2.859375 -27.34375 2.171875 -27.34375 L 1.671875 -27.34375 L 1.671875 -27.734375 L 13.703125 -27.734375 L 13.671875 -27.34375 L 13.1875 -27.34375 C 12.507812 -27.34375 11.914062 -27.101562 11.40625 -26.625 C 10.90625 -26.15625 10.65625 -25.578125 10.65625 -24.890625 L 10.65625 -2.890625 C 10.65625 -2.203125 10.90625 -1.613281 11.40625 -1.125 C 11.914062 -0.632812 12.507812 -0.390625 13.1875 -0.390625 L 13.671875 -0.390625 L 13.703125 0 L 1.671875 0 L 1.671875 -0.390625 Z M 2.171875 -0.390625 "/></g></g></g><g fill="#0d4b8f" fill-opacity="1"><g transform="translate(334.365028, 108.833204)"><g><path d="M 32.375 -27.34375 C 31.71875 -27.34375 31.148438 -27.109375 30.671875 -26.640625 C 30.191406 -26.179688 29.941406 -25.625 29.921875 -24.96875 L 29.921875 -4.515625 C 29.921875 -2.742188 30.039062 -1.253906 30.28125 -0.046875 L 30.390625 0.5625 L 30.03125 0.5625 L 10.03125 -18.5 L 10.03125 -2.78125 C 10.03125 -2.113281 10.265625 -1.546875 10.734375 -1.078125 C 11.210938 -0.617188 11.78125 -0.390625 12.4375 -0.390625 L 13.1875 -0.390625 L 13.1875 0 L 1.1875 0 L 1.1875 -0.390625 L 1.90625 -0.390625 C 2.59375 -0.390625 3.171875 -0.617188 3.640625 -1.078125 C 4.117188 -1.546875 4.359375 -2.125 4.359375 -2.8125 L 4.359375 -23.375 C 4.359375 -25.125 4.238281 -26.578125 4 -27.734375 L 3.921875 -28.328125 L 4.28125 -28.328125 L 24.296875 -9.265625 L 24.296875 -24.921875 C 24.265625 -25.609375 24.007812 -26.179688 23.53125 -26.640625 C 23.0625 -27.109375 22.492188 -27.34375 21.828125 -27.34375 L 21.125 -27.34375 L 21.125 -27.734375 L 33.125 -27.734375 L 33.125 -27.34375 Z M 32.375 -27.34375 "/></g></g></g><g fill="#0d4b8f" fill-opacity="1"><g transform="translate(368.643364, 108.833204)"><g/></g></g><g fill="#0d4b8f" fill-opacity="1"><g transform="translate(378.550404, 108.833204)"><g><path d="M 33.84375 5.515625 C 36.582031 5.515625 38.800781 4.972656 40.5 3.890625 L 40.78125 4.203125 C 38.5 7.347656 35.671875 9.09375 32.296875 9.4375 C 31.578125 9.507812 30.957031 9.546875 30.4375 9.546875 C 29.925781 9.546875 29.332031 9.523438 28.65625 9.484375 C 27.988281 9.453125 27.046875 9.273438 25.828125 8.953125 C 24.617188 8.640625 23.550781 8.316406 22.625 7.984375 C 21.695312 7.648438 20.625 7.210938 19.40625 6.671875 C 18.195312 6.128906 17.195312 5.65625 16.40625 5.25 C 15.613281 4.84375 14.664062 4.351562 13.5625 3.78125 C 12.46875 3.21875 11.507812 2.738281 10.6875 2.34375 C 9.875 1.945312 9.085938 1.601562 8.328125 1.3125 C 6.160156 0.4375 3.941406 0 1.671875 0 L 1.671875 -0.390625 L 2.171875 -0.390625 C 2.859375 -0.390625 3.445312 -0.628906 3.9375 -1.109375 C 4.425781 -1.585938 4.6875 -2.179688 4.71875 -2.890625 L 4.71875 -24.84375 C 4.6875 -25.5625 4.425781 -26.15625 3.9375 -26.625 C 3.445312 -27.101562 2.859375 -27.34375 2.171875 -27.34375 L 1.671875 -27.34375 L 1.671875 -27.734375 L 13.703125 -27.734375 L 13.671875 -27.34375 L 13.28125 -27.34375 C 12.269531 -27.34375 11.515625 -26.929688 11.015625 -26.109375 C 10.773438 -25.742188 10.65625 -25.320312 10.65625 -24.84375 L 10.65625 -1.859375 C 10.65625 -0.992188 10.828125 -0.394531 11.171875 -0.0625 C 11.515625 0.269531 11.898438 0.503906 12.328125 0.640625 C 22.253906 3.890625 29.425781 5.515625 33.84375 5.515625 Z M 33.84375 5.515625 "/></g></g></g><g fill="#0d4b8f" fill-opacity="1"><g transform="translate(395.471625, 108.833204)"><g><path d="M 2.171875 -0.390625 C 2.859375 -0.390625 3.445312 -0.632812 3.9375 -1.125 C 4.425781 -1.613281 4.6875 -2.203125 4.71875 -2.890625 L 4.71875 -24.96875 C 4.632812 -25.882812 4.195312 -26.570312 3.40625 -27.03125 C 3.007812 -27.238281 2.597656 -27.34375 2.171875 -27.34375 L 1.671875 -27.34375 L 1.671875 -27.734375 L 16.84375 -27.734375 C 17.65625 -27.734375 18.550781 -27.8125 19.53125 -27.96875 C 20.507812 -28.132812 21.195312 -28.296875 21.59375 -28.453125 L 21.59375 -21.515625 L 21.203125 -21.515625 L 21.203125 -21.984375 C 21.203125 -23.179688 20.847656 -24.140625 20.140625 -24.859375 C 19.441406 -25.585938 18.5 -25.976562 17.3125 -26.03125 L 10.65625 -26.03125 L 10.65625 -14.5 L 15.890625 -14.5 C 16.867188 -14.53125 17.671875 -14.867188 18.296875 -15.515625 C 18.929688 -16.160156 19.25 -16.957031 19.25 -17.90625 L 19.25 -18.265625 L 19.65625 -18.265625 L 19.65625 -9.109375 L 19.25 -9.109375 L 19.25 -9.4375 C 19.25 -10.75 18.722656 -11.722656 17.671875 -12.359375 C 17.140625 -12.648438 16.554688 -12.8125 15.921875 -12.84375 L 10.65625 -12.84375 L 10.65625 -1.703125 L 15.84375 -1.703125 C 17.78125 -1.703125 19.398438 -2.253906 20.703125 -3.359375 C 22.015625 -4.472656 22.984375 -6.046875 23.609375 -8.078125 L 24.015625 -8.078125 L 22.1875 0 L 1.671875 0 L 1.671875 -0.390625 Z M 2.171875 -0.390625 "/></g></g></g><g fill="#0d4b8f" fill-opacity="1"><g transform="translate(420.476991, 108.833204)"><g><path d="M 29.25 -0.390625 L 29.609375 -0.390625 L 29.609375 0 L 16.96875 0 L 16.96875 -0.390625 L 17.328125 -0.390625 C 17.898438 -0.390625 18.328125 -0.566406 18.609375 -0.921875 C 18.890625 -1.285156 19.03125 -1.625 19.03125 -1.9375 C 19.03125 -2.257812 18.960938 -2.578125 18.828125 -2.890625 L 16.890625 -7.765625 L 7.609375 -7.765625 L 5.5625 -2.890625 C 5.425781 -2.546875 5.359375 -2.222656 5.359375 -1.921875 C 5.359375 -1.617188 5.492188 -1.285156 5.765625 -0.921875 C 6.046875 -0.566406 6.488281 -0.390625 7.09375 -0.390625 L 7.421875 -0.390625 L 7.421875 0 L -1.0625 0 L -1.0625 -0.390625 L -0.703125 -0.390625 C -0.0976562 -0.390625 0.503906 -0.570312 1.109375 -0.9375 C 1.722656 -1.3125 2.226562 -1.867188 2.625 -2.609375 L 11.78125 -23.34375 C 13.019531 -25.957031 13.675781 -27.6875 13.75 -28.53125 L 14.109375 -28.53125 L 25.875 -2.6875 C 26.28125 -1.925781 26.785156 -1.351562 27.390625 -0.96875 C 27.992188 -0.582031 28.613281 -0.390625 29.25 -0.390625 Z M 8.28125 -9.4375 L 16.21875 -9.4375 L 12.375 -19.171875 Z M 8.28125 -9.4375 "/></g></g></g><g fill="#0d4b8f" fill-opacity="1"><g transform="translate(448.850747, 108.833204)"><g><path d="M 10.65625 -26.03125 L 10.65625 -14.5 L 15.890625 -14.5 C 16.867188 -14.53125 17.671875 -14.859375 18.296875 -15.484375 C 18.929688 -16.117188 19.25 -16.925781 19.25 -17.90625 L 19.25 -18.265625 L 19.65625 -18.265625 L 19.65625 -9.109375 L 19.25 -9.109375 L 19.25 -9.4375 C 19.25 -10.40625 18.9375 -11.207031 18.3125 -11.84375 C 17.695312 -12.476562 16.898438 -12.8125 15.921875 -12.84375 L 10.65625 -12.84375 L 10.65625 -2.890625 C 10.65625 -1.910156 11.078125 -1.1875 11.921875 -0.71875 C 12.316406 -0.5 12.738281 -0.390625 13.1875 -0.390625 L 13.671875 -0.390625 L 13.703125 0 L 1.671875 0 L 1.671875 -0.390625 L 2.171875 -0.390625 C 2.859375 -0.390625 3.445312 -0.632812 3.9375 -1.125 C 4.425781 -1.613281 4.6875 -2.203125 4.71875 -2.890625 L 4.71875 -24.96875 C 4.664062 -25.625 4.394531 -26.179688 3.90625 -26.640625 C 3.414062 -27.109375 2.835938 -27.34375 2.171875 -27.34375 L 1.671875 -27.34375 L 1.671875 -27.734375 L 16.84375 -27.734375 C 18.132812 -27.734375 19.203125 -27.832031 20.046875 -28.03125 C 20.890625 -28.226562 21.40625 -28.367188 21.59375 -28.453125 L 21.59375 -21.75 L 21.203125 -21.75 L 21.203125 -22.15625 C 21.203125 -23.3125 20.863281 -24.238281 20.1875 -24.9375 C 19.507812 -25.644531 18.59375 -26.007812 17.4375 -26.03125 Z M 10.65625 -26.03125 "/></g></g></g></svg>