<svg xmlns="http://www.w3.org/2000/svg" xmlns:xlink="http://www.w3.org/1999/xlink" width="1600" zoomAndPan="magnify" viewBox="0 0 1200 749.999995" height="1000" preserveAspectRatio="xMidYMid meet" version="1.0"><defs><clipPath id="d77a1d5bed"><path d="M 135.15625 96.09375 L 1065 96.09375 L 1065 654 L 135.15625 654 Z M 135.15625 96.09375 " clip-rule="nonzero"/></clipPath><clipPath id="3a26b845ba"><path d="M 135.15625 152.34375 L 135.15625 597.65625 C 135.15625 628.722656 160.339844 653.90625 191.40625 653.90625 L 1008.59375 653.90625 C 1039.660156 653.90625 1064.84375 628.722656 1064.84375 597.65625 L 1064.84375 152.34375 C 1064.84375 121.277344 1039.660156 96.09375 1008.59375 96.09375 L 191.40625 96.09375 C 160.339844 96.09375 135.15625 121.277344 135.15625 152.34375 Z M 135.15625 152.34375 " clip-rule="nonzero"/></clipPath><clipPath id="aeb3f93645"><path d="M 283 282 L 898 282 L 898 469 L 283 469 Z M 283 282 " clip-rule="nonzero"/></clipPath><clipPath id="eab4c971f6"><path d="M 135.15625 152.34375 L 135.15625 597.65625 C 135.15625 628.722656 160.339844 653.90625 191.40625 653.90625 L 1008.59375 653.90625 C 1039.660156 653.90625 1064.84375 628.722656 1064.84375 597.65625 L 1064.84375 152.34375 C 1064.84375 121.277344 1039.660156 96.09375 1008.59375 96.09375 L 191.40625 96.09375 C 160.339844 96.09375 135.15625 121.277344 135.15625 152.34375 Z M 135.15625 152.34375 " clip-rule="nonzero"/></clipPath></defs><g clip-path="url(#d77a1d5bed)"><g clip-path="url(#3a26b845ba)"><path fill="#286cb4" d="M 172.355469 96.09375 L 1027.953125 96.09375 C 1029.171875 96.09375 1030.386719 96.152344 1031.601562 96.273438 C 1032.8125 96.390625 1034.015625 96.570312 1035.210938 96.808594 C 1036.40625 97.046875 1037.585938 97.34375 1038.753906 97.695312 C 1039.917969 98.050781 1041.066406 98.460938 1042.191406 98.925781 C 1043.316406 99.390625 1044.417969 99.914062 1045.492188 100.488281 C 1046.566406 101.0625 1047.609375 101.6875 1048.621094 102.363281 C 1049.636719 103.039062 1050.613281 103.765625 1051.554688 104.539062 C 1052.496094 105.3125 1053.398438 106.128906 1054.257812 106.988281 C 1055.121094 107.851562 1055.9375 108.753906 1056.710938 109.695312 C 1057.484375 110.636719 1058.207031 111.613281 1058.886719 112.625 C 1059.5625 113.640625 1060.1875 114.683594 1060.761719 115.757812 C 1061.335938 116.832031 1061.855469 117.933594 1062.324219 119.058594 C 1062.789062 120.183594 1063.199219 121.328125 1063.550781 122.496094 C 1063.90625 123.660156 1064.203125 124.839844 1064.441406 126.035156 C 1064.675781 127.230469 1064.855469 128.433594 1064.976562 129.648438 C 1065.09375 130.859375 1065.15625 132.074219 1065.15625 133.292969 L 1065.15625 616.890625 C 1065.15625 618.109375 1065.09375 619.324219 1064.976562 620.539062 C 1064.855469 621.75 1064.675781 622.953125 1064.441406 624.148438 C 1064.203125 625.34375 1063.90625 626.523438 1063.550781 627.691406 C 1063.199219 628.855469 1062.789062 630.003906 1062.324219 631.128906 C 1061.855469 632.253906 1061.335938 633.351562 1060.761719 634.425781 C 1060.1875 635.503906 1059.5625 636.546875 1058.886719 637.558594 C 1058.207031 638.570312 1057.484375 639.550781 1056.710938 640.492188 C 1055.9375 641.433594 1055.121094 642.335938 1054.257812 643.195312 C 1053.398438 644.058594 1052.496094 644.875 1051.554688 645.648438 C 1050.613281 646.421875 1049.636719 647.144531 1048.621094 647.824219 C 1047.609375 648.5 1046.566406 649.125 1045.492188 649.699219 C 1044.417969 650.273438 1043.316406 650.792969 1042.191406 651.261719 C 1041.066406 651.726562 1039.917969 652.136719 1038.753906 652.488281 C 1037.585938 652.84375 1036.40625 653.140625 1035.210938 653.375 C 1034.015625 653.613281 1032.8125 653.792969 1031.601562 653.914062 C 1030.386719 654.03125 1029.171875 654.089844 1027.953125 654.089844 L 172.355469 654.089844 C 171.136719 654.089844 169.921875 654.03125 168.707031 653.914062 C 167.496094 653.792969 166.292969 653.613281 165.097656 653.375 C 163.902344 653.140625 162.722656 652.84375 161.554688 652.488281 C 160.390625 652.136719 159.246094 651.726562 158.117188 651.261719 C 156.992188 650.792969 155.894531 650.273438 154.820312 649.699219 C 153.746094 649.125 152.699219 648.5 151.6875 647.820312 C 150.675781 647.144531 149.695312 646.421875 148.753906 645.648438 C 147.8125 644.875 146.910156 644.058594 146.050781 643.195312 C 145.1875 642.335938 144.371094 641.433594 143.597656 640.492188 C 142.824219 639.550781 142.101562 638.570312 141.425781 637.558594 C 140.746094 636.546875 140.121094 635.503906 139.546875 634.425781 C 138.972656 633.351562 138.453125 632.253906 137.984375 631.128906 C 137.519531 630 137.109375 628.855469 136.757812 627.691406 C 136.402344 626.523438 136.105469 625.34375 135.871094 624.148438 C 135.632812 622.953125 135.453125 621.75 135.332031 620.539062 C 135.214844 619.324219 135.15625 618.109375 135.15625 616.890625 L 135.15625 133.292969 C 135.15625 132.074219 135.214844 130.859375 135.332031 129.648438 C 135.453125 128.433594 135.632812 127.230469 135.871094 126.035156 C 136.105469 124.839844 136.402344 123.660156 136.757812 122.496094 C 137.109375 121.328125 137.519531 120.183594 137.984375 119.058594 C 138.453125 117.933594 138.972656 116.832031 139.546875 115.757812 C 140.121094 114.683594 140.746094 113.640625 141.425781 112.625 C 142.101562 111.613281 142.824219 110.636719 143.597656 109.695312 C 144.371094 108.753906 145.1875 107.851562 146.050781 106.988281 C 146.910156 106.128906 147.8125 105.3125 148.753906 104.539062 C 149.695312 103.765625 150.675781 103.039062 151.6875 102.363281 C 152.699219 101.6875 153.746094 101.0625 154.820312 100.488281 C 155.894531 99.914062 156.992188 99.390625 158.117188 98.925781 C 159.246094 98.460938 160.390625 98.050781 161.554688 97.695312 C 162.722656 97.34375 163.902344 97.046875 165.097656 96.808594 C 166.292969 96.570312 167.496094 96.390625 168.707031 96.273438 C 169.921875 96.152344 171.136719 96.09375 172.355469 96.09375 Z M 172.355469 96.09375 " fill-opacity="1" fill-rule="evenodd"/></g></g><g clip-path="url(#aeb3f93645)"><g clip-path="url(#eab4c971f6)"><path fill="#ffffff" d="M 601.398438 341.554688 C 601.046875 367.464844 626.003906 381.925781 644.804688 390.519531 C 664.117188 399.339844 670.605469 404.996094 670.535156 412.882812 C 670.386719 424.957031 655.125 430.285156 640.839844 430.492188 C 615.921875 430.855469 601.433594 424.179688 589.914062 419.128906 L 580.9375 458.546875 C 592.496094 463.542969 613.894531 467.902344 636.085938 468.09375 C 688.171875 468.09375 722.25 443.964844 722.4375 406.554688 C 722.636719 359.078125 652.453125 356.449219 652.929688 335.226562 C 653.097656 328.792969 659.640625 321.925781 673.980469 320.179688 C 681.074219 319.296875 700.667969 318.621094 722.878906 328.222656 L 731.597656 290.082031 C 719.652344 286.003906 704.300781 282.09375 685.1875 282.09375 C 636.160156 282.09375 601.671875 306.550781 601.398438 341.554688 M 815.367188 285.378906 C 805.855469 285.378906 797.839844 290.585938 794.261719 298.574219 L 719.855469 465.289062 L 771.90625 465.289062 L 782.265625 438.429688 L 845.871094 438.429688 L 851.878906 465.289062 L 897.753906 465.289062 L 857.722656 285.378906 L 815.367188 285.378906 M 822.648438 333.980469 L 837.667969 401.539062 L 796.53125 401.539062 L 822.648438 333.980469 M 538.289062 285.378906 L 497.261719 465.289062 L 546.859375 465.289062 L 587.867188 285.378906 L 538.289062 285.378906 M 464.914062 285.378906 L 413.289062 407.832031 L 392.40625 303.714844 C 389.953125 292.089844 380.277344 285.378906 369.53125 285.378906 L 285.132812 285.378906 L 283.953125 290.601562 C 301.28125 294.132812 320.964844 299.820312 332.890625 305.910156 C 340.1875 309.628906 342.269531 312.878906 344.667969 321.71875 L 384.222656 465.289062 L 436.640625 465.289062 L 517 285.378906 L 464.914062 285.378906 " fill-opacity="1" fill-rule="nonzero"/></g></g></svg>