<svg xmlns="http://www.w3.org/2000/svg" xmlns:xlink="http://www.w3.org/1999/xlink" width="1600" zoomAndPan="magnify" viewBox="0 0 1200 749.999995" height="1000" preserveAspectRatio="xMidYMid meet" version="1.0"><defs><clipPath id="d73d60f4ec"><path d="M 103.851562 77.3125 L 1096.101562 77.3125 L 1096.101562 672.8125 L 103.851562 672.8125 Z M 103.851562 77.3125 " clip-rule="nonzero"/></clipPath></defs><g clip-path="url(#d73d60f4ec)"><path fill="#286cb4" d="M 143.546875 77.3125 L 1056.40625 77.3125 C 1057.707031 77.3125 1059.003906 77.375 1060.296875 77.5 C 1061.589844 77.628906 1062.875 77.820312 1064.148438 78.074219 C 1065.421875 78.328125 1066.683594 78.644531 1067.925781 79.019531 C 1069.171875 79.398438 1070.394531 79.835938 1071.59375 80.332031 C 1072.796875 80.832031 1073.96875 81.386719 1075.113281 82 C 1076.261719 82.609375 1077.375 83.277344 1078.457031 84 C 1079.535156 84.722656 1080.578125 85.496094 1081.585938 86.320312 C 1082.589844 87.148438 1083.550781 88.019531 1084.46875 88.9375 C 1085.390625 89.859375 1086.261719 90.820312 1087.085938 91.824219 C 1087.910156 92.832031 1088.683594 93.875 1089.40625 94.953125 C 1090.128906 96.035156 1090.796875 97.148438 1091.410156 98.296875 C 1092.019531 99.441406 1092.578125 100.617188 1093.074219 101.816406 C 1093.570312 103.019531 1094.007812 104.242188 1094.386719 105.484375 C 1094.761719 106.730469 1095.078125 107.992188 1095.332031 109.265625 C 1095.585938 110.539062 1095.777344 111.824219 1095.902344 113.121094 C 1096.03125 114.414062 1096.09375 115.710938 1096.09375 117.011719 L 1096.09375 633.109375 C 1096.09375 634.410156 1096.03125 635.707031 1095.902344 637 C 1095.777344 638.296875 1095.585938 639.582031 1095.332031 640.855469 C 1095.078125 642.128906 1094.761719 643.390625 1094.386719 644.636719 C 1094.007812 645.878906 1093.570312 647.101562 1093.074219 648.304688 C 1092.578125 649.503906 1092.019531 650.679688 1091.410156 651.824219 C 1090.796875 652.972656 1090.128906 654.085938 1089.40625 655.167969 C 1088.683594 656.246094 1087.910156 657.289062 1087.085938 658.296875 C 1086.261719 659.300781 1085.390625 660.261719 1084.46875 661.183594 C 1083.550781 662.101562 1082.589844 662.972656 1081.585938 663.800781 C 1080.578125 664.625 1079.535156 665.398438 1078.457031 666.121094 C 1077.375 666.84375 1076.261719 667.511719 1075.113281 668.121094 C 1073.96875 668.734375 1072.796875 669.289062 1071.59375 669.789062 C 1070.394531 670.285156 1069.171875 670.722656 1067.925781 671.101562 C 1066.683594 671.476562 1065.421875 671.792969 1064.148438 672.046875 C 1062.875 672.300781 1061.589844 672.492188 1060.296875 672.621094 C 1059.003906 672.746094 1057.707031 672.808594 1056.40625 672.808594 L 143.546875 672.808594 C 142.246094 672.808594 140.949219 672.746094 139.65625 672.621094 C 138.363281 672.492188 137.078125 672.300781 135.804688 672.046875 C 134.527344 671.792969 133.269531 671.476562 132.023438 671.101562 C 130.78125 670.722656 129.558594 670.285156 128.359375 669.789062 C 127.15625 669.289062 125.984375 668.734375 124.835938 668.121094 C 123.691406 667.511719 122.578125 666.84375 121.496094 666.121094 C 120.414062 665.398438 119.371094 664.625 118.367188 663.800781 C 117.363281 662.972656 116.402344 662.101562 115.480469 661.183594 C 114.5625 660.261719 113.691406 659.300781 112.867188 658.296875 C 112.042969 657.289062 111.269531 656.246094 110.546875 655.167969 C 109.824219 654.085938 109.15625 652.972656 108.542969 651.824219 C 107.929688 650.679688 107.375 649.503906 106.878906 648.304688 C 106.378906 647.101562 105.941406 645.878906 105.566406 644.636719 C 105.1875 643.390625 104.871094 642.128906 104.621094 640.855469 C 104.367188 639.582031 104.175781 638.296875 104.046875 637 C 103.921875 635.707031 103.855469 634.410156 103.855469 633.109375 L 103.855469 117.011719 C 103.855469 115.710938 103.921875 114.414062 104.046875 113.121094 C 104.175781 111.824219 104.367188 110.539062 104.621094 109.265625 C 104.871094 107.992188 105.1875 106.730469 105.566406 105.484375 C 105.941406 104.242188 106.378906 103.019531 106.878906 101.816406 C 107.375 100.617188 107.929688 99.441406 108.542969 98.296875 C 109.15625 97.148438 109.824219 96.035156 110.546875 94.953125 C 111.269531 93.875 112.042969 92.832031 112.867188 91.824219 C 113.691406 90.820312 114.5625 89.859375 115.480469 88.9375 C 116.402344 88.019531 117.363281 87.148438 118.367188 86.320312 C 119.371094 85.496094 120.414062 84.722656 121.496094 84 C 122.578125 83.277344 123.691406 82.609375 124.835938 82 C 125.984375 81.386719 127.15625 80.832031 128.359375 80.332031 C 129.558594 79.835938 130.78125 79.398438 132.023438 79.019531 C 133.269531 78.644531 134.527344 78.328125 135.804688 78.074219 C 137.078125 77.820312 138.363281 77.628906 139.65625 77.5 C 140.949219 77.375 142.246094 77.3125 143.546875 77.3125 Z M 143.546875 77.3125 " fill-opacity="1" fill-rule="evenodd"/></g><path fill="#ffffff" d="M 601.300781 339.269531 C 600.929688 366.921875 627.554688 382.351562 647.613281 391.523438 C 668.222656 400.9375 675.144531 406.976562 675.066406 415.390625 C 674.90625 428.277344 658.625 433.960938 643.382812 434.183594 C 616.796875 434.570312 601.339844 427.445312 589.050781 422.054688 L 579.472656 464.121094 C 591.804688 469.457031 614.632812 474.109375 638.3125 474.3125 C 693.882812 474.3125 730.242188 448.5625 730.441406 408.636719 C 730.65625 357.96875 655.773438 355.164062 656.285156 332.515625 C 656.460938 325.648438 663.441406 318.320312 678.742188 316.457031 C 686.3125 315.515625 707.214844 314.792969 730.914062 325.039062 L 740.214844 284.339844 C 727.472656 279.980469 711.089844 275.8125 690.699219 275.8125 C 638.390625 275.8125 601.597656 301.910156 601.300781 339.269531 M 829.589844 279.316406 C 819.445312 279.316406 810.890625 284.875 807.074219 293.402344 L 727.6875 471.320312 L 783.222656 471.320312 L 794.273438 442.65625 L 862.136719 442.65625 L 868.546875 471.320312 L 917.492188 471.320312 L 874.78125 279.316406 L 829.589844 279.316406 M 837.359375 331.183594 L 853.386719 403.285156 L 809.492188 403.285156 L 837.359375 331.183594 M 533.96875 279.316406 L 490.195312 471.320312 L 543.113281 471.320312 L 586.867188 279.316406 L 533.96875 279.316406 M 455.683594 279.316406 L 400.601562 410.003906 L 378.324219 298.882812 C 375.707031 286.480469 365.382812 279.316406 353.917969 279.316406 L 263.875 279.316406 L 262.613281 284.890625 C 281.101562 288.65625 302.101562 294.730469 314.824219 301.226562 C 322.613281 305.195312 324.835938 308.667969 327.390625 318.097656 L 369.589844 471.320312 L 425.519531 471.320312 L 511.257812 279.316406 L 455.683594 279.316406 " fill-opacity="1" fill-rule="nonzero"/></svg>