<?xml version="1.0" encoding="utf-8"?>
<!-- Generator: Adobe Illustrator 20.0.0, SVG Export Plug-In . SVG Version: 6.00 Build 0)  -->
<svg version="1.1" id="Layer_1" xmlns="http://www.w3.org/2000/svg" xmlns:xlink="http://www.w3.org/1999/xlink" x="0px" y="0px"
	 width="355.4px" height="39px" viewBox="0 0 355.4 39" style="enable-background:new 0 0 355.4 39;" xml:space="preserve">
<style type="text/css">
	.st0{fill-rule:evenodd;clip-rule:evenodd;fill:#828282;}
	.st1{fill-rule:evenodd;clip-rule:evenodd;fill:#6400DC;}
</style>
<g>
	<path class="st0" d="M221.1,17.6h10.8c3.5,0,6.5-2.9,6.5-6.5c0-3.5-2.9-6.5-6.5-6.5h-10.8V17.6L221.1,17.6z M238.5,18.8
		c3.2,1.7,5.3,5.1,5.3,8.9c0,5.6-4.6,10.1-10.1,10.1h-16.3c0-12.3,0-24.6,0-36.9h14.5c5.6,0,10.1,4.6,10.1,10.1
		C242.1,14.1,240.8,16.9,238.5,18.8L238.5,18.8z M221.1,21.3v12.9h12.6c3.5,0,6.5-2.9,6.5-6.5c0-3.5-2.9-6.5-6.5-6.5H221.1z"/>
	<polygon class="st0" points="288.8,1 292.5,1 314.7,31.6 314.7,1 318.3,1 318.3,37.9 314.7,37.9 292.5,7.3 292.5,37.9 288.8,37.9 	
		"/>
	<path class="st0" d="M265,6l7.4,18.5h-14.8L265,6L265,6z M273.9,28.1l3.9,9.7h4L267,1h-4l-14.7,36.9h4l3.9-9.7H273.9z"/>
	<path class="st0" d="M105.6,8c-6.3,0-11.4,5.1-11.4,11.4c0,6.3,5.1,11.4,11.4,11.4c6.3,0,11.4-5.1,11.4-11.4
		C117,13.1,111.9,8,105.6,8L105.6,8z M105.6,0c10.7,0,19.4,8.7,19.4,19.4c0,10.7-8.7,19.4-19.4,19.4c-10.7,0-19.4-8.7-19.4-19.4
		C86.2,8.7,94.9,0,105.6,0z"/>
	<path class="st0" d="M187.9,8c-6.3,0-11.4,5.1-11.4,11.4c0,6.3,5.1,11.4,11.4,11.4c6.3,0,11.4-5.1,11.4-11.4
		C199.3,13.1,194.2,8,187.9,8L187.9,8z M199.3,3.7V1h7.6v36.9h-7.6v-2.7c-3.3,2.4-7.3,3.7-11.4,3.7c-10.7,0-19.4-8.7-19.4-19.4
		c0-10.7,8.7-19.4,19.4-19.4C192.1,0,196,1.3,199.3,3.7z"/>
	<path class="st0" d="M140.2,19.4c0,6.3,5.1,11.4,11.4,11.4c2.8,0,5.4-1,7.5-2.8l0.3-0.2l4.1,7.1c-3.4,2.6-7.5,4-11.8,4
		c-10.7,0-19.4-8.7-19.4-19.4c0-10.7,8.7-19.4,19.4-19.4c4.3,0,8.4,1.4,11.8,4l-4.1,7.1l-0.3-0.2C157,9,154.3,8,151.6,8
		C145.3,8,140.2,13.1,140.2,19.4z"/>
	<path class="st1" d="M66.6,1l9.1,15.8l7.2-12.5c0.4-0.7,0.4-1.5,0-2.2C82.5,1.4,81.8,1,81,1H66.6L66.6,1z M41.8,4.3
		c-0.4-0.7-0.4-1.5,0-2.2C42.2,1.4,42.9,1,43.7,1h10.2l15.4,26.8c-1.7,2.9-3.4,5.9-5.1,8.8c-0.4,0.7-1.1,1.1-1.9,1.1
		c-0.8,0-1.5-0.4-1.9-1.1C54.2,25.8,48,15.1,41.8,4.3z"/>
	<path class="st0" d="M9.1,14.6h20.6c-1.8-3.8-5.8-6.5-10.3-6.5C14.9,8.1,11,10.7,9.1,14.6L9.1,14.6z M36.9,33.7
		C33,37,27.7,39,21.9,39C10.9,39,0,31.1,0,19.5C0,8.7,8.7,0,19.4,0c10.7,0,19.4,8.7,19.4,19.4c0,1.1-0.1,2.1-0.3,3.1
		c-10,0-19.9,0-29.9,0c1.6,4.8,6.9,8.3,13.2,8.3c4.4,0,8.3-1.7,10.8-4.3L36.9,33.7z"/>
	<polygon class="st0" points="327.7,1 331.3,1 331.3,17.6 336.2,17.6 338.8,17.6 350.8,1 355.4,1 342,19.4 355.4,37.9 350.8,37.9 
		338.8,21.3 336.2,21.3 331.3,21.3 331.3,37.9 327.7,37.9 	"/>
</g>
</svg>
