<svg xmlns="http://www.w3.org/2000/svg" xmlns:xlink="http://www.w3.org/1999/xlink" width="550" zoomAndPan="magnify" viewBox="0 0 412.5 112.499997" height="150" preserveAspectRatio="xMidYMid meet" version="1.0"><defs><g/><clipPath id="2b4612a77f"><path d="M 27.058594 35 L 38 35 L 38 54 L 27.058594 54 Z M 27.058594 35 " clip-rule="nonzero"/></clipPath><clipPath id="94ae7e6334"><path d="M 40 26 L 57.105469 26 L 57.105469 38 L 40 38 Z M 40 26 " clip-rule="nonzero"/></clipPath><clipPath id="07517d75e5"><path d="M 42 14.855469 L 53 14.855469 L 53 27 L 42 27 Z M 42 14.855469 " clip-rule="nonzero"/></clipPath><clipPath id="fe4fdf86e7"><path d="M 31 18 L 53 18 L 53 69.945312 L 31 69.945312 Z M 31 18 " clip-rule="nonzero"/></clipPath><clipPath id="51d6197add"><path d="M 129 31 L 140 31 L 140 42 L 129 42 Z M 129 31 " clip-rule="nonzero"/></clipPath><clipPath id="5c204ad53e"><path d="M 119.378906 30.144531 L 139.363281 31.511719 L 135.605469 86.476562 L 115.617188 85.109375 Z M 119.378906 30.144531 " clip-rule="nonzero"/></clipPath><clipPath id="a2384971b9"><path d="M 119.378906 30.144531 L 139.363281 31.511719 L 135.605469 86.476562 L 115.617188 85.109375 Z M 119.378906 30.144531 " clip-rule="nonzero"/></clipPath><clipPath id="cce20e0bcd"><path d="M 119.378906 30.144531 L 139.363281 31.511719 L 135.605469 86.476562 L 115.617188 85.109375 Z M 119.378906 30.144531 " clip-rule="nonzero"/></clipPath><clipPath id="81344cd70e"><path d="M 117 48 L 122 48 L 122 59 L 117 59 Z M 117 48 " clip-rule="nonzero"/></clipPath><clipPath id="8597ddfd0e"><path d="M 119.378906 30.144531 L 139.363281 31.511719 L 135.605469 86.476562 L 115.617188 85.109375 Z M 119.378906 30.144531 " clip-rule="nonzero"/></clipPath><clipPath id="6801ca804b"><path d="M 119.378906 30.144531 L 139.363281 31.511719 L 135.605469 86.476562 L 115.617188 85.109375 Z M 119.378906 30.144531 " clip-rule="nonzero"/></clipPath><clipPath id="753cf9429e"><path d="M 119.378906 30.144531 L 139.363281 31.511719 L 135.605469 86.476562 L 115.617188 85.109375 Z M 119.378906 30.144531 " clip-rule="nonzero"/></clipPath><clipPath id="861dd29e50"><path d="M 124 45 L 134 45 L 134 50 L 124 50 Z M 124 45 " clip-rule="nonzero"/></clipPath><clipPath id="4b3275377d"><path d="M 119.378906 30.144531 L 139.363281 31.511719 L 135.605469 86.476562 L 115.617188 85.109375 Z M 119.378906 30.144531 " clip-rule="nonzero"/></clipPath><clipPath id="98844304dd"><path d="M 119.378906 30.144531 L 139.363281 31.511719 L 135.605469 86.476562 L 115.617188 85.109375 Z M 119.378906 30.144531 " clip-rule="nonzero"/></clipPath><clipPath id="5fb3a163e0"><path d="M 119.378906 30.144531 L 139.363281 31.511719 L 135.605469 86.476562 L 115.617188 85.109375 Z M 119.378906 30.144531 " clip-rule="nonzero"/></clipPath><clipPath id="0c1991c188"><path d="M 117 37 L 134 37 L 134 86 L 117 86 Z M 117 37 " clip-rule="nonzero"/></clipPath><clipPath id="d1a95548a3"><path d="M 119.378906 30.144531 L 139.363281 31.511719 L 135.605469 86.476562 L 115.617188 85.109375 Z M 119.378906 30.144531 " clip-rule="nonzero"/></clipPath><clipPath id="7135ca3fd4"><path d="M 119.378906 30.144531 L 139.363281 31.511719 L 135.605469 86.476562 L 115.617188 85.109375 Z M 119.378906 30.144531 " clip-rule="nonzero"/></clipPath><clipPath id="8b48f0a6f2"><path d="M 119.378906 30.144531 L 139.363281 31.511719 L 135.605469 86.476562 L 115.617188 85.109375 Z M 119.378906 30.144531 " clip-rule="nonzero"/></clipPath><clipPath id="a27c4589d6"><path d="M 310 25.691406 L 327 25.691406 L 327 48 L 310 48 Z M 310 25.691406 " clip-rule="nonzero"/></clipPath><clipPath id="83062a3c1e"><path d="M 312 49 L 329.84375 49 L 329.84375 62 L 312 62 Z M 312 49 " clip-rule="nonzero"/></clipPath><clipPath id="ed9862cadb"><path d="M 304.804688 35 L 320 35 L 320 70.769531 L 304.804688 70.769531 Z M 304.804688 35 " clip-rule="nonzero"/></clipPath><clipPath id="76e8285d79"><path d="M 306 53 L 322 53 L 322 70.769531 L 306 70.769531 Z M 306 53 " clip-rule="nonzero"/></clipPath><clipPath id="92c5f673ea"><path d="M 362 36 L 382 36 L 382 60 L 362 60 Z M 362 36 " clip-rule="nonzero"/></clipPath><clipPath id="a3cf11aad9"><path d="M 356.324219 38.640625 L 381.203125 35.796875 L 385.183594 70.628906 L 360.300781 73.472656 Z M 356.324219 38.640625 " clip-rule="nonzero"/></clipPath><clipPath id="4363ea471b"><path d="M 356.324219 38.640625 L 381.203125 35.796875 L 385.183594 70.628906 L 360.300781 73.472656 Z M 356.324219 38.640625 " clip-rule="nonzero"/></clipPath><clipPath id="c54e103043"><path d="M 356.324219 38.640625 L 381.203125 35.796875 L 385.183594 70.628906 L 360.300781 73.472656 Z M 356.324219 38.640625 " clip-rule="nonzero"/></clipPath><clipPath id="a2777d8896"><path d="M 360 42 L 378 42 L 378 74 L 360 74 Z M 360 42 " clip-rule="nonzero"/></clipPath><clipPath id="d4a629066b"><path d="M 356.324219 38.640625 L 381.203125 35.796875 L 385.183594 70.628906 L 360.300781 73.472656 Z M 356.324219 38.640625 " clip-rule="nonzero"/></clipPath><clipPath id="4b0eb9049d"><path d="M 356.324219 38.640625 L 381.203125 35.796875 L 385.183594 70.628906 L 360.300781 73.472656 Z M 356.324219 38.640625 " clip-rule="nonzero"/></clipPath><clipPath id="8c17c86a0d"><path d="M 356.324219 38.640625 L 381.203125 35.796875 L 385.183594 70.628906 L 360.300781 73.472656 Z M 356.324219 38.640625 " clip-rule="nonzero"/></clipPath></defs><g fill="#0d4b8f" fill-opacity="1"><g transform="translate(26.868373, 88.249121)"><g><path d="M -0.734375 -13.6875 C -1.691406 -14.601562 -2.171875 -15.59375 -2.171875 -16.65625 C -2.171875 -17.46875 -1.90625 -18.179688 -1.375 -18.796875 C -0.375 -19.960938 1.019531 -20.546875 2.8125 -20.546875 L 16.625 -20.546875 C 17.476562 -20.566406 18.226562 -20.640625 18.875 -20.765625 C 19.519531 -20.890625 19.929688 -20.992188 20.109375 -21.078125 L 20.109375 -15.96875 L 19.8125 -15.96875 L 19.8125 -16.328125 C 19.8125 -17.203125 19.546875 -17.910156 19.015625 -18.453125 C 18.492188 -19.003906 17.785156 -19.289062 16.890625 -19.3125 L 12.921875 -19.3125 L 12.921875 -2.109375 C 12.960938 -1.410156 13.285156 -0.882812 13.890625 -0.53125 C 14.171875 -0.375 14.476562 -0.296875 14.8125 -0.296875 L 15.1875 -0.296875 L 15.1875 0 L 6.28125 0 L 6.28125 -0.296875 L 6.65625 -0.296875 C 7.164062 -0.296875 7.597656 -0.46875 7.953125 -0.8125 C 8.316406 -1.164062 8.507812 -1.585938 8.53125 -2.078125 L 8.53125 -19.3125 L 2.8125 -19.3125 C 2.007812 -19.3125 1.304688 -19.164062 0.703125 -18.875 C -0.523438 -18.289062 -1.140625 -17.375 -1.140625 -16.125 C -1.140625 -15.382812 -0.90625 -14.617188 -0.4375 -13.828125 Z M -0.734375 -13.6875 "/></g></g></g><g fill="#0d4b8f" fill-opacity="1"><g transform="translate(47.324178, 88.249121)"><g><path d="M 9.328125 -19.234375 L 8.0625 -19.234375 C 8.019531 -19.234375 7.988281 -19.234375 7.96875 -19.234375 L 7.96875 -2.140625 C 7.988281 -1.421875 8.300781 -0.882812 8.90625 -0.53125 C 9.195312 -0.375 9.507812 -0.296875 9.84375 -0.296875 L 10.234375 -0.296875 L 10.234375 0 L 1.3125 0 L 1.3125 -0.296875 L 1.703125 -0.296875 C 2.398438 -0.296875 2.9375 -0.597656 3.3125 -1.203125 C 3.46875 -1.472656 3.554688 -1.773438 3.578125 -2.109375 L 3.578125 -18.375 C 3.554688 -18.882812 3.363281 -19.316406 3 -19.671875 C 2.644531 -20.035156 2.210938 -20.21875 1.703125 -20.21875 L 1.3125 -20.21875 L 1.3125 -20.515625 L 11.375 -20.515625 C 13.269531 -20.515625 14.875 -20.101562 16.1875 -19.28125 C 16.84375 -18.875 17.363281 -18.300781 17.75 -17.5625 C 18.144531 -16.832031 18.34375 -16.003906 18.34375 -15.078125 C 18.34375 -14.148438 18.179688 -13.296875 17.859375 -12.515625 C 17.535156 -11.734375 17 -11.046875 16.25 -10.453125 C 15.5 -9.867188 14.597656 -9.519531 13.546875 -9.40625 C 14.679688 -9.039062 15.675781 -8.179688 16.53125 -6.828125 C 18.644531 -3.453125 20.207031 -1.441406 21.21875 -0.796875 C 21.726562 -0.484375 22.363281 -0.316406 23.125 -0.296875 L 23.125 0 L 20.25 0 C 18.59375 0 17.207031 -0.226562 16.09375 -0.6875 C 14.976562 -1.144531 14.066406 -1.929688 13.359375 -3.046875 C 13.015625 -3.617188 12.566406 -4.472656 12.015625 -5.609375 C 11.472656 -6.753906 11.113281 -7.570312 10.9375 -8.0625 C 10.40625 -9.226562 9.738281 -9.882812 8.9375 -10.03125 L 8.9375 -10.3125 L 9.84375 -10.3125 C 10.726562 -10.3125 11.503906 -10.578125 12.171875 -11.109375 C 12.847656 -11.640625 13.304688 -12.5 13.546875 -13.6875 C 13.617188 -14.09375 13.65625 -14.414062 13.65625 -14.65625 C 13.65625 -16.257812 13.332031 -17.414062 12.6875 -18.125 C 12.039062 -18.84375 11.210938 -19.210938 10.203125 -19.234375 C 10.003906 -19.234375 9.710938 -19.234375 9.328125 -19.234375 Z M 9.328125 -19.234375 "/></g></g></g><g fill="#0d4b8f" fill-opacity="1"><g transform="translate(69.186689, 88.249121)"><g><path d="M 1.609375 -0.296875 C 2.117188 -0.296875 2.550781 -0.472656 2.90625 -0.828125 C 3.269531 -1.191406 3.460938 -1.628906 3.484375 -2.140625 L 3.484375 -18.46875 C 3.429688 -19.15625 3.109375 -19.660156 2.515625 -19.984375 C 2.222656 -20.140625 1.921875 -20.21875 1.609375 -20.21875 L 1.234375 -20.21875 L 1.234375 -20.515625 L 12.453125 -20.515625 C 13.054688 -20.515625 13.71875 -20.570312 14.4375 -20.6875 C 15.164062 -20.8125 15.675781 -20.929688 15.96875 -21.046875 L 15.96875 -15.921875 L 15.6875 -15.921875 L 15.6875 -16.265625 C 15.6875 -17.148438 15.425781 -17.859375 14.90625 -18.390625 C 14.382812 -18.929688 13.6875 -19.222656 12.8125 -19.265625 L 7.890625 -19.265625 L 7.890625 -10.734375 L 11.75 -10.734375 C 12.476562 -10.742188 13.078125 -10.988281 13.546875 -11.46875 C 14.015625 -11.945312 14.25 -12.539062 14.25 -13.25 L 14.25 -13.515625 L 14.53125 -13.515625 L 14.53125 -6.734375 L 14.25 -6.734375 L 14.25 -6.96875 C 14.25 -7.945312 13.859375 -8.671875 13.078125 -9.140625 C 12.679688 -9.359375 12.25 -9.476562 11.78125 -9.5 L 7.890625 -9.5 L 7.890625 -1.265625 L 11.71875 -1.265625 C 13.144531 -1.265625 14.34375 -1.671875 15.3125 -2.484375 C 16.28125 -3.304688 17 -4.472656 17.46875 -5.984375 L 17.765625 -5.984375 L 16.421875 0 L 1.234375 0 L 1.234375 -0.296875 Z M 1.609375 -0.296875 "/></g></g></g><g fill="#0d4b8f" fill-opacity="1"><g transform="translate(87.678972, 88.249121)"><g><path d="M 1.609375 -0.296875 C 2.117188 -0.296875 2.550781 -0.472656 2.90625 -0.828125 C 3.269531 -1.191406 3.460938 -1.628906 3.484375 -2.140625 L 3.484375 -18.46875 C 3.429688 -19.15625 3.109375 -19.660156 2.515625 -19.984375 C 2.222656 -20.140625 1.921875 -20.21875 1.609375 -20.21875 L 1.234375 -20.21875 L 1.234375 -20.515625 L 12.453125 -20.515625 C 13.054688 -20.515625 13.71875 -20.570312 14.4375 -20.6875 C 15.164062 -20.8125 15.675781 -20.929688 15.96875 -21.046875 L 15.96875 -15.921875 L 15.6875 -15.921875 L 15.6875 -16.265625 C 15.6875 -17.148438 15.425781 -17.859375 14.90625 -18.390625 C 14.382812 -18.929688 13.6875 -19.222656 12.8125 -19.265625 L 7.890625 -19.265625 L 7.890625 -10.734375 L 11.75 -10.734375 C 12.476562 -10.742188 13.078125 -10.988281 13.546875 -11.46875 C 14.015625 -11.945312 14.25 -12.539062 14.25 -13.25 L 14.25 -13.515625 L 14.53125 -13.515625 L 14.53125 -6.734375 L 14.25 -6.734375 L 14.25 -6.96875 C 14.25 -7.945312 13.859375 -8.671875 13.078125 -9.140625 C 12.679688 -9.359375 12.25 -9.476562 11.78125 -9.5 L 7.890625 -9.5 L 7.890625 -1.265625 L 11.71875 -1.265625 C 13.144531 -1.265625 14.34375 -1.671875 15.3125 -2.484375 C 16.28125 -3.304688 17 -4.472656 17.46875 -5.984375 L 17.765625 -5.984375 L 16.421875 0 L 1.234375 0 L 1.234375 -0.296875 Z M 1.609375 -0.296875 "/></g></g></g><g fill="#0d4b8f" fill-opacity="1"><g transform="translate(106.171256, 88.249121)"><g/></g></g><g fill="#0d4b8f" fill-opacity="1"><g transform="translate(113.497829, 88.249121)"><g><path d="M -2.8125 -22.453125 C -1.695312 -22.921875 -0.734375 -23.15625 0.078125 -23.15625 C 0.898438 -23.15625 1.625 -23.078125 2.25 -22.921875 C 2.875 -22.765625 3.515625 -22.503906 4.171875 -22.140625 C 4.828125 -21.785156 5.441406 -21.34375 6.015625 -20.8125 C 7.109375 -19.78125 8.035156 -18.609375 8.796875 -17.296875 L 14.65625 -6.296875 L 23.15625 -20.921875 L 23.421875 -20.921875 L 26.46875 -3.6875 C 26.9375 -1.03125 27.75 1.078125 28.90625 2.640625 C 30.050781 4.222656 31.632812 5.015625 33.65625 5.015625 C 33.789062 5.015625 33.914062 5.015625 34.03125 5.015625 L 34.03125 5.3125 C 32.957031 5.601562 31.898438 5.75 30.859375 5.75 C 28.753906 5.75 26.832031 4.914062 25.09375 3.25 C 23.414062 1.664062 22.269531 -0.644531 21.65625 -3.6875 L 20.21875 -12.21875 L 14.71875 -2.671875 C 13.96875 -1.441406 13.585938 -0.351562 13.578125 0.59375 L 13.3125 0.59375 L 6.015625 -13.25 L 4.578125 -1.53125 C 4.515625 -1.070312 4.707031 -0.707031 5.15625 -0.4375 C 5.332031 -0.320312 5.519531 -0.265625 5.71875 -0.265625 L 6.1875 -0.265625 L 6.1875 0 L 0.0625 0 L 0.0625 -0.296875 L 0.53125 -0.296875 C 1.039062 -0.296875 1.492188 -0.445312 1.890625 -0.75 C 2.285156 -1.050781 2.535156 -1.46875 2.640625 -2 L 4.625 -15.96875 C 3.75 -17.539062 2.742188 -18.929688 1.609375 -20.140625 C 0.335938 -21.503906 -0.988281 -22.1875 -2.375 -22.1875 C -2.507812 -22.1875 -2.632812 -22.175781 -2.75 -22.15625 Z M -2.8125 -22.453125 "/></g></g></g><g fill="#0d4b8f" fill-opacity="1"><g transform="translate(141.866339, 88.249121)"><g><path d="M 12.890625 -20.921875 C 16.515625 -20.921875 19.390625 -19.960938 21.515625 -18.046875 C 23.640625 -16.140625 24.703125 -13.539062 24.703125 -10.25 C 24.703125 -6.96875 23.640625 -4.367188 21.515625 -2.453125 C 19.390625 -0.546875 16.515625 0.40625 12.890625 0.40625 C 9.273438 0.40625 6.398438 -0.546875 4.265625 -2.453125 C 2.140625 -4.367188 1.078125 -6.972656 1.078125 -10.265625 C 1.078125 -12.429688 1.5625 -14.316406 2.53125 -15.921875 C 3.5 -17.535156 4.875 -18.769531 6.65625 -19.625 C 8.4375 -20.488281 10.515625 -20.921875 12.890625 -20.921875 Z M 7.78125 -3.359375 C 9.039062 -1.671875 10.742188 -0.828125 12.890625 -0.828125 C 15.046875 -0.828125 16.753906 -1.671875 18.015625 -3.359375 C 19.273438 -5.046875 19.90625 -7.347656 19.90625 -10.265625 C 19.90625 -12.171875 19.617188 -13.835938 19.046875 -15.265625 C 18.484375 -16.691406 17.671875 -17.785156 16.609375 -18.546875 C 15.554688 -19.316406 14.316406 -19.703125 12.890625 -19.703125 C 10.742188 -19.703125 9.039062 -18.851562 7.78125 -17.15625 C 6.519531 -15.46875 5.890625 -13.164062 5.890625 -10.25 C 5.890625 -7.34375 6.519531 -5.046875 7.78125 -3.359375 Z M 7.78125 -3.359375 "/></g></g></g><g fill="#0d4b8f" fill-opacity="1"><g transform="translate(167.626585, 88.249121)"><g><path d="M 23.15625 -20.21875 L 22.65625 -20.21875 C 22.25 -20.21875 21.894531 -20.085938 21.59375 -19.828125 C 21.289062 -19.566406 21.140625 -19.238281 21.140625 -18.84375 L 21.140625 -7.421875 C 21.140625 -5.015625 20.382812 -3.109375 18.875 -1.703125 C 17.375 -0.296875 15.3125 0.40625 12.6875 0.40625 C 9.601562 0.40625 7.238281 -0.28125 5.59375 -1.65625 C 3.957031 -3.03125 3.140625 -4.941406 3.140625 -7.390625 L 3.140625 -18.765625 C 3.140625 -19.191406 2.988281 -19.539062 2.6875 -19.8125 C 2.382812 -20.082031 2.015625 -20.21875 1.578125 -20.21875 L 1.109375 -20.21875 L 1.109375 -20.515625 L 9.5625 -20.515625 L 9.5625 -20.21875 L 9.09375 -20.21875 C 8.65625 -20.21875 8.289062 -20.085938 8 -19.828125 C 7.707031 -19.566406 7.550781 -19.226562 7.53125 -18.8125 L 7.53125 -7.625 C 7.53125 -5.550781 8.035156 -3.90625 9.046875 -2.6875 C 10.066406 -1.476562 11.46875 -0.875 13.25 -0.875 C 15.03125 -0.875 16.4375 -1.445312 17.46875 -2.59375 C 18.507812 -3.738281 19.035156 -5.285156 19.046875 -7.234375 L 19.046875 -18.8125 C 19.046875 -19.226562 18.894531 -19.566406 18.59375 -19.828125 C 18.289062 -20.085938 17.925781 -20.21875 17.5 -20.21875 L 17.03125 -20.21875 L 17.03125 -20.515625 L 23.15625 -20.515625 Z M 23.15625 -20.21875 "/></g></g></g><g fill="#0d4b8f" fill-opacity="1"><g transform="translate(191.68707, 88.249121)"><g><path d="M 23.953125 -20.21875 C 23.460938 -20.21875 23.039062 -20.046875 22.6875 -19.703125 C 22.332031 -19.367188 22.144531 -18.957031 22.125 -18.46875 L 22.125 -3.34375 C 22.125 -2.03125 22.210938 -0.925781 22.390625 -0.03125 L 22.484375 0.40625 L 22.21875 0.40625 L 7.421875 -13.6875 L 7.421875 -2.046875 C 7.421875 -1.554688 7.59375 -1.140625 7.9375 -0.796875 C 8.289062 -0.460938 8.710938 -0.296875 9.203125 -0.296875 L 9.765625 -0.296875 L 9.765625 0 L 0.875 0 L 0.875 -0.296875 L 1.40625 -0.296875 C 1.914062 -0.296875 2.34375 -0.460938 2.6875 -0.796875 C 3.039062 -1.140625 3.21875 -1.566406 3.21875 -2.078125 L 3.21875 -17.296875 C 3.21875 -18.585938 3.128906 -19.660156 2.953125 -20.515625 L 2.90625 -20.953125 L 3.171875 -20.953125 L 17.96875 -6.859375 L 17.96875 -18.4375 C 17.945312 -18.945312 17.757812 -19.367188 17.40625 -19.703125 C 17.0625 -20.046875 16.644531 -20.21875 16.15625 -20.21875 L 15.625 -20.21875 L 15.625 -20.515625 L 24.5 -20.515625 L 24.5 -20.21875 Z M 23.953125 -20.21875 "/></g></g></g><g fill="#0d4b8f" fill-opacity="1"><g transform="translate(217.037023, 88.249121)"><g><path d="M 11.984375 -19.3125 L 11.984375 -2.109375 C 12.003906 -1.597656 12.195312 -1.164062 12.5625 -0.8125 C 12.925781 -0.46875 13.359375 -0.296875 13.859375 -0.296875 L 14.21875 -0.296875 L 14.25 0 L 5.328125 0 L 5.328125 -0.296875 L 5.71875 -0.296875 C 6.207031 -0.296875 6.628906 -0.46875 6.984375 -0.8125 C 7.347656 -1.164062 7.550781 -1.585938 7.59375 -2.078125 L 7.59375 -19.3125 L 3.640625 -19.3125 C 2.734375 -19.289062 2.015625 -19.003906 1.484375 -18.453125 C 0.960938 -17.910156 0.703125 -17.203125 0.703125 -16.328125 L 0.703125 -15.96875 L 0.40625 -15.96875 L 0.40625 -21.078125 C 0.6875 -20.960938 1.179688 -20.84375 1.890625 -20.71875 C 2.597656 -20.601562 3.257812 -20.546875 3.875 -20.546875 L 15.6875 -20.546875 C 16.644531 -20.566406 17.425781 -20.644531 18.03125 -20.78125 C 18.632812 -20.914062 19.003906 -21.015625 19.140625 -21.078125 L 19.140625 -15.96875 L 18.84375 -15.96875 L 18.84375 -16.328125 C 18.84375 -17.203125 18.578125 -17.910156 18.046875 -18.453125 C 17.523438 -19.003906 16.816406 -19.289062 15.921875 -19.3125 Z M 11.984375 -19.3125 "/></g></g></g><g fill="#0d4b8f" fill-opacity="1"><g transform="translate(236.555027, 88.249121)"><g><path d="M 21.640625 -0.296875 L 21.90625 -0.296875 L 21.90625 0 L 12.546875 0 L 12.546875 -0.296875 L 12.8125 -0.296875 C 13.238281 -0.296875 13.554688 -0.425781 13.765625 -0.6875 C 13.972656 -0.945312 14.078125 -1.191406 14.078125 -1.421875 C 14.078125 -1.660156 14.023438 -1.898438 13.921875 -2.140625 L 12.484375 -5.75 L 5.625 -5.75 L 4.109375 -2.140625 C 4.003906 -1.890625 3.953125 -1.648438 3.953125 -1.421875 C 3.953125 -1.191406 4.054688 -0.945312 4.265625 -0.6875 C 4.472656 -0.425781 4.800781 -0.296875 5.25 -0.296875 L 5.484375 -0.296875 L 5.484375 0 L -0.796875 0 L -0.796875 -0.296875 L -0.53125 -0.296875 C -0.0703125 -0.296875 0.378906 -0.429688 0.828125 -0.703125 C 1.273438 -0.972656 1.644531 -1.382812 1.9375 -1.9375 L 8.703125 -17.265625 C 9.617188 -19.203125 10.109375 -20.484375 10.171875 -21.109375 L 10.4375 -21.109375 L 19.140625 -2 C 19.429688 -1.425781 19.800781 -1 20.25 -0.71875 C 20.707031 -0.4375 21.171875 -0.296875 21.640625 -0.296875 Z M 6.125 -6.96875 L 11.984375 -6.96875 L 9.140625 -14.1875 Z M 6.125 -6.96875 "/></g></g></g><g fill="#0d4b8f" fill-opacity="1"><g transform="translate(257.538349, 88.249121)"><g><path d="M 1.609375 -0.296875 C 2.117188 -0.296875 2.550781 -0.472656 2.90625 -0.828125 C 3.269531 -1.191406 3.460938 -1.628906 3.484375 -2.140625 L 3.484375 -18.40625 C 3.460938 -18.914062 3.269531 -19.34375 2.90625 -19.6875 C 2.550781 -20.039062 2.117188 -20.21875 1.609375 -20.21875 L 1.234375 -20.21875 L 1.234375 -20.515625 L 10.140625 -20.515625 L 10.109375 -20.21875 L 9.765625 -20.21875 C 9.253906 -20.21875 8.8125 -20.039062 8.4375 -19.6875 C 8.070312 -19.34375 7.890625 -18.914062 7.890625 -18.40625 L 7.890625 -2.140625 C 7.890625 -1.628906 8.070312 -1.191406 8.4375 -0.828125 C 8.8125 -0.472656 9.253906 -0.296875 9.765625 -0.296875 L 10.109375 -0.296875 L 10.140625 0 L 1.234375 0 L 1.234375 -0.296875 Z M 1.609375 -0.296875 "/></g></g></g><g fill="#0d4b8f" fill-opacity="1"><g transform="translate(268.850597, 88.249121)"><g><path d="M 23.953125 -20.21875 C 23.460938 -20.21875 23.039062 -20.046875 22.6875 -19.703125 C 22.332031 -19.367188 22.144531 -18.957031 22.125 -18.46875 L 22.125 -3.34375 C 22.125 -2.03125 22.210938 -0.925781 22.390625 -0.03125 L 22.484375 0.40625 L 22.21875 0.40625 L 7.421875 -13.6875 L 7.421875 -2.046875 C 7.421875 -1.554688 7.59375 -1.140625 7.9375 -0.796875 C 8.289062 -0.460938 8.710938 -0.296875 9.203125 -0.296875 L 9.765625 -0.296875 L 9.765625 0 L 0.875 0 L 0.875 -0.296875 L 1.40625 -0.296875 C 1.914062 -0.296875 2.34375 -0.460938 2.6875 -0.796875 C 3.039062 -1.140625 3.21875 -1.566406 3.21875 -2.078125 L 3.21875 -17.296875 C 3.21875 -18.585938 3.128906 -19.660156 2.953125 -20.515625 L 2.90625 -20.953125 L 3.171875 -20.953125 L 17.96875 -6.859375 L 17.96875 -18.4375 C 17.945312 -18.945312 17.757812 -19.367188 17.40625 -19.703125 C 17.0625 -20.046875 16.644531 -20.21875 16.15625 -20.21875 L 15.625 -20.21875 L 15.625 -20.515625 L 24.5 -20.515625 L 24.5 -20.21875 Z M 23.953125 -20.21875 "/></g></g></g><g fill="#0d4b8f" fill-opacity="1"><g transform="translate(294.20055, 88.249121)"><g/></g></g><g fill="#0d4b8f" fill-opacity="1"><g transform="translate(301.527131, 88.249121)"><g><path d="M 25.03125 4.078125 C 27.0625 4.078125 28.703125 3.675781 29.953125 2.875 L 30.15625 3.109375 C 28.476562 5.429688 26.390625 6.71875 23.890625 6.96875 C 23.359375 7.03125 22.898438 7.0625 22.515625 7.0625 C 22.140625 7.0625 21.703125 7.046875 21.203125 7.015625 C 20.703125 6.984375 20.003906 6.847656 19.109375 6.609375 C 18.210938 6.378906 17.421875 6.144531 16.734375 5.90625 C 16.054688 5.664062 15.265625 5.34375 14.359375 4.9375 C 13.460938 4.539062 12.71875 4.1875 12.125 3.875 C 11.539062 3.570312 10.84375 3.210938 10.03125 2.796875 C 9.226562 2.378906 8.519531 2.023438 7.90625 1.734375 C 7.300781 1.441406 6.71875 1.1875 6.15625 0.96875 C 4.550781 0.320312 2.910156 0 1.234375 0 L 1.234375 -0.296875 L 1.609375 -0.296875 C 2.117188 -0.296875 2.550781 -0.46875 2.90625 -0.8125 C 3.269531 -1.164062 3.460938 -1.609375 3.484375 -2.140625 L 3.484375 -18.375 C 3.460938 -18.90625 3.269531 -19.34375 2.90625 -19.6875 C 2.550781 -20.039062 2.117188 -20.21875 1.609375 -20.21875 L 1.234375 -20.21875 L 1.234375 -20.515625 L 10.140625 -20.515625 L 10.109375 -20.21875 L 9.8125 -20.21875 C 9.070312 -20.21875 8.519531 -19.914062 8.15625 -19.3125 C 7.976562 -19.039062 7.890625 -18.726562 7.890625 -18.375 L 7.890625 -1.375 C 7.890625 -0.726562 8.015625 -0.28125 8.265625 -0.03125 C 8.515625 0.207031 8.796875 0.375 9.109375 0.46875 C 16.460938 2.875 21.769531 4.078125 25.03125 4.078125 Z M 25.03125 4.078125 "/></g></g></g><g fill="#0d4b8f" fill-opacity="1"><g transform="translate(314.040928, 88.249121)"><g><path d="M 1.609375 -0.296875 C 2.117188 -0.296875 2.550781 -0.472656 2.90625 -0.828125 C 3.269531 -1.191406 3.460938 -1.628906 3.484375 -2.140625 L 3.484375 -18.46875 C 3.429688 -19.15625 3.109375 -19.660156 2.515625 -19.984375 C 2.222656 -20.140625 1.921875 -20.21875 1.609375 -20.21875 L 1.234375 -20.21875 L 1.234375 -20.515625 L 12.453125 -20.515625 C 13.054688 -20.515625 13.71875 -20.570312 14.4375 -20.6875 C 15.164062 -20.8125 15.675781 -20.929688 15.96875 -21.046875 L 15.96875 -15.921875 L 15.6875 -15.921875 L 15.6875 -16.265625 C 15.6875 -17.148438 15.425781 -17.859375 14.90625 -18.390625 C 14.382812 -18.929688 13.6875 -19.222656 12.8125 -19.265625 L 7.890625 -19.265625 L 7.890625 -10.734375 L 11.75 -10.734375 C 12.476562 -10.742188 13.078125 -10.988281 13.546875 -11.46875 C 14.015625 -11.945312 14.25 -12.539062 14.25 -13.25 L 14.25 -13.515625 L 14.53125 -13.515625 L 14.53125 -6.734375 L 14.25 -6.734375 L 14.25 -6.96875 C 14.25 -7.945312 13.859375 -8.671875 13.078125 -9.140625 C 12.679688 -9.359375 12.25 -9.476562 11.78125 -9.5 L 7.890625 -9.5 L 7.890625 -1.265625 L 11.71875 -1.265625 C 13.144531 -1.265625 14.34375 -1.671875 15.3125 -2.484375 C 16.28125 -3.304688 17 -4.472656 17.46875 -5.984375 L 17.765625 -5.984375 L 16.421875 0 L 1.234375 0 L 1.234375 -0.296875 Z M 1.609375 -0.296875 "/></g></g></g><g fill="#0d4b8f" fill-opacity="1"><g transform="translate(332.533216, 88.249121)"><g><path d="M 21.640625 -0.296875 L 21.90625 -0.296875 L 21.90625 0 L 12.546875 0 L 12.546875 -0.296875 L 12.8125 -0.296875 C 13.238281 -0.296875 13.554688 -0.425781 13.765625 -0.6875 C 13.972656 -0.945312 14.078125 -1.191406 14.078125 -1.421875 C 14.078125 -1.660156 14.023438 -1.898438 13.921875 -2.140625 L 12.484375 -5.75 L 5.625 -5.75 L 4.109375 -2.140625 C 4.003906 -1.890625 3.953125 -1.648438 3.953125 -1.421875 C 3.953125 -1.191406 4.054688 -0.945312 4.265625 -0.6875 C 4.472656 -0.425781 4.800781 -0.296875 5.25 -0.296875 L 5.484375 -0.296875 L 5.484375 0 L -0.796875 0 L -0.796875 -0.296875 L -0.53125 -0.296875 C -0.0703125 -0.296875 0.378906 -0.429688 0.828125 -0.703125 C 1.273438 -0.972656 1.644531 -1.382812 1.9375 -1.9375 L 8.703125 -17.265625 C 9.617188 -19.203125 10.109375 -20.484375 10.171875 -21.109375 L 10.4375 -21.109375 L 19.140625 -2 C 19.429688 -1.425781 19.800781 -1 20.25 -0.71875 C 20.707031 -0.4375 21.171875 -0.296875 21.640625 -0.296875 Z M 6.125 -6.96875 L 11.984375 -6.96875 L 9.140625 -14.1875 Z M 6.125 -6.96875 "/></g></g></g><g fill="#0d4b8f" fill-opacity="1"><g transform="translate(353.516539, 88.249121)"><g><path d="M 7.890625 -19.265625 L 7.890625 -10.734375 L 11.75 -10.734375 C 12.476562 -10.742188 13.078125 -10.984375 13.546875 -11.453125 C 14.015625 -11.929688 14.25 -12.53125 14.25 -13.25 L 14.25 -13.515625 L 14.53125 -13.515625 L 14.53125 -6.734375 L 14.25 -6.734375 L 14.25 -6.96875 C 14.25 -7.695312 14.019531 -8.296875 13.5625 -8.765625 C 13.101562 -9.234375 12.507812 -9.476562 11.78125 -9.5 L 7.890625 -9.5 L 7.890625 -2.140625 C 7.890625 -1.421875 8.203125 -0.882812 8.828125 -0.53125 C 9.117188 -0.375 9.429688 -0.296875 9.765625 -0.296875 L 10.109375 -0.296875 L 10.140625 0 L 1.234375 0 L 1.234375 -0.296875 L 1.609375 -0.296875 C 2.117188 -0.296875 2.550781 -0.472656 2.90625 -0.828125 C 3.269531 -1.191406 3.460938 -1.628906 3.484375 -2.140625 L 3.484375 -18.46875 C 3.441406 -18.957031 3.238281 -19.367188 2.875 -19.703125 C 2.519531 -20.046875 2.097656 -20.21875 1.609375 -20.21875 L 1.234375 -20.21875 L 1.234375 -20.515625 L 12.453125 -20.515625 C 13.410156 -20.515625 14.203125 -20.585938 14.828125 -20.734375 C 15.453125 -20.878906 15.832031 -20.984375 15.96875 -21.046875 L 15.96875 -16.09375 L 15.6875 -16.09375 L 15.6875 -16.390625 C 15.6875 -17.242188 15.4375 -17.929688 14.9375 -18.453125 C 14.4375 -18.972656 13.753906 -19.242188 12.890625 -19.265625 Z M 7.890625 -19.265625 "/></g></g></g><path fill="#42826c" d="M 33.550781 35.753906 C 33.492188 37.117188 33.359375 38.6875 32.941406 40.21875 C 32.878906 40.457031 32.789062 40.699219 32.667969 40.914062 C 32.515625 41.171875 32.140625 41.25 31.890625 41.074219 C 31.652344 40.910156 31.429688 40.710938 31.246094 40.496094 C 30.410156 39.527344 29.75 38.449219 29.207031 37.308594 C 29.117188 37.121094 29.0625 36.898438 29.066406 36.695312 C 29.140625 34.398438 29.835938 32.261719 30.882812 30.222656 C 30.917969 30.160156 30.941406 30.089844 30.980469 30.03125 C 31.289062 29.554688 31.859375 29.507812 32.15625 29.988281 C 32.492188 30.539062 32.773438 31.128906 32.996094 31.730469 C 33.359375 32.703125 33.558594 34.3125 33.550781 35.753906 " fill-opacity="1" fill-rule="nonzero"/><g clip-path="url(#2b4612a77f)"><path fill="#99daa2" d="M 37.566406 53.242188 C 36.8125 53.277344 36.148438 53.125 35.5 52.84375 C 32.714844 51.625 30.753906 49.589844 29.359375 47.011719 C 28.742188 45.867188 28.324219 44.644531 28.039062 43.378906 C 27.582031 41.347656 27.289062 39.292969 27.101562 37.226562 C 27.054688 36.699219 27.164062 36.160156 27.226562 35.628906 C 27.253906 35.421875 27.621094 35.332031 27.769531 35.492188 C 29.015625 36.8125 30.492188 37.921875 31.542969 39.417969 C 32.253906 40.421875 32.976562 41.417969 33.691406 42.417969 C 35.183594 44.503906 36.082031 46.847656 36.84375 49.246094 C 37.105469 50.066406 37.308594 50.902344 37.527344 51.734375 C 37.644531 52.1875 37.75 52.640625 37.566406 53.242188 " fill-opacity="1" fill-rule="nonzero"/></g><g clip-path="url(#94ae7e6334)"><path fill="#99daa2" d="M 42.148438 37.707031 C 41.878906 37.707031 41.804688 37.714844 41.730469 37.707031 C 40.585938 37.617188 40.390625 37.132812 40.820312 36.3125 C 41.15625 35.679688 41.5 35.039062 41.925781 34.460938 C 42.773438 33.324219 43.757812 32.308594 44.890625 31.425781 C 46.394531 30.257812 47.914062 29.117188 49.699219 28.367188 C 51.09375 27.78125 52.519531 27.292969 54.039062 27.09375 C 54.917969 26.980469 55.789062 26.796875 56.667969 26.664062 C 56.785156 26.648438 56.980469 26.710938 57.039062 26.796875 C 57.101562 26.890625 57.097656 27.09375 57.03125 27.191406 C 56.667969 27.726562 56.320312 28.285156 55.890625 28.769531 C 54.15625 30.738281 52.214844 32.496094 50.082031 34.058594 C 49.019531 34.835938 47.984375 35.648438 46.792969 36.246094 C 45.535156 36.878906 44.203125 37.292969 42.832031 37.617188 C 42.546875 37.6875 42.246094 37.695312 42.148438 37.707031 " fill-opacity="1" fill-rule="nonzero"/></g><g clip-path="url(#07517d75e5)"><path fill="#99daa2" d="M 51.957031 16.980469 C 51.992188 17.960938 51.910156 18.953125 51.605469 19.925781 C 51.441406 20.449219 51.226562 20.933594 50.875 21.359375 C 49.570312 22.945312 48.054688 24.300781 46.257812 25.34375 C 45.816406 25.597656 45.324219 25.773438 44.84375 25.953125 C 44.605469 26.042969 44.339844 26.085938 44.085938 26.097656 C 42.984375 26.148438 42.316406 25.546875 42.320312 24.492188 C 42.320312 23.429688 42.636719 22.4375 43.1875 21.53125 C 43.828125 20.472656 44.628906 19.535156 45.675781 18.816406 C 46.15625 18.484375 46.660156 18.179688 47.144531 17.851562 C 47.8125 17.402344 48.46875 16.9375 49.136719 16.484375 C 49.742188 16.074219 50.351562 15.671875 50.96875 15.273438 C 51.152344 15.15625 51.359375 15.070312 51.566406 14.992188 C 51.832031 14.890625 52.101562 15.074219 52.105469 15.351562 C 52.105469 15.492188 52.074219 15.632812 52.0625 15.777344 C 52.027344 16.167969 51.992188 16.5625 51.957031 16.980469 " fill-opacity="1" fill-rule="nonzero"/></g><path fill="#99daa2" d="M 38.253906 49.039062 C 38.285156 48.929688 38.351562 48.652344 38.449219 48.382812 C 38.710938 47.667969 39.132812 47.03125 39.632812 46.453125 C 41.289062 44.539062 43.355469 43.1875 45.832031 42.464844 C 46.496094 42.273438 47.210938 42.210938 47.910156 42.160156 C 48.472656 42.121094 48.726562 42.496094 48.496094 43 C 48.320312 43.390625 48.109375 43.777344 47.839844 44.113281 C 45.871094 46.585938 43.363281 48.367188 40.34375 49.460938 C 39.863281 49.632812 39.339844 49.707031 38.828125 49.777344 C 38.410156 49.839844 38.214844 49.621094 38.253906 49.039062 " fill-opacity="1" fill-rule="nonzero"/><g clip-path="url(#fe4fdf86e7)"><path fill="#42826c" d="M 52.019531 30.496094 C 51.9375 30.695312 51.921875 30.847656 51.835938 30.925781 C 51.53125 31.1875 51.222656 31.449219 50.878906 31.65625 C 49.9375 32.222656 48.980469 32.769531 48.015625 33.300781 C 45.53125 34.675781 43.234375 36.300781 41.042969 38.078125 C 40.355469 38.636719 39.964844 39.269531 39.859375 40.160156 C 39.496094 43.109375 39.042969 46.046875 38.660156 48.992188 C 38.53125 49.984375 38.503906 50.992188 38.453125 51.992188 C 38.335938 54.175781 38.226562 56.355469 38.121094 58.535156 C 38 61.074219 37.871094 63.613281 37.769531 66.152344 C 37.734375 67.046875 37.773438 67.941406 37.773438 68.839844 C 37.773438 69.125 37.75 69.410156 37.722656 69.691406 C 37.71875 69.75 37.648438 69.804688 37.566406 69.917969 C 37.460938 69.855469 37.292969 69.816406 37.25 69.722656 C 37.140625 69.5 37.066406 69.253906 37.015625 69.011719 C 36.769531 67.84375 36.792969 66.664062 36.859375 65.480469 C 36.988281 63.230469 37.121094 60.976562 37.246094 58.726562 C 37.316406 57.367188 37.378906 56.007812 37.433594 54.648438 C 37.453125 54.222656 37.4375 53.796875 37.4375 53.3125 C 36.234375 52.3125 35.453125 50.980469 34.714844 49.605469 C 33.742188 47.792969 32.773438 45.980469 31.984375 44.085938 C 31.726562 43.457031 31.539062 42.800781 31.335938 42.152344 C 31.273438 41.949219 31.300781 41.933594 31.578125 41.425781 C 31.75 41.628906 31.941406 41.796875 32.046875 42.003906 C 32.253906 42.421875 32.417969 42.863281 32.59375 43.292969 C 33.652344 45.898438 34.90625 48.40625 36.5 50.75 C 36.761719 51.132812 37.003906 51.539062 37.472656 51.886719 C 37.546875 51.671875 37.640625 51.523438 37.644531 51.371094 C 37.71875 49.042969 38.03125 46.734375 38.359375 44.429688 C 38.613281 42.660156 38.90625 40.890625 39.183594 39.121094 C 39.203125 38.980469 39.246094 38.839844 39.242188 38.695312 C 39.214844 36.921875 39.667969 35.21875 40.148438 33.53125 C 40.609375 31.914062 41.023438 30.28125 41.699219 28.722656 C 42.777344 26.222656 44.238281 23.953125 45.882812 21.777344 C 46.449219 21.027344 47.078125 20.320312 47.6875 19.597656 C 47.875 19.378906 48.074219 19.164062 48.289062 18.964844 C 48.5625 18.710938 48.863281 18.675781 49.085938 18.835938 C 49.304688 18.992188 49.328125 19.328125 49.125 19.609375 C 48.996094 19.785156 48.84375 19.941406 48.699219 20.105469 C 47.234375 21.773438 45.886719 23.515625 44.710938 25.394531 C 43.417969 27.460938 42.359375 29.613281 41.746094 31.960938 C 41.40625 33.277344 41.039062 34.589844 40.707031 35.910156 C 40.59375 36.355469 40.550781 36.816406 40.453125 37.414062 C 40.691406 37.25 40.816406 37.183594 40.914062 37.097656 C 42.433594 35.71875 44.117188 34.546875 45.867188 33.46875 C 47.179688 32.660156 48.53125 31.910156 49.867188 31.144531 C 50.378906 30.851562 50.910156 30.589844 51.503906 30.5 C 51.640625 30.480469 51.785156 30.496094 52.019531 30.496094 " fill-opacity="1" fill-rule="nonzero"/></g><g clip-path="url(#51d6197add)"><g clip-path="url(#5c204ad53e)"><g clip-path="url(#a2384971b9)"><g clip-path="url(#cce20e0bcd)"><path fill="#99daa2" d="M 137.296875 31.5 C 138.226562 31.429688 139.03125 32.058594 139.148438 33.0625 C 139.207031 33.558594 139.167969 34.117188 139.011719 34.589844 C 138.492188 36.175781 137.566406 37.449219 136.109375 38.222656 C 135.621094 38.484375 135.105469 38.699219 134.605469 38.9375 C 133.351562 39.53125 132.089844 40.113281 131.007812 41.039062 C 130.882812 41.148438 130.742188 41.261719 130.589844 41.308594 C 130.441406 41.351562 130.238281 41.367188 130.121094 41.289062 C 130.011719 41.214844 129.933594 41.011719 129.917969 40.859375 C 129.902344 40.695312 129.964844 40.519531 130.019531 40.355469 C 131.007812 37.398438 132.652344 34.886719 134.800781 32.734375 C 135.488281 32.042969 136.332031 31.605469 137.296875 31.5 " fill-opacity="1" fill-rule="nonzero"/></g></g></g></g><g clip-path="url(#81344cd70e)"><g clip-path="url(#8597ddfd0e)"><g clip-path="url(#6801ca804b)"><g clip-path="url(#753cf9429e)"><path fill="#99daa2" d="M 121.992188 57.417969 C 121.945312 58.191406 121.429688 58.488281 120.949219 58.121094 C 120.644531 57.886719 120.351562 57.613281 120.117188 57.300781 C 118.859375 55.632812 118.136719 53.722656 118.003906 51.59375 C 117.96875 50.972656 118.070312 50.324219 118.210938 49.710938 C 118.375 48.988281 118.835938 48.484375 119.5625 48.355469 C 120.300781 48.226562 120.851562 48.621094 121.21875 49.230469 C 121.476562 49.65625 121.695312 50.152344 121.777344 50.648438 C 121.898438 51.378906 121.914062 52.136719 121.929688 52.882812 C 121.953125 54.152344 121.945312 55.421875 121.957031 56.691406 C 121.960938 56.980469 121.984375 57.269531 121.992188 57.417969 " fill-opacity="1" fill-rule="nonzero"/></g></g></g></g><g clip-path="url(#861dd29e50)"><g clip-path="url(#4b3275377d)"><g clip-path="url(#98844304dd)"><g clip-path="url(#5fb3a163e0)"><path fill="#99daa2" d="M 125.011719 49.851562 C 124.980469 49.566406 124.953125 49.496094 124.972656 49.453125 C 126.046875 47.171875 128.90625 45.464844 131.199219 45.753906 C 131.523438 45.792969 131.863281 45.847656 132.15625 45.984375 C 133.199219 46.460938 133.378906 47.746094 132.476562 48.492188 C 132.054688 48.839844 131.539062 49.113281 131.027344 49.269531 C 130.292969 49.496094 129.527344 49.621094 128.765625 49.714844 C 127.789062 49.835938 126.800781 49.902344 125.816406 49.964844 C 125.558594 49.980469 125.292969 49.894531 125.011719 49.851562 " fill-opacity="1" fill-rule="nonzero"/></g></g></g></g><g clip-path="url(#0c1991c188)"><g clip-path="url(#d1a95548a3)"><g clip-path="url(#7135ca3fd4)"><g clip-path="url(#8b48f0a6f2)"><path fill="#42826c" d="M 133.105469 37.199219 C 133.351562 37.859375 133.011719 38.136719 132.773438 38.425781 C 132.195312 39.132812 131.574219 39.796875 131.011719 40.511719 C 128.085938 44.226562 126.027344 48.453125 124.292969 52.882812 C 122.054688 58.601562 120.402344 64.496094 119.445312 70.589844 C 118.71875 75.226562 117.878906 79.855469 117.796875 84.578125 C 117.796875 84.742188 117.722656 84.910156 117.683594 85.074219 C 117.300781 85.21875 117.148438 84.945312 117.144531 84.675781 C 117.117188 83.460938 117.035156 82.234375 117.15625 81.03125 C 117.714844 75.488281 118.550781 69.988281 119.726562 64.542969 C 120.671875 60.167969 122.140625 55.972656 123.734375 51.820312 C 124.878906 48.847656 126.230469 45.988281 127.9375 43.328125 C 128.953125 41.742188 130.105469 40.246094 131.234375 38.742188 C 131.570312 38.289062 132.023438 37.929688 132.445312 37.554688 C 132.605469 37.410156 132.824219 37.34375 133.105469 37.199219 " fill-opacity="1" fill-rule="nonzero"/></g></g></g></g><g clip-path="url(#a27c4589d6)"><path fill="#99daa2" d="M 310.550781 43.40625 C 310.574219 42.15625 310.867188 40.875 311.179688 39.941406 C 312.144531 37.058594 313.925781 34.53125 316.054688 32.457031 C 318.726562 29.847656 321.925781 28.039062 325.042969 26.109375 C 325.21875 26 325.394531 25.886719 325.585938 25.8125 C 325.753906 25.75 325.933594 25.761719 326.066406 25.921875 C 326.191406 26.078125 326.234375 26.265625 326.152344 26.441406 C 326.023438 26.71875 325.875 26.984375 325.707031 27.238281 C 324.761719 28.6875 324.003906 30.273438 323.460938 31.9375 C 322.957031 33.480469 322.78125 35.015625 322.398438 36.582031 C 321.664062 39.609375 320.109375 42.40625 317.976562 44.566406 C 317.125 45.429688 316.179688 46.191406 315.164062 46.820312 C 314.121094 47.46875 313.117188 47.816406 312.023438 47.101562 C 310.875 46.34375 310.523438 44.898438 310.550781 43.40625 " fill-opacity="1" fill-rule="nonzero"/></g><g clip-path="url(#83062a3c1e)"><path fill="#99daa2" d="M 317.046875 61.347656 C 314.59375 61.261719 312.171875 59.992188 313.214844 57 C 313.804688 55.304688 314.832031 53.78125 316.15625 52.636719 C 317.785156 51.234375 319.8125 50.429688 321.871094 50.003906 C 323.125 49.75 324.398438 49.625 325.675781 49.550781 C 326.847656 49.488281 328.015625 49.566406 329.132812 49.128906 C 329.214844 49.097656 329.300781 49.074219 329.386719 49.070312 C 329.578125 49.058594 329.753906 49.128906 329.808594 49.324219 C 329.847656 49.460938 329.839844 49.640625 329.78125 49.761719 C 329.722656 49.894531 329.585938 49.984375 329.476562 50.085938 C 327.089844 52.269531 325.484375 55.347656 323.441406 57.871094 C 322.453125 59.09375 321.316406 60.234375 319.914062 60.855469 C 319.128906 61.203125 318.085938 61.382812 317.046875 61.347656 " fill-opacity="1" fill-rule="nonzero"/></g><g clip-path="url(#ed9862cadb)"><path fill="#42826c" d="M 305.152344 70.316406 C 305.027344 70.109375 304.886719 69.976562 304.867188 69.824219 C 304.820312 69.488281 304.800781 69.140625 304.832031 68.804688 C 304.949219 67.507812 305.066406 66.210938 305.226562 64.921875 C 305.398438 63.507812 305.601562 62.097656 305.828125 60.691406 C 306.136719 58.757812 306.714844 56.902344 307.367188 55.074219 C 307.617188 54.378906 307.878906 53.6875 308.117188 52.988281 C 308.976562 50.5 310.140625 48.175781 311.476562 45.949219 C 312.671875 43.957031 313.875 41.976562 315.214844 40.09375 C 316.292969 38.585938 317.335938 37.046875 318.59375 35.699219 C 318.761719 35.523438 318.929688 35.351562 319.117188 35.199219 C 319.296875 35.054688 319.535156 35.089844 319.675781 35.25 C 319.816406 35.40625 319.820312 35.644531 319.679688 35.84375 C 319.628906 35.917969 319.570312 35.988281 319.503906 36.050781 C 318.421875 37.105469 317.554688 38.363281 316.671875 39.59375 C 314.472656 42.660156 312.4375 45.839844 310.695312 49.222656 C 310.246094 50.09375 309.824219 50.984375 309.476562 51.902344 C 308.816406 53.65625 308.195312 55.433594 307.589844 57.210938 C 307.011719 58.90625 306.675781 60.671875 306.445312 62.457031 C 306.148438 64.730469 305.859375 67.003906 305.566406 69.277344 C 305.523438 69.609375 305.519531 69.960938 305.152344 70.316406 " fill-opacity="1" fill-rule="nonzero"/></g><g clip-path="url(#76e8285d79)"><path fill="#42826c" d="M 307.109375 70.710938 C 307.03125 70.636719 306.90625 70.574219 306.878906 70.480469 C 306.835938 70.34375 306.828125 70.167969 306.871094 70.035156 C 306.984375 69.683594 307.109375 69.332031 307.265625 69 C 307.796875 67.863281 308.410156 66.769531 309.132812 65.75 C 310.097656 64.386719 311.0625 63.027344 312.121094 61.742188 C 314.480469 58.878906 317.160156 56.394531 320.027344 54.128906 C 320.285156 53.925781 320.550781 53.730469 320.832031 53.566406 C 320.984375 53.472656 321.175781 53.488281 321.3125 53.652344 C 321.441406 53.8125 321.445312 54.015625 321.339844 54.171875 C 321.222656 54.339844 321.0625 54.484375 320.90625 54.617188 C 319.691406 55.636719 318.449219 56.621094 317.265625 57.675781 C 314.726562 59.941406 312.507812 62.527344 310.515625 65.339844 C 309.441406 66.855469 308.464844 68.425781 307.679688 70.132812 C 307.601562 70.296875 307.492188 70.445312 307.378906 70.585938 C 307.328125 70.644531 307.226562 70.660156 307.109375 70.710938 " fill-opacity="1" fill-rule="nonzero"/></g><path fill="#42826c" d="M 322.492188 58.257812 C 322.300781 58.535156 322.242188 58.675781 322.136719 58.765625 C 321.085938 59.660156 319.871094 60.160156 318.539062 60.347656 C 318.457031 60.359375 318.363281 60.339844 318.285156 60.308594 C 318.238281 60.289062 318.179688 60.214844 318.183594 60.171875 C 318.1875 60.09375 318.21875 59.960938 318.265625 59.945312 C 318.601562 59.84375 318.945312 59.765625 319.28125 59.671875 C 319.785156 59.53125 320.300781 59.417969 320.796875 59.03125 C 320.65625 58.929688 320.539062 58.851562 320.371094 58.734375 C 320.808594 58.371094 321.296875 58.40625 321.722656 58.265625 C 321.902344 58.207031 322.109375 58.257812 322.492188 58.257812 " fill-opacity="1" fill-rule="nonzero"/><path fill="#42826c" d="M 318.042969 42.675781 C 318.144531 42.492188 318.183594 42.375 318.257812 42.285156 C 319.171875 41.191406 319.976562 40.03125 320.363281 38.597656 C 320.375 38.542969 320.421875 38.492188 320.464844 38.453125 C 320.507812 38.421875 320.582031 38.378906 320.613281 38.398438 C 320.683594 38.4375 320.757812 38.503906 320.785156 38.574219 C 320.8125 38.65625 320.804688 38.761719 320.777344 38.847656 C 320.667969 39.195312 320.570312 39.554688 320.417969 39.886719 C 320.015625 40.78125 319.472656 41.582031 318.863281 42.339844 C 318.753906 42.476562 318.625 42.621094 318.476562 42.703125 C 318.382812 42.753906 318.234375 42.691406 318.042969 42.675781 " fill-opacity="1" fill-rule="nonzero"/><g clip-path="url(#92c5f673ea)"><g clip-path="url(#a3cf11aad9)"><g clip-path="url(#4363ea471b)"><g clip-path="url(#c54e103043)"><path fill="#99daa2" d="M 366.597656 59.617188 C 363.792969 59.984375 362.34375 58.734375 362.15625 56.242188 C 362.109375 55.636719 362.125 54.996094 362.25 54.410156 C 362.46875 53.367188 362.691406 52.300781 363.085938 51.328125 C 365.308594 45.867188 368.730469 41.476562 373.316406 38.167969 C 374.558594 37.273438 375.898438 36.601562 377.417969 36.371094 C 380.179688 35.949219 381.453125 37.988281 381.398438 40.230469 C 381.355469 42.03125 380.847656 43.707031 380.160156 45.316406 C 378.472656 49.269531 376.03125 52.613281 373.050781 55.5 C 371.789062 56.730469 370.429688 57.839844 368.878906 58.625 C 367.988281 59.078125 367.050781 59.421875 366.597656 59.617188 " fill-opacity="1" fill-rule="nonzero"/></g></g></g></g><g clip-path="url(#a2777d8896)"><g clip-path="url(#d4a629066b)"><g clip-path="url(#4b0eb9049d)"><g clip-path="url(#8c17c86a0d)"><path fill="#42826c" d="M 360.234375 72.039062 C 360.222656 71.417969 360.328125 70.339844 360.484375 69.28125 C 361.25 64.027344 363.167969 59.285156 365.863281 54.90625 C 368.503906 50.609375 371.753906 46.890625 375.289062 43.457031 C 375.640625 43.117188 376.101562 42.898438 376.53125 42.664062 C 376.613281 42.617188 376.820312 42.71875 376.902344 42.816406 C 376.980469 42.914062 377.039062 43.152344 376.984375 43.230469 C 376.691406 43.644531 376.386719 44.066406 376.03125 44.425781 C 373.390625 47.082031 370.828125 49.816406 368.613281 52.914062 C 365.195312 57.703125 362.660156 62.945312 361.667969 68.988281 C 361.484375 70.117188 361.4375 71.277344 361.316406 72.421875 C 361.273438 72.792969 361.238281 73.195312 360.824219 73.328125 C 360.570312 73.410156 360.246094 72.984375 360.234375 72.039062 " fill-opacity="1" fill-rule="nonzero"/></g></g></g></g></svg>